<svg width="27" height="27" viewBox="0 0 27 27" fill="none" xmlns="http://www.w3.org/2000/svg">
<path d="M24.513 11.9176H15.2184V2.62305C15.2184 1.67381 14.4489 0.904297 13.4996 0.904297C12.5504 0.904297 11.7809 1.67381 11.7809 2.62305V11.9176H2.48633C1.53709 11.9176 0.767578 12.6872 0.767578 13.6364C0.767578 14.5856 1.53709 15.3551 2.48633 15.3551H11.7809V24.6497C11.7809 25.5989 12.5504 26.3685 13.4996 26.3685C14.4489 26.3685 15.2184 25.5989 15.2184 24.6497V15.3551H24.513C25.4622 15.3551 26.2317 14.5856 26.2317 13.6364C26.2317 12.6872 25.4622 11.9176 24.513 11.9176Z" fill="white" stroke="white"/>
</svg>
