<svg width="37" height="37" viewBox="0 0 37 37" fill="none" xmlns="http://www.w3.org/2000/svg">
<path d="M20.3086 26.5957C20.3086 27.512 21.0483 28.2517 21.9646 28.2517C22.8845 28.2517 23.6207 27.5023 23.6207 26.5895V13.8729C23.6207 12.9565 22.881 12.2168 21.9646 12.2168C21.0483 12.2168 20.3086 12.9565 20.3086 13.8729V26.5957Z" fill="#A41F1F" stroke="#A41F1F"/>
<path d="M13.373 26.5957C13.373 27.512 14.1128 28.2517 15.0291 28.2517C15.9489 28.2517 16.6852 27.5023 16.6852 26.5895V13.8729C16.6852 12.9565 15.9454 12.2168 15.0291 12.2168C14.1128 12.2168 13.373 12.9565 13.373 13.8729V26.5957Z" fill="#A41F1F" stroke="#A41F1F"/>
<path d="M33.5322 7.59278H28.2519V5.78067C28.2519 3.59372 26.4902 1.8125 24.3086 1.8125H12.717C10.5265 1.8125 8.74884 3.5902 8.74884 5.78067V7.59278H3.46856C2.55223 7.59278 1.8125 8.33251 1.8125 9.24883C1.8125 10.1652 2.55223 10.9049 3.46856 10.9049H33.5322C34.4485 10.9049 35.1883 10.1652 35.1883 9.24883C35.1883 8.33251 34.4485 7.59278 33.5322 7.59278ZM12.0609 5.78067C12.0609 5.42284 12.3592 5.12461 12.717 5.12461H24.3086C24.6558 5.12461 24.9398 5.39968 24.9398 5.78067V7.59278H12.0609V5.78067Z" fill="#A41F1F" stroke="#A41F1F"/>
<path d="M30.5707 31.2222V31.2206V13.9046C30.5707 12.9883 29.831 12.2486 28.9146 12.2486C27.9983 12.2486 27.2586 12.9883 27.2586 13.9046V31.2206C27.2586 31.5847 26.9666 31.8767 26.6025 31.8767H10.4115C10.052 31.8767 9.75547 31.5829 9.75547 31.2206V13.8611C9.75547 12.9448 9.01574 12.2051 8.09942 12.2051C7.18309 12.2051 6.44336 12.9448 6.44336 13.8611V31.2206C6.44336 33.4111 8.22106 35.1888 10.4115 35.1888H26.5963C28.7877 35.1888 30.5636 33.4043 30.5707 31.2222Z" fill="#A41F1F" stroke="#A41F1F"/>
</svg>
