<svg width="350" height="44" viewBox="0 0 350 44" fill="none" xmlns="http://www.w3.org/2000/svg">
<path d="M26.7279 34H1.4319V31.96H26.7279C27.0959 31.96 27.4399 31.888 27.7599 31.744C28.0799 31.6 28.3599 31.408 28.5999 31.168C28.8399 30.928 29.0319 30.648 29.1759 30.328C29.3199 30.008 29.3919 29.664 29.3919 29.296C29.3919 28.928 29.3199 28.584 29.1759 28.264C29.0319 27.928 28.8399 27.64 28.5999 27.4C28.3599 27.16 28.0799 26.976 27.7599 26.848C27.4399 26.704 27.0959 26.632 26.7279 26.632H5.1039C4.4639 26.632 3.8559 26.512 3.2799 26.272C2.7039 26.016 2.1999 25.68 1.7679 25.264C1.3519 24.832 1.0159 24.328 0.759902 23.752C0.519902 23.176 0.399902 22.56 0.399902 21.904C0.399902 21.248 0.519902 20.64 0.759902 20.08C1.0159 19.504 1.3519 19.008 1.7679 18.592C2.1999 18.16 2.7039 17.824 3.2799 17.584C3.8559 17.328 4.4639 17.2 5.1039 17.2H30.3999V19.24H5.1039C4.7359 19.24 4.3919 19.312 4.0719 19.456C3.7519 19.6 3.4719 19.792 3.2319 20.032C2.9919 20.272 2.7999 20.552 2.6559 20.872C2.5119 21.192 2.4399 21.536 2.4399 21.904C2.4399 22.272 2.5119 22.624 2.6559 22.96C2.7999 23.28 2.9919 23.56 3.2319 23.8C3.4719 24.04 3.7519 24.232 4.0719 24.376C4.3919 24.504 4.7359 24.568 5.1039 24.568H26.7279C27.3839 24.568 27.9919 24.696 28.5519 24.952C29.1279 25.192 29.6239 25.528 30.0399 25.96C30.4719 26.376 30.8079 26.872 31.0479 27.448C31.3039 28.024 31.4319 28.64 31.4319 29.296C31.4319 29.936 31.3039 30.544 31.0479 31.12C30.8079 31.696 30.4719 32.2 30.0399 32.632C29.6239 33.048 29.1279 33.384 28.5519 33.64C27.9919 33.88 27.3839 34 26.7279 34Z" fill="white"/>
<path d="M69.3798 34H46.7478C45.6758 34 44.6598 33.816 43.6998 33.448C42.7558 33.064 41.9158 32.544 41.1798 31.888C40.4438 31.216 39.8278 30.432 39.3318 29.536C38.8518 28.64 38.5478 27.68 38.4198 26.656H36.2358V24.616H38.3478V12.496H40.4118V24.616H69.3798V26.656H40.4838C40.6118 27.408 40.8598 28.112 41.2278 28.768C41.6118 29.408 42.0758 29.968 42.6198 30.448C43.1798 30.912 43.8118 31.28 44.5158 31.552C45.2198 31.824 45.9638 31.96 46.7478 31.96H69.3798V34Z" fill="white"/>
<path d="M104.253 29.464C103.885 30.152 103.437 30.776 102.909 31.336C102.381 31.896 101.789 32.376 101.133 32.776C100.493 33.176 99.8052 33.48 99.0692 33.688C98.3332 33.896 97.5732 34 96.7892 34H82.5812C81.4292 34 80.3412 33.784 79.3172 33.352C78.2932 32.904 77.3971 32.304 76.6292 31.552C75.8772 30.784 75.2771 29.888 74.8291 28.864C74.3971 27.84 74.1812 26.752 74.1812 25.6C74.1812 24.448 74.3971 23.36 74.8291 22.336C75.2771 21.312 75.8772 20.424 76.6292 19.672C77.3971 18.904 78.2932 18.304 79.3172 17.872C80.3412 17.424 81.4292 17.2 82.5812 17.2H96.7892C97.9412 17.2 99.0292 17.424 100.053 17.872C101.077 18.304 101.965 18.904 102.717 19.672C103.485 20.424 104.085 21.312 104.517 22.336C104.965 23.36 105.189 24.448 105.189 25.6V26.632H80.7332V24.568H103.053C102.941 23.816 102.693 23.12 102.309 22.48C101.941 21.824 101.477 21.256 100.917 20.776C100.357 20.296 99.7252 19.92 99.0212 19.648C98.3172 19.376 97.5732 19.24 96.7892 19.24H82.5812C81.7012 19.24 80.8772 19.408 80.1092 19.744C79.3412 20.08 78.6691 20.536 78.0931 21.112C77.5172 21.688 77.0611 22.36 76.7252 23.128C76.3892 23.896 76.2212 24.72 76.2212 25.6C76.2212 26.48 76.3892 27.304 76.7252 28.072C77.0611 28.84 77.5172 29.512 78.0931 30.088C78.6691 30.664 79.3412 31.12 80.1092 31.456C80.8772 31.792 81.7012 31.96 82.5812 31.96H96.7892C97.7971 31.96 98.7332 31.744 99.5972 31.312C100.477 30.864 101.221 30.248 101.829 29.464H104.253Z" fill="white"/>
<path d="M118.394 34C117.242 34 116.154 33.784 115.13 33.352C114.106 32.904 113.21 32.304 112.442 31.552C111.69 30.784 111.09 29.888 110.642 28.864C110.21 27.84 109.994 26.752 109.994 25.6V17.2H112.034V25.6C112.034 26.48 112.202 27.304 112.538 28.072C112.874 28.84 113.33 29.512 113.906 30.088C114.482 30.664 115.154 31.12 115.922 31.456C116.69 31.792 117.514 31.96 118.394 31.96H141.026V34H118.394Z" fill="white"/>
<path d="M154.23 34C153.078 34 151.99 33.784 150.966 33.352C149.942 32.904 149.046 32.304 148.278 31.552C147.526 30.784 146.926 29.888 146.478 28.864C146.046 27.84 145.83 26.752 145.83 25.6V17.2H147.87V25.6C147.87 26.48 148.038 27.304 148.374 28.072C148.71 28.84 149.166 29.512 149.742 30.088C150.318 30.664 150.99 31.12 151.758 31.456C152.526 31.792 153.35 31.96 154.23 31.96H176.862V34H154.23Z" fill="white"/>
<path d="M212.626 34H210.586V31.072C209.818 31.968 208.882 32.68 207.778 33.208C206.69 33.72 205.514 33.976 204.25 33.976H190.066C188.914 33.976 187.826 33.76 186.802 33.328C185.778 32.88 184.882 32.28 184.114 31.528C183.362 30.76 182.762 29.864 182.314 28.84C181.882 27.816 181.666 26.728 181.666 25.576C181.666 24.424 181.882 23.344 182.314 22.336C182.762 21.312 183.362 20.424 184.114 19.672C184.882 18.904 185.778 18.304 186.802 17.872C187.826 17.424 188.914 17.2 190.066 17.2H212.626V34ZM190.066 19.24C189.186 19.24 188.362 19.408 187.594 19.744C186.826 20.08 186.154 20.536 185.578 21.112C185.002 21.688 184.546 22.36 184.21 23.128C183.874 23.896 183.706 24.712 183.706 25.576C183.706 26.456 183.874 27.28 184.21 28.048C184.546 28.816 185.002 29.488 185.578 30.064C186.154 30.64 186.826 31.096 187.594 31.432C188.362 31.768 189.186 31.936 190.066 31.936H204.25C205.114 31.936 205.93 31.776 206.698 31.456C207.466 31.12 208.138 30.664 208.714 30.088C209.29 29.512 209.746 28.84 210.082 28.072C210.418 27.304 210.586 26.488 210.586 25.624V19.24H190.066Z" fill="white"/>
<path d="M248.463 17.2V19.24H225.831C224.951 19.24 224.127 19.408 223.359 19.744C222.591 20.08 221.919 20.536 221.343 21.112C220.767 21.688 220.311 22.36 219.975 23.128C219.639 23.896 219.471 24.72 219.471 25.6V34H217.431V17.2H219.471V20.128C220.255 19.216 221.191 18.504 222.279 17.992C223.367 17.464 224.551 17.2 225.831 17.2H248.463Z" fill="white"/>
<path d="M253.267 11.752H255.307V13.816H253.267V11.752ZM253.267 17.2H255.307V34H253.267V17.2Z" fill="white"/>
<path d="M286.462 34H261.166V31.96H286.462C286.83 31.96 287.174 31.888 287.494 31.744C287.814 31.6 288.094 31.408 288.334 31.168C288.574 30.928 288.766 30.648 288.91 30.328C289.054 30.008 289.126 29.664 289.126 29.296C289.126 28.928 289.054 28.584 288.91 28.264C288.766 27.928 288.574 27.64 288.334 27.4C288.094 27.16 287.814 26.976 287.494 26.848C287.174 26.704 286.83 26.632 286.462 26.632H264.838C264.198 26.632 263.59 26.512 263.014 26.272C262.438 26.016 261.934 25.68 261.502 25.264C261.086 24.832 260.75 24.328 260.494 23.752C260.254 23.176 260.134 22.56 260.134 21.904C260.134 21.248 260.254 20.64 260.494 20.08C260.75 19.504 261.086 19.008 261.502 18.592C261.934 18.16 262.438 17.824 263.014 17.584C263.59 17.328 264.198 17.2 264.838 17.2H290.134V19.24H264.838C264.47 19.24 264.126 19.312 263.806 19.456C263.486 19.6 263.206 19.792 262.966 20.032C262.726 20.272 262.534 20.552 262.39 20.872C262.246 21.192 262.174 21.536 262.174 21.904C262.174 22.272 262.246 22.624 262.39 22.96C262.534 23.28 262.726 23.56 262.966 23.8C263.206 24.04 263.486 24.232 263.806 24.376C264.126 24.504 264.47 24.568 264.838 24.568H286.462C287.118 24.568 287.726 24.696 288.286 24.952C288.862 25.192 289.358 25.528 289.774 25.96C290.206 26.376 290.542 26.872 290.782 27.448C291.038 28.024 291.166 28.64 291.166 29.296C291.166 29.936 291.038 30.544 290.782 31.12C290.542 31.696 290.206 32.2 289.774 32.632C289.358 33.048 288.862 33.384 288.286 33.64C287.726 33.88 287.118 34 286.462 34Z" fill="white"/>
<g clip-path="url(#clip0_218_1398)">
<path d="M328.001 22.0006L327.887 8.22038L328.985 0L332.234 0.0303335L333.657 8.20647L328.001 22.0006Z" fill="white"/>
<path d="M328.001 22.0006L337.663 12.1764L344.253 7.14102L346.528 9.45774L341.753 16.2461L328.001 22.0006Z" fill="white"/>
<path d="M328.001 22.0006L341.78 21.8869L350 22.9852L349.97 26.2334L341.794 27.6566L328.001 22.0006Z" fill="white"/>
<path d="M328.001 22.0006L337.824 31.6631L342.859 38.2531L340.542 40.5281L333.754 35.7531L328.001 22.0006Z" fill="white"/>
<path d="M328.001 22.0006L328.113 35.7796L327.015 44L323.767 43.9697L322.344 35.7935L328.001 22.0006Z" fill="white"/>
<path d="M328.001 22.0006L318.337 31.8236L311.747 36.859L309.472 34.5423L314.247 27.7539L328.001 22.0006Z" fill="white"/>
<path d="M328.001 22.0006L314.22 22.1131L306 21.0148L306.03 17.7666L314.206 16.3434L328.001 22.0006Z" fill="white"/>
<path d="M328.001 22.0006L318.176 12.3369L313.141 5.74694L315.458 3.47192L322.246 8.24692L328.001 22.0006Z" fill="white"/>
</g>
<defs>
<clipPath id="clip0_218_1398">
<rect width="44" height="44" fill="white" transform="translate(306)"/>
</clipPath>
</defs>
</svg>
