<svg width="1070" height="62" viewBox="0 0 1070 62" fill="none" xmlns="http://www.w3.org/2000/svg">
<path d="M172.564 21V18.457H162.529V0.861328H159.768V21H172.564ZM183.516 19.127C183.516 20.5625 184.336 21.2734 185.977 21.2734C186.373 21.2734 186.797 21.2188 187.398 21.0547V19.1543C187.111 19.209 186.906 19.2363 186.756 19.2363C186.4 19.2363 186.154 19.1406 186.018 18.9629C185.881 18.7852 185.812 18.375 185.812 17.7461V10.418C185.812 7.30078 184.021 5.87891 180.098 5.87891C178.279 5.87891 176.844 6.30273 175.805 7.16406C174.766 8.02539 174.246 9.1875 174.246 10.6641V10.7734H176.57C176.57 8.98242 177.732 8.06641 180.016 8.06641C182.217 8.06641 183.311 8.81836 183.311 10.3086C183.311 10.8965 183.27 11.2793 183.174 11.457C183.078 11.6348 182.9 11.7852 182.613 11.8945C182.326 12.0176 181.561 12.1406 180.316 12.2637C179.592 12.3457 179.004 12.4141 178.58 12.4551C175.203 12.8926 173.576 14.3828 173.576 17.0488C173.576 18.4297 174 19.4961 174.834 20.2754C175.668 21.0684 176.844 21.4512 178.334 21.4512C180.262 21.4512 181.984 20.6445 183.516 19.0449V19.127ZM183.283 15.7363C183.283 16.7754 182.859 17.623 182.012 18.293C181.164 18.9629 180.084 19.291 178.758 19.291C177.062 19.291 176.119 18.4844 176.119 17.0215C176.119 15.5586 176.844 14.8477 178.635 14.5605C178.922 14.5195 179.346 14.4512 179.906 14.3828C181.506 14.1777 182.627 13.9043 183.283 13.5488V15.7363ZM189.613 6.35742V15.1484V15.8457C189.613 16.8848 189.668 17.6367 189.764 18.1152C189.859 18.5938 190.023 19.0176 190.256 19.373C191.062 20.6445 192.621 21.3691 194.658 21.3691C196.846 21.3691 198.473 20.5078 199.498 18.8125V21H201.85V6.35742H199.389V14.2461C199.389 17.4863 197.912 19.1816 195.068 19.1816C193.988 19.1816 193.236 18.8945 192.785 18.334C192.334 17.7734 192.102 16.7754 192.102 15.3398V6.35742H189.613ZM217.846 21V12.209V11.5117C217.846 10.4727 217.791 9.70703 217.695 9.22852C217.6 8.75 217.436 8.33984 217.203 7.98438C216.383 6.6582 214.865 5.98828 212.664 5.98828C210.627 5.98828 209.096 6.79492 207.961 8.49023V6.35742H205.609V21H208.07V12.6602C208.07 9.80273 209.67 8.17578 212.418 8.17578C213.498 8.17578 214.25 8.44922 214.701 8.99609C215.139 9.55664 215.357 10.5547 215.357 11.9902V21H217.846ZM233.705 11.2246C233.637 9.58398 233.049 8.28516 231.941 7.31445C230.834 6.35742 229.357 5.87891 227.512 5.87891C225.42 5.87891 223.779 6.57617 222.59 7.95703C221.4 9.35156 220.799 11.2793 220.799 13.7266C220.799 16.1191 221.373 18.0059 222.521 19.3867C223.656 20.7676 225.229 21.4512 227.238 21.4512C229.166 21.4512 230.697 20.9453 231.832 19.9336C232.967 18.9355 233.609 17.5273 233.732 15.7363H231.381C231.053 17.9922 229.645 19.209 227.348 19.209C224.791 19.209 223.342 17.1992 223.342 13.6309C223.342 10.0762 224.846 8.09375 227.512 8.09375C229.768 8.09375 231.121 9.21484 231.271 11.2246H233.705ZM248.498 21V12.209V11.5117C248.498 10.4727 248.443 9.70703 248.348 9.22852C248.252 8.75 248.088 8.33984 247.855 7.98438C247.035 6.6582 245.518 5.98828 243.316 5.98828C241.225 5.98828 239.611 6.83594 238.723 8.42188V0.861328H236.262V21H238.723V12.3457C238.723 11.0742 239.119 10.0488 239.898 9.29688C240.678 8.54492 241.744 8.17578 243.07 8.17578C244.15 8.17578 244.902 8.44922 245.354 8.99609C245.791 9.54297 246.01 10.541 246.01 11.9902V21H248.498ZM262.771 8.3125H265.41V6.35742H262.771V2.26953H260.311V6.35742H258.123V8.3125H260.311V18.1426C260.311 19.2773 260.543 20.0703 261.008 20.5215C261.473 20.9727 262.279 21.1914 263.441 21.1914C263.947 21.1914 264.59 21.123 265.41 20.9727V18.8809C264.754 18.9355 264.371 18.9492 264.084 18.9492C263.578 18.9492 263.236 18.8398 263.059 18.6211C262.867 18.4023 262.771 17.9648 262.771 17.3086V8.3125ZM279.998 21V12.209V11.5117C279.998 10.4727 279.943 9.70703 279.848 9.22852C279.752 8.75 279.588 8.33984 279.355 7.98438C278.535 6.6582 277.018 5.98828 274.816 5.98828C272.725 5.98828 271.111 6.83594 270.223 8.42188V0.861328H267.762V21H270.223V12.3457C270.223 11.0742 270.619 10.0488 271.398 9.29688C272.178 8.54492 273.244 8.17578 274.57 8.17578C275.65 8.17578 276.402 8.44922 276.854 8.99609C277.291 9.54297 277.51 10.541 277.51 11.9902V21H279.998ZM285.576 12.3457C285.809 9.55664 287.244 8.06641 289.664 8.06641C292.18 8.06641 293.602 9.61133 293.615 12.3457H285.576ZM293.561 16.2695C293.178 18.1699 291.824 19.2363 289.814 19.2363C287.189 19.2363 285.645 17.4727 285.59 14.3965H296.158C296.199 14.123 296.199 13.9043 296.199 13.3027C296.199 10.9375 295.625 9.11914 294.477 7.82031C293.314 6.52148 291.688 5.87891 289.582 5.87891C287.531 5.87891 285.918 6.57617 284.756 7.98438C283.594 9.39258 283.006 11.334 283.006 13.8359C283.006 16.2012 283.594 18.0605 284.77 19.4277C285.945 20.7949 287.545 21.4785 289.582 21.4785C291.318 21.4785 292.754 21.0137 293.889 20.084C295.023 19.1543 295.734 17.8828 295.994 16.2695H293.561ZM315.75 19.127C315.75 20.5625 316.57 21.2734 318.211 21.2734C318.607 21.2734 319.031 21.2188 319.633 21.0547V19.1543C319.346 19.209 319.141 19.2363 318.99 19.2363C318.635 19.2363 318.389 19.1406 318.252 18.9629C318.115 18.7852 318.047 18.375 318.047 17.7461V10.418C318.047 7.30078 316.256 5.87891 312.332 5.87891C310.514 5.87891 309.078 6.30273 308.039 7.16406C307 8.02539 306.48 9.1875 306.48 10.6641V10.7734H308.805C308.805 8.98242 309.967 8.06641 312.25 8.06641C314.451 8.06641 315.545 8.81836 315.545 10.3086C315.545 10.8965 315.504 11.2793 315.408 11.457C315.312 11.6348 315.135 11.7852 314.848 11.8945C314.561 12.0176 313.795 12.1406 312.551 12.2637C311.826 12.3457 311.238 12.4141 310.814 12.4551C307.438 12.8926 305.811 14.3828 305.811 17.0488C305.811 18.4297 306.234 19.4961 307.068 20.2754C307.902 21.0684 309.078 21.4512 310.568 21.4512C312.496 21.4512 314.219 20.6445 315.75 19.0449V19.127ZM315.518 15.7363C315.518 16.7754 315.094 17.623 314.246 18.293C313.398 18.9629 312.318 19.291 310.992 19.291C309.297 19.291 308.354 18.4844 308.354 17.0215C308.354 15.5586 309.078 14.8477 310.869 14.5605C311.156 14.5195 311.58 14.4512 312.141 14.3828C313.74 14.1777 314.861 13.9043 315.518 13.5488V15.7363ZM324.281 13.7812C324.281 10.1309 325.826 8.09375 328.602 8.09375C329.955 8.09375 331.021 8.57227 331.801 9.5293C332.58 10.4863 332.963 11.7988 332.963 13.4668C332.963 17.1719 331.404 19.2637 328.629 19.2637C325.73 19.2637 324.281 17.4316 324.281 13.7812ZM324.363 26.8516V19.209C325.512 20.7266 327.043 21.4512 329.107 21.4512C331.049 21.4512 332.607 20.7402 333.783 19.332C334.959 17.9238 335.547 16.0234 335.547 13.6309C335.547 11.2656 334.973 9.39258 333.811 7.98438C332.648 6.57617 331.09 5.87891 329.135 5.87891C327.043 5.87891 325.58 6.67188 324.363 8.42188V6.35742H321.957V26.8516H324.363ZM340.934 13.7812C340.934 10.1309 342.479 8.09375 345.254 8.09375C346.607 8.09375 347.674 8.57227 348.453 9.5293C349.232 10.4863 349.615 11.7988 349.615 13.4668C349.615 17.1719 348.057 19.2637 345.281 19.2637C342.383 19.2637 340.934 17.4316 340.934 13.7812ZM341.016 26.8516V19.209C342.164 20.7266 343.695 21.4512 345.76 21.4512C347.701 21.4512 349.26 20.7402 350.436 19.332C351.611 17.9238 352.199 16.0234 352.199 13.6309C352.199 11.2656 351.625 9.39258 350.463 7.98438C349.301 6.57617 347.742 5.87891 345.787 5.87891C343.695 5.87891 342.232 6.67188 341.016 8.42188V6.35742H338.609V26.8516H341.016ZM371.941 19.127C371.941 20.5625 372.762 21.2734 374.402 21.2734C374.799 21.2734 375.223 21.2188 375.824 21.0547V19.1543C375.537 19.209 375.332 19.2363 375.182 19.2363C374.826 19.2363 374.58 19.1406 374.443 18.9629C374.307 18.7852 374.238 18.375 374.238 17.7461V10.418C374.238 7.30078 372.447 5.87891 368.523 5.87891C366.705 5.87891 365.27 6.30273 364.23 7.16406C363.191 8.02539 362.672 9.1875 362.672 10.6641V10.7734H364.996C364.996 8.98242 366.158 8.06641 368.441 8.06641C370.643 8.06641 371.736 8.81836 371.736 10.3086C371.736 10.8965 371.695 11.2793 371.6 11.457C371.504 11.6348 371.326 11.7852 371.039 11.8945C370.752 12.0176 369.986 12.1406 368.742 12.2637C368.018 12.3457 367.43 12.4141 367.006 12.4551C363.629 12.8926 362.002 14.3828 362.002 17.0488C362.002 18.4297 362.426 19.4961 363.26 20.2754C364.094 21.0684 365.27 21.4512 366.76 21.4512C368.688 21.4512 370.41 20.6445 371.941 19.0449V19.127ZM371.709 15.7363C371.709 16.7754 371.285 17.623 370.438 18.293C369.59 18.9629 368.51 19.291 367.184 19.291C365.488 19.291 364.545 18.4844 364.545 17.0215C364.545 15.5586 365.27 14.8477 367.061 14.5605C367.348 14.5195 367.771 14.4512 368.332 14.3828C369.932 14.1777 371.053 13.9043 371.709 13.5488V15.7363ZM390.33 21V12.209V11.5117C390.33 10.4727 390.275 9.70703 390.18 9.22852C390.084 8.75 389.92 8.33984 389.688 7.98438C388.867 6.6582 387.35 5.98828 385.148 5.98828C383.111 5.98828 381.58 6.79492 380.445 8.49023V6.35742H378.094V21H380.555V12.6602C380.555 9.80273 382.154 8.17578 384.902 8.17578C385.982 8.17578 386.734 8.44922 387.186 8.99609C387.623 9.55664 387.842 10.5547 387.842 11.9902V21H390.33ZM404.535 13.5762C404.535 17.2266 402.949 19.2637 400.201 19.2637C398.848 19.2637 397.781 18.7852 397.002 17.8281C396.223 16.8711 395.826 15.5586 395.826 13.8906C395.826 10.1855 397.398 8.09375 400.174 8.09375C403.059 8.09375 404.535 9.95312 404.535 13.5762ZM404.453 0.861328V8.14844C403.305 6.63086 401.732 5.87891 399.695 5.87891C397.754 5.87891 396.195 6.58984 395.033 7.99805C393.871 9.41992 393.283 11.334 393.283 13.7266C393.283 16.0781 393.871 17.9512 395.033 19.3457C396.195 20.7539 397.74 21.4512 399.695 21.4512C401.609 21.4512 403.195 20.6855 404.453 19.1543V21H406.832V0.861328H404.453ZM430.525 11.2246C430.457 9.58398 429.869 8.28516 428.762 7.31445C427.654 6.35742 426.178 5.87891 424.332 5.87891C422.24 5.87891 420.6 6.57617 419.41 7.95703C418.221 9.35156 417.619 11.2793 417.619 13.7266C417.619 16.1191 418.193 18.0059 419.342 19.3867C420.477 20.7676 422.049 21.4512 424.059 21.4512C425.986 21.4512 427.518 20.9453 428.652 19.9336C429.787 18.9355 430.43 17.5273 430.553 15.7363H428.201C427.873 17.9922 426.465 19.209 424.168 19.209C421.611 19.209 420.162 17.1992 420.162 13.6309C420.162 10.0762 421.666 8.09375 424.332 8.09375C426.588 8.09375 427.941 9.21484 428.092 11.2246H430.525ZM434.846 13.6582C434.846 10.0352 436.445 8.06641 439.357 8.06641C442.242 8.06641 443.814 10.0488 443.814 13.6582C443.814 17.2812 442.242 19.2637 439.357 19.2637C436.459 19.2637 434.846 17.2812 434.846 13.6582ZM432.33 13.6582C432.33 16.1328 432.945 18.0469 434.176 19.4004C435.406 20.7676 437.129 21.4512 439.357 21.4512C441.572 21.4512 443.295 20.7676 444.525 19.4004C445.742 18.0332 446.357 16.1191 446.357 13.6582C446.357 11.1973 445.742 9.2832 444.512 7.91602C443.281 6.5625 441.559 5.87891 439.33 5.87891C437.115 5.87891 435.393 6.5625 434.176 7.92969C432.945 9.29688 432.33 11.2109 432.33 13.6582ZM461.588 21V12.209V11.5117C461.588 10.4727 461.533 9.70703 461.438 9.22852C461.342 8.75 461.178 8.33984 460.945 7.98438C460.125 6.6582 458.607 5.98828 456.406 5.98828C454.369 5.98828 452.838 6.79492 451.703 8.49023V6.35742H449.352V21H451.812V12.6602C451.812 9.80273 453.412 8.17578 456.16 8.17578C457.24 8.17578 457.992 8.44922 458.443 8.99609C458.881 9.55664 459.1 10.5547 459.1 11.9902V21H461.588ZM477.529 21V12.209V11.5117C477.529 10.4727 477.475 9.70703 477.379 9.22852C477.283 8.75 477.119 8.33984 476.887 7.98438C476.066 6.6582 474.549 5.98828 472.348 5.98828C470.311 5.98828 468.779 6.79492 467.645 8.49023V6.35742H465.293V21H467.754V12.6602C467.754 9.80273 469.354 8.17578 472.102 8.17578C473.182 8.17578 473.934 8.44922 474.385 8.99609C474.822 9.55664 475.041 10.5547 475.041 11.9902V21H477.529ZM483.107 12.3457C483.34 9.55664 484.775 8.06641 487.195 8.06641C489.711 8.06641 491.133 9.61133 491.146 12.3457H483.107ZM491.092 16.2695C490.709 18.1699 489.355 19.2363 487.346 19.2363C484.721 19.2363 483.176 17.4727 483.121 14.3965H493.689C493.73 14.123 493.73 13.9043 493.73 13.3027C493.73 10.9375 493.156 9.11914 492.008 7.82031C490.846 6.52148 489.219 5.87891 487.113 5.87891C485.062 5.87891 483.449 6.57617 482.287 7.98438C481.125 9.39258 480.537 11.334 480.537 13.8359C480.537 16.2012 481.125 18.0605 482.301 19.4277C483.477 20.7949 485.076 21.4785 487.113 21.4785C488.85 21.4785 490.285 21.0137 491.42 20.084C492.555 19.1543 493.266 17.8828 493.525 16.2695H491.092ZM508.701 11.2246C508.633 9.58398 508.045 8.28516 506.938 7.31445C505.83 6.35742 504.354 5.87891 502.508 5.87891C500.416 5.87891 498.775 6.57617 497.586 7.95703C496.396 9.35156 495.795 11.2793 495.795 13.7266C495.795 16.1191 496.369 18.0059 497.518 19.3867C498.652 20.7676 500.225 21.4512 502.234 21.4512C504.162 21.4512 505.693 20.9453 506.828 19.9336C507.963 18.9355 508.605 17.5273 508.729 15.7363H506.377C506.049 17.9922 504.641 19.209 502.344 19.209C499.787 19.209 498.338 17.1992 498.338 13.6309C498.338 10.0762 499.842 8.09375 502.508 8.09375C504.764 8.09375 506.117 9.21484 506.268 11.2246H508.701ZM514.143 8.3125H516.781V6.35742H514.143V2.26953H511.682V6.35742H509.494V8.3125H511.682V18.1426C511.682 19.2773 511.914 20.0703 512.379 20.5215C512.844 20.9727 513.65 21.1914 514.812 21.1914C515.318 21.1914 515.961 21.123 516.781 20.9727V18.8809C516.125 18.9355 515.742 18.9492 515.455 18.9492C514.949 18.9492 514.607 18.8398 514.43 18.6211C514.238 18.4023 514.143 17.9648 514.143 17.3086V8.3125ZM532.025 18.1973L527.965 6.35742H525.217L530.768 21.834L530.125 23.5703C529.811 24.4043 529.25 24.7734 528.307 24.7734C527.828 24.7734 527.363 24.7051 526.871 24.5547V26.9062C527.363 27.0566 527.842 27.1387 528.334 27.1387C529.455 27.1387 530.316 26.8926 530.904 26.4004C531.492 25.9082 532.08 24.8691 532.668 23.2695L538.834 6.35742H536.086L532.025 18.1973ZM542.771 13.6582C542.771 10.0352 544.371 8.06641 547.283 8.06641C550.168 8.06641 551.74 10.0488 551.74 13.6582C551.74 17.2812 550.168 19.2637 547.283 19.2637C544.385 19.2637 542.771 17.2812 542.771 13.6582ZM540.256 13.6582C540.256 16.1328 540.871 18.0469 542.102 19.4004C543.332 20.7676 545.055 21.4512 547.283 21.4512C549.498 21.4512 551.221 20.7676 552.451 19.4004C553.668 18.0332 554.283 16.1191 554.283 13.6582C554.283 11.1973 553.668 9.2832 552.438 7.91602C551.207 6.5625 549.484 5.87891 547.256 5.87891C545.041 5.87891 543.318 6.5625 542.102 7.92969C540.871 9.29688 540.256 11.2109 540.256 13.6582ZM557.223 6.35742V15.1484V15.8457C557.223 16.8848 557.277 17.6367 557.373 18.1152C557.469 18.5938 557.633 19.0176 557.865 19.373C558.672 20.6445 560.23 21.3691 562.268 21.3691C564.455 21.3691 566.082 20.5078 567.107 18.8125V21H569.459V6.35742H566.998V14.2461C566.998 17.4863 565.521 19.1816 562.678 19.1816C561.598 19.1816 560.846 18.8945 560.395 18.334C559.943 17.7734 559.711 16.7754 559.711 15.3398V6.35742H557.223ZM575.68 21V12.8516C575.68 10.1172 577.088 8.6543 579.713 8.6543C580.041 8.6543 580.178 8.66797 580.301 8.68164V6.08398C580.137 6.04297 580.027 6.04297 579.658 6.04297C577.703 6.04297 576.377 7.01367 575.598 8.98242V6.35742H573.219V21H575.68ZM597.227 3.74609L600.344 12.6328H594.068L597.227 3.74609ZM591.074 21L593.221 14.9844H601.15L603.283 21H606.25L598.744 0.861328H595.723L588.244 21H591.074ZM610.516 21V12.8516C610.516 10.1172 611.924 8.6543 614.549 8.6543C614.877 8.6543 615.014 8.66797 615.137 8.68164V6.08398C614.973 6.04297 614.863 6.04297 614.494 6.04297C612.539 6.04297 611.213 7.01367 610.434 8.98242V6.35742H608.055V21H610.516ZM623.545 8.09375C626.457 8.09375 627.961 10.0215 627.961 13.7812C627.961 17.5 626.566 19.2637 623.572 19.2637C622.205 19.2637 621.139 18.7715 620.373 17.7871C619.607 16.8164 619.225 15.4492 619.225 13.6855C619.225 10.0898 620.77 8.09375 623.545 8.09375ZM627.879 21.2188C627.879 22.5723 627.537 23.5566 626.867 24.1445C626.184 24.7324 625.062 25.0332 623.518 25.0332C620.934 25.0332 619.648 24.2812 619.648 22.7637V22.709H617.242V22.8184C617.242 24.1582 617.789 25.2109 618.883 25.9629C619.977 26.7148 621.494 27.0977 623.436 27.0977C625.828 27.0977 627.564 26.5918 628.645 25.5938C629.725 24.582 630.258 22.9414 630.258 20.6855V6.35742H627.852V8.20312C626.594 6.57617 625.186 5.87891 623.258 5.87891C621.275 5.87891 619.676 6.58984 618.473 7.99805C617.256 9.41992 616.654 11.293 616.654 13.6309C616.654 15.9961 617.256 17.8828 618.459 19.3184C619.662 20.7539 621.248 21.4785 623.23 21.4785C625.199 21.4785 626.73 20.7266 627.879 19.209V21.2188ZM635.904 12.3457C636.137 9.55664 637.572 8.06641 639.992 8.06641C642.508 8.06641 643.93 9.61133 643.943 12.3457H635.904ZM643.889 16.2695C643.506 18.1699 642.152 19.2363 640.143 19.2363C637.518 19.2363 635.973 17.4727 635.918 14.3965H646.486C646.527 14.123 646.527 13.9043 646.527 13.3027C646.527 10.9375 645.953 9.11914 644.805 7.82031C643.643 6.52148 642.016 5.87891 639.91 5.87891C637.859 5.87891 636.246 6.57617 635.084 7.98438C633.922 9.39258 633.334 11.334 633.334 13.8359C633.334 16.2012 633.922 18.0605 635.098 19.4277C636.273 20.7949 637.873 21.4785 639.91 21.4785C641.646 21.4785 643.082 21.0137 644.217 20.084C645.352 19.1543 646.062 17.8828 646.322 16.2695H643.889ZM661.58 21V12.209V11.5117C661.58 10.4727 661.525 9.70703 661.43 9.22852C661.334 8.75 661.17 8.33984 660.938 7.98438C660.117 6.6582 658.6 5.98828 656.398 5.98828C654.361 5.98828 652.83 6.79492 651.695 8.49023V6.35742H649.344V21H651.805V12.6602C651.805 9.80273 653.404 8.17578 656.152 8.17578C657.232 8.17578 657.984 8.44922 658.436 8.99609C658.873 9.55664 659.092 10.5547 659.092 11.9902V21H661.58ZM668.17 8.3125H670.809V6.35742H668.17V2.26953H665.709V6.35742H663.521V8.3125H665.709V18.1426C665.709 19.2773 665.941 20.0703 666.406 20.5215C666.871 20.9727 667.678 21.1914 668.84 21.1914C669.346 21.1914 669.988 21.123 670.809 20.9727V18.8809C670.152 18.9355 669.77 18.9492 669.482 18.9492C668.977 18.9492 668.635 18.8398 668.457 18.6211C668.266 18.4023 668.17 17.9648 668.17 17.3086V8.3125ZM682.307 21L687.365 12.8516L692.547 21H695.91L688.992 10.6367L695.541 0.861328H692.355L687.488 8.3125L682.689 0.861328H679.34L685.889 10.6914L678.971 21H682.307ZM710.662 21L713.766 9.7207L716.855 21H719.344L723.801 6.35742H721.271L718.059 17.5547L715.201 6.35742H712.344L709.459 17.5547L706.355 6.35742H703.799L708.174 21H710.662ZM734.93 19.127C734.93 20.5625 735.75 21.2734 737.391 21.2734C737.787 21.2734 738.211 21.2188 738.812 21.0547V19.1543C738.525 19.209 738.32 19.2363 738.17 19.2363C737.814 19.2363 737.568 19.1406 737.432 18.9629C737.295 18.7852 737.227 18.375 737.227 17.7461V10.418C737.227 7.30078 735.436 5.87891 731.512 5.87891C729.693 5.87891 728.258 6.30273 727.219 7.16406C726.18 8.02539 725.66 9.1875 725.66 10.6641V10.7734H727.984C727.984 8.98242 729.146 8.06641 731.43 8.06641C733.631 8.06641 734.725 8.81836 734.725 10.3086C734.725 10.8965 734.684 11.2793 734.588 11.457C734.492 11.6348 734.314 11.7852 734.027 11.8945C733.74 12.0176 732.975 12.1406 731.73 12.2637C731.006 12.3457 730.418 12.4141 729.994 12.4551C726.617 12.8926 724.99 14.3828 724.99 17.0488C724.99 18.4297 725.414 19.4961 726.248 20.2754C727.082 21.0684 728.258 21.4512 729.748 21.4512C731.676 21.4512 733.398 20.6445 734.93 19.0449V19.127ZM734.697 15.7363C734.697 16.7754 734.273 17.623 733.426 18.293C732.578 18.9629 731.498 19.291 730.172 19.291C728.477 19.291 727.533 18.4844 727.533 17.0215C727.533 15.5586 728.258 14.8477 730.049 14.5605C730.336 14.5195 730.76 14.4512 731.32 14.3828C732.92 14.1777 734.041 13.9043 734.697 13.5488V15.7363ZM743.611 21V0.861328H741.109V21H743.611ZM749.955 21V0.861328H747.453V21H749.955ZM755.643 12.3457C755.875 9.55664 757.311 8.06641 759.73 8.06641C762.246 8.06641 763.668 9.61133 763.682 12.3457H755.643ZM763.627 16.2695C763.244 18.1699 761.891 19.2363 759.881 19.2363C757.256 19.2363 755.711 17.4727 755.656 14.3965H766.225C766.266 14.123 766.266 13.9043 766.266 13.3027C766.266 10.9375 765.691 9.11914 764.543 7.82031C763.381 6.52148 761.754 5.87891 759.648 5.87891C757.598 5.87891 755.984 6.57617 754.822 7.98438C753.66 9.39258 753.072 11.334 753.072 13.8359C753.072 16.2012 753.66 18.0605 754.836 19.4277C756.012 20.7949 757.611 21.4785 759.648 21.4785C761.385 21.4785 762.82 21.0137 763.955 20.084C765.09 19.1543 765.801 17.8828 766.061 16.2695H763.627ZM771.967 8.3125H774.605V6.35742H771.967V2.26953H769.506V6.35742H767.318V8.3125H769.506V18.1426C769.506 19.2773 769.738 20.0703 770.203 20.5215C770.668 20.9727 771.475 21.1914 772.637 21.1914C773.143 21.1914 773.785 21.123 774.605 20.9727V18.8809C773.949 18.9355 773.566 18.9492 773.279 18.9492C772.773 18.9492 772.432 18.8398 772.254 18.6211C772.062 18.4023 771.967 17.9648 771.967 17.3086V8.3125ZM786.404 13.6582C786.404 10.0352 788.004 8.06641 790.916 8.06641C793.801 8.06641 795.373 10.0488 795.373 13.6582C795.373 17.2812 793.801 19.2637 790.916 19.2637C788.018 19.2637 786.404 17.2812 786.404 13.6582ZM783.889 13.6582C783.889 16.1328 784.504 18.0469 785.734 19.4004C786.965 20.7676 788.688 21.4512 790.916 21.4512C793.131 21.4512 794.854 20.7676 796.084 19.4004C797.301 18.0332 797.916 16.1191 797.916 13.6582C797.916 11.1973 797.301 9.2832 796.07 7.91602C794.84 6.5625 793.117 5.87891 790.889 5.87891C788.674 5.87891 786.951 6.5625 785.734 7.92969C784.504 9.29688 783.889 11.2109 783.889 13.6582ZM813.146 21V12.209V11.5117C813.146 10.4727 813.092 9.70703 812.996 9.22852C812.9 8.75 812.736 8.33984 812.504 7.98438C811.684 6.6582 810.166 5.98828 807.965 5.98828C805.928 5.98828 804.396 6.79492 803.262 8.49023V6.35742H800.91V21H803.371V12.6602C803.371 9.80273 804.971 8.17578 807.719 8.17578C808.799 8.17578 809.551 8.44922 810.002 8.99609C810.439 9.55664 810.658 10.5547 810.658 11.9902V21H813.146ZM823.893 14.3691C824.098 18.9766 826.914 21.5332 831.795 21.5332C834.16 21.5332 836.047 20.959 837.441 19.8105C838.822 18.6621 839.52 17.1172 839.52 15.1758C839.52 13.5762 838.945 12.25 837.865 11.334C837.154 10.7324 835.719 10.1719 833.545 9.65234L833.258 9.58398C832.998 9.51562 832.615 9.43359 832.123 9.31055C828.801 8.54492 827.146 7.38281 827.146 5.82422C827.146 4.85352 827.543 4.06055 828.35 3.47266C829.156 2.88477 830.223 2.59766 831.562 2.59766C834.42 2.59766 836.143 4.08789 836.32 6.78125L838.932 6.76758C838.918 4.77148 838.262 3.19922 836.99 2.05078C835.719 0.916016 833.969 0.341797 831.74 0.341797C829.566 0.341797 827.816 0.888672 826.504 1.96875C825.191 3.0625 824.535 4.51172 824.535 6.30273C824.535 7.76562 824.973 8.90039 825.861 9.69336C826.736 10.5 828.541 11.2246 831.275 11.8672C831.385 11.8945 831.535 11.9355 831.74 11.9766C835.117 12.7832 836.799 13.9453 836.799 15.4902C836.799 16.625 836.348 17.5137 835.459 18.1699C834.557 18.8262 833.326 19.1543 831.768 19.1543C830.195 19.1543 828.938 18.7168 827.994 17.8555C827.051 16.9941 826.559 15.832 826.531 14.3691H823.893ZM845.521 8.3125H848.16V6.35742H845.521V2.26953H843.061V6.35742H840.873V8.3125H843.061V18.1426C843.061 19.2773 843.293 20.0703 843.758 20.5215C844.223 20.9727 845.029 21.1914 846.191 21.1914C846.697 21.1914 847.34 21.123 848.16 20.9727V18.8809C847.504 18.9355 847.121 18.9492 846.834 18.9492C846.328 18.9492 845.986 18.8398 845.809 18.6211C845.617 18.4023 845.521 17.9648 845.521 17.3086V8.3125ZM859.562 19.127C859.562 20.5625 860.383 21.2734 862.023 21.2734C862.42 21.2734 862.844 21.2188 863.445 21.0547V19.1543C863.158 19.209 862.953 19.2363 862.803 19.2363C862.447 19.2363 862.201 19.1406 862.064 18.9629C861.928 18.7852 861.859 18.375 861.859 17.7461V10.418C861.859 7.30078 860.068 5.87891 856.145 5.87891C854.326 5.87891 852.891 6.30273 851.852 7.16406C850.812 8.02539 850.293 9.1875 850.293 10.6641V10.7734H852.617C852.617 8.98242 853.779 8.06641 856.062 8.06641C858.264 8.06641 859.357 8.81836 859.357 10.3086C859.357 10.8965 859.316 11.2793 859.221 11.457C859.125 11.6348 858.947 11.7852 858.66 11.8945C858.373 12.0176 857.607 12.1406 856.363 12.2637C855.639 12.3457 855.051 12.4141 854.627 12.4551C851.25 12.8926 849.623 14.3828 849.623 17.0488C849.623 18.4297 850.047 19.4961 850.881 20.2754C851.715 21.0684 852.891 21.4512 854.381 21.4512C856.309 21.4512 858.031 20.6445 859.562 19.0449V19.127ZM859.33 15.7363C859.33 16.7754 858.906 17.623 858.059 18.293C857.211 18.9629 856.131 19.291 854.805 19.291C853.109 19.291 852.166 18.4844 852.166 17.0215C852.166 15.5586 852.891 14.8477 854.682 14.5605C854.969 14.5195 855.393 14.4512 855.953 14.3828C857.553 14.1777 858.674 13.9043 859.33 13.5488V15.7363ZM868.176 21V12.8516C868.176 10.1172 869.584 8.6543 872.209 8.6543C872.537 8.6543 872.674 8.66797 872.797 8.68164V6.08398C872.633 6.04297 872.523 6.04297 872.154 6.04297C870.199 6.04297 868.873 7.01367 868.094 8.98242V6.35742H865.715V21H868.176ZM877.473 21V15.9004L880.057 13.4121L884.336 21H887.111L881.711 11.7031L887.193 6.35742H884.09L877.473 12.9336V0.861328H875.012V21H877.473ZM901.74 21V12.209V11.5117C901.74 10.4727 901.686 9.70703 901.59 9.22852C901.494 8.75 901.33 8.33984 901.098 7.98438C900.277 6.6582 898.76 5.98828 896.559 5.98828C894.521 5.98828 892.99 6.79492 891.855 8.49023V6.35742H889.504V21H891.965V12.6602C891.965 9.80273 893.564 8.17578 896.312 8.17578C897.393 8.17578 898.145 8.44922 898.596 8.99609C899.033 9.55664 899.252 10.5547 899.252 11.9902V21H901.74ZM907.318 12.3457C907.551 9.55664 908.986 8.06641 911.406 8.06641C913.922 8.06641 915.344 9.61133 915.357 12.3457H907.318ZM915.303 16.2695C914.92 18.1699 913.566 19.2363 911.557 19.2363C908.932 19.2363 907.387 17.4727 907.332 14.3965H917.9C917.941 14.123 917.941 13.9043 917.941 13.3027C917.941 10.9375 917.367 9.11914 916.219 7.82031C915.057 6.52148 913.43 5.87891 911.324 5.87891C909.273 5.87891 907.66 6.57617 906.498 7.98438C905.336 9.39258 904.748 11.334 904.748 13.8359C904.748 16.2012 905.336 18.0605 906.512 19.4277C907.688 20.7949 909.287 21.4785 911.324 21.4785C913.061 21.4785 914.496 21.0137 915.631 20.084C916.766 19.1543 917.477 17.8828 917.736 16.2695H915.303ZM923.643 8.3125H926.281V6.35742H923.643V2.26953H921.182V6.35742H918.994V8.3125H921.182V18.1426C921.182 19.2773 921.414 20.0703 921.879 20.5215C922.344 20.9727 923.15 21.1914 924.312 21.1914C924.818 21.1914 925.461 21.123 926.281 20.9727V18.8809C925.625 18.9355 925.242 18.9492 924.955 18.9492C924.449 18.9492 924.107 18.8398 923.93 18.6211C923.738 18.4023 923.643 17.9648 923.643 17.3086V8.3125ZM6.57422 60.7969C3.99023 56.3809 2.73242 52.1289 2.73242 47.7539C2.73242 43.3652 3.99023 39.1133 6.57422 34.6973H4.81055C1.69336 38.8672 0.244141 43.0508 0.244141 47.7539C0.244141 52.4434 1.69336 56.627 4.81055 60.7969H6.57422ZM15.8027 37.7461L18.9199 46.6328H12.6445L15.8027 37.7461ZM9.65039 55L11.7969 48.9844H19.7266L21.8594 55H24.8262L17.3203 34.8613H14.2988L6.82031 55H9.65039ZM29.5156 42.3125H32.1543V40.3574H29.5156V36.2695H27.0547V40.3574H24.8672V42.3125H27.0547V52.1426C27.0547 53.2773 27.2871 54.0703 27.752 54.5215C28.2168 54.9727 29.0234 55.1914 30.1855 55.1914C30.6914 55.1914 31.334 55.123 32.1543 54.9727V52.8809C31.498 52.9355 31.1152 52.9492 30.8281 52.9492C30.3223 52.9492 29.9805 52.8398 29.8027 52.6211C29.6113 52.4023 29.5156 51.9648 29.5156 51.3086V42.3125ZM37.3906 42.3125H40.0293V40.3574H37.3906V36.2695H34.9297V40.3574H32.7422V42.3125H34.9297V52.1426C34.9297 53.2773 35.1621 54.0703 35.627 54.5215C36.0918 54.9727 36.8984 55.1914 38.0605 55.1914C38.5664 55.1914 39.209 55.123 40.0293 54.9727V52.8809C39.373 52.9355 38.9902 52.9492 38.7031 52.9492C38.1973 52.9492 37.8555 52.8398 37.6777 52.6211C37.4863 52.4023 37.3906 51.9648 37.3906 51.3086V42.3125ZM44.2539 46.3457C44.4863 43.5566 45.9219 42.0664 48.3418 42.0664C50.8574 42.0664 52.2793 43.6113 52.293 46.3457H44.2539ZM52.2383 50.2695C51.8555 52.1699 50.502 53.2363 48.4922 53.2363C45.8672 53.2363 44.3223 51.4727 44.2676 48.3965H54.8359C54.877 48.123 54.877 47.9043 54.877 47.3027C54.877 44.9375 54.3027 43.1191 53.1543 41.8203C51.9922 40.5215 50.3652 39.8789 48.2598 39.8789C46.209 39.8789 44.5957 40.5762 43.4336 41.9844C42.2715 43.3926 41.6836 45.334 41.6836 47.8359C41.6836 50.2012 42.2715 52.0605 43.4473 53.4277C44.623 54.7949 46.2227 55.4785 48.2598 55.4785C49.9961 55.4785 51.4316 55.0137 52.5664 54.084C53.7012 53.1543 54.4121 51.8828 54.6719 50.2695H52.2383ZM69.9297 55V46.209V45.5117C69.9297 44.4727 69.875 43.707 69.7793 43.2285C69.6836 42.75 69.5195 42.3398 69.2871 41.9844C68.4668 40.6582 66.9492 39.9883 64.748 39.9883C62.7109 39.9883 61.1797 40.7949 60.0449 42.4902V40.3574H57.6934V55H60.1543V46.6602C60.1543 43.8027 61.7539 42.1758 64.502 42.1758C65.582 42.1758 66.334 42.4492 66.7852 42.9961C67.2227 43.5566 67.4414 44.5547 67.4414 45.9902V55H69.9297ZM76.5195 42.3125H79.1582V40.3574H76.5195V36.2695H74.0586V40.3574H71.8711V42.3125H74.0586V52.1426C74.0586 53.2773 74.291 54.0703 74.7559 54.5215C75.2207 54.9727 76.0273 55.1914 77.1895 55.1914C77.6953 55.1914 78.3379 55.123 79.1582 54.9727V52.8809C78.502 52.9355 78.1191 52.9492 77.832 52.9492C77.3262 52.9492 76.9844 52.8398 76.8066 52.6211C76.6152 52.4023 76.5195 51.9648 76.5195 51.3086V42.3125ZM83.9707 37.6641V34.8613H81.5098V37.6641H83.9707ZM83.9707 55V40.3574H81.5098V55H83.9707ZM89.5078 47.6582C89.5078 44.0352 91.1074 42.0664 94.0195 42.0664C96.9043 42.0664 98.4766 44.0488 98.4766 47.6582C98.4766 51.2812 96.9043 53.2637 94.0195 53.2637C91.1211 53.2637 89.5078 51.2812 89.5078 47.6582ZM86.9922 47.6582C86.9922 50.1328 87.6074 52.0469 88.8379 53.4004C90.0684 54.7676 91.791 55.4512 94.0195 55.4512C96.2344 55.4512 97.957 54.7676 99.1875 53.4004C100.404 52.0332 101.02 50.1191 101.02 47.6582C101.02 45.1973 100.404 43.2832 99.1738 41.916C97.9434 40.5625 96.2207 39.8789 93.9922 39.8789C91.7773 39.8789 90.0547 40.5625 88.8379 41.9297C87.6074 43.2969 86.9922 45.2109 86.9922 47.6582ZM116.25 55V46.209V45.5117C116.25 44.4727 116.195 43.707 116.1 43.2285C116.004 42.75 115.84 42.3398 115.607 41.9844C114.787 40.6582 113.27 39.9883 111.068 39.9883C109.031 39.9883 107.5 40.7949 106.365 42.4902V40.3574H104.014V55H106.475V46.6602C106.475 43.8027 108.074 42.1758 110.822 42.1758C111.902 42.1758 112.654 42.4492 113.105 42.9961C113.543 43.5566 113.762 44.5547 113.762 45.9902V55H116.25ZM123.66 43.3789V40.3574H120.83V43.3789H123.66ZM123.66 55V51.9512H120.83V55H123.66ZM135.309 48.3691C135.514 52.9766 138.33 55.5332 143.211 55.5332C145.576 55.5332 147.463 54.959 148.857 53.8105C150.238 52.6621 150.936 51.1172 150.936 49.1758C150.936 47.5762 150.361 46.25 149.281 45.334C148.57 44.7324 147.135 44.1719 144.961 43.6523L144.674 43.584C144.414 43.5156 144.031 43.4336 143.539 43.3105C140.217 42.5449 138.562 41.3828 138.562 39.8242C138.562 38.8535 138.959 38.0605 139.766 37.4727C140.572 36.8848 141.639 36.5977 142.979 36.5977C145.836 36.5977 147.559 38.0879 147.736 40.7812L150.348 40.7676C150.334 38.7715 149.678 37.1992 148.406 36.0508C147.135 34.916 145.385 34.3418 143.156 34.3418C140.982 34.3418 139.232 34.8887 137.92 35.9688C136.607 37.0625 135.951 38.5117 135.951 40.3027C135.951 41.7656 136.389 42.9004 137.277 43.6934C138.152 44.5 139.957 45.2246 142.691 45.8672C142.801 45.8945 142.951 45.9355 143.156 45.9766C146.533 46.7832 148.215 47.9453 148.215 49.4902C148.215 50.625 147.764 51.5137 146.875 52.1699C145.973 52.8262 144.742 53.1543 143.184 53.1543C141.611 53.1543 140.354 52.7168 139.41 51.8555C138.467 50.9941 137.975 49.832 137.947 48.3691H135.309ZM156.938 42.3125H159.576V40.3574H156.938V36.2695H154.477V40.3574H152.289V42.3125H154.477V52.1426C154.477 53.2773 154.709 54.0703 155.174 54.5215C155.639 54.9727 156.445 55.1914 157.607 55.1914C158.113 55.1914 158.756 55.123 159.576 54.9727V52.8809C158.92 52.9355 158.537 52.9492 158.25 52.9492C157.744 52.9492 157.402 52.8398 157.225 52.6211C157.033 52.4023 156.938 51.9648 156.938 51.3086V42.3125ZM163.801 46.3457C164.033 43.5566 165.469 42.0664 167.889 42.0664C170.404 42.0664 171.826 43.6113 171.84 46.3457H163.801ZM171.785 50.2695C171.402 52.1699 170.049 53.2363 168.039 53.2363C165.414 53.2363 163.869 51.4727 163.814 48.3965H174.383C174.424 48.123 174.424 47.9043 174.424 47.3027C174.424 44.9375 173.85 43.1191 172.701 41.8203C171.539 40.5215 169.912 39.8789 167.807 39.8789C165.756 39.8789 164.143 40.5762 162.98 41.9844C161.818 43.3926 161.23 45.334 161.23 47.8359C161.23 50.2012 161.818 52.0605 162.994 53.4277C164.17 54.7949 165.77 55.4785 167.807 55.4785C169.543 55.4785 170.979 55.0137 172.113 54.084C173.248 53.1543 173.959 51.8828 174.219 50.2695H171.785ZM179.77 55V34.8613H177.268V55H179.77ZM186.113 55V34.8613H183.611V55H186.113ZM198.979 53.127C198.979 54.5625 199.799 55.2734 201.439 55.2734C201.836 55.2734 202.26 55.2188 202.861 55.0547V53.1543C202.574 53.209 202.369 53.2363 202.219 53.2363C201.863 53.2363 201.617 53.1406 201.48 52.9629C201.344 52.7852 201.275 52.375 201.275 51.7461V44.418C201.275 41.3008 199.484 39.8789 195.561 39.8789C193.742 39.8789 192.307 40.3027 191.268 41.1641C190.229 42.0254 189.709 43.1875 189.709 44.6641V44.7734H192.033C192.033 42.9824 193.195 42.0664 195.479 42.0664C197.68 42.0664 198.773 42.8184 198.773 44.3086C198.773 44.8965 198.732 45.2793 198.637 45.457C198.541 45.6348 198.363 45.7852 198.076 45.8945C197.789 46.0176 197.023 46.1406 195.779 46.2637C195.055 46.3457 194.467 46.4141 194.043 46.4551C190.666 46.8926 189.039 48.3828 189.039 51.0488C189.039 52.4297 189.463 53.4961 190.297 54.2754C191.131 55.0684 192.307 55.4512 193.797 55.4512C195.725 55.4512 197.447 54.6445 198.979 53.0449V53.127ZM198.746 49.7363C198.746 50.7754 198.322 51.623 197.475 52.293C196.627 52.9629 195.547 53.291 194.221 53.291C192.525 53.291 191.582 52.4844 191.582 51.0215C191.582 49.5586 192.307 48.8477 194.098 48.5605C194.385 48.5195 194.809 48.4512 195.369 48.3828C196.969 48.1777 198.09 47.9043 198.746 47.5488V49.7363ZM207.592 55V46.8516C207.592 44.1172 209 42.6543 211.625 42.6543C211.953 42.6543 212.09 42.668 212.213 42.6816V40.084C212.049 40.043 211.939 40.043 211.57 40.043C209.615 40.043 208.289 41.0137 207.51 42.9824V40.3574H205.131V55H207.592ZM224.354 44.9512C224.354 42.3672 224.955 40.3438 226.145 38.8945C227.334 37.4453 228.975 36.7207 231.08 36.7207C233.172 36.7207 234.812 37.4453 236.002 38.8945C237.178 40.3438 237.766 42.3672 237.766 44.9512C237.766 47.5352 237.178 49.5449 236.002 50.9941C234.812 52.457 233.172 53.1816 231.08 53.1816C228.975 53.1816 227.334 52.457 226.145 50.9941C224.955 49.5449 224.354 47.5352 224.354 44.9512ZM221.523 44.9512C221.523 48.2734 222.371 50.8711 224.066 52.7441C225.748 54.6172 228.086 55.5605 231.08 55.5605C234.061 55.5605 236.398 54.6172 238.08 52.7441C239.762 50.8711 240.596 48.2734 240.596 44.9512C240.596 41.6152 239.762 39.0176 238.08 37.1445C236.398 35.2715 234.061 34.3418 231.08 34.3418C228.086 34.3418 225.748 35.2715 224.066 37.1445C222.371 39.0176 221.523 41.6289 221.523 44.9512ZM254.268 47.5762C254.268 51.2266 252.682 53.2637 249.934 53.2637C248.58 53.2637 247.514 52.7852 246.734 51.8281C245.955 50.8711 245.559 49.5586 245.559 47.8906C245.559 44.1855 247.131 42.0938 249.906 42.0938C252.791 42.0938 254.268 43.9531 254.268 47.5762ZM254.186 34.8613V42.1484C253.037 40.6309 251.465 39.8789 249.428 39.8789C247.486 39.8789 245.928 40.5898 244.766 41.998C243.604 43.4199 243.016 45.334 243.016 47.7266C243.016 50.0781 243.604 51.9512 244.766 53.3457C245.928 54.7539 247.473 55.4512 249.428 55.4512C251.342 55.4512 252.928 54.6855 254.186 53.1543V55H256.564V34.8613H254.186ZM265.629 52.1973L261.568 40.3574H258.82L264.371 55.834L263.729 57.5703C263.414 58.4043 262.854 58.7734 261.91 58.7734C261.432 58.7734 260.967 58.7051 260.475 58.5547V60.9062C260.967 61.0566 261.445 61.1387 261.938 61.1387C263.059 61.1387 263.92 60.8926 264.508 60.4004C265.096 59.9082 265.684 58.8691 266.271 57.2695L272.438 40.3574H269.689L265.629 52.1973ZM273.6 50.2422C273.654 53.6191 275.719 55.4512 279.479 55.4512C281.406 55.4512 282.896 55.0273 283.977 54.1797C285.043 53.3457 285.576 52.1562 285.576 50.6387C285.576 49.4766 285.262 48.5879 284.619 47.959C283.977 47.3438 282.814 46.8242 281.119 46.4277L278.74 45.8672C277.852 45.6621 277.25 45.4297 276.936 45.1562C276.607 44.8965 276.443 44.5273 276.443 44.0488C276.443 42.7227 277.496 42.0117 279.479 42.0117C281.461 42.0117 282.678 42.9004 282.787 44.4453H285.18V44.3906C285.18 43.0234 284.66 41.9297 283.635 41.123C282.609 40.3164 281.215 39.9062 279.479 39.9062C277.77 39.9062 276.43 40.2891 275.459 41.041C274.475 41.8066 273.982 42.832 273.982 44.1309C273.982 45.2656 274.283 46.1406 274.898 46.7559C275.5 47.3711 276.58 47.877 278.125 48.2461L280.873 48.957C281.762 49.1621 282.35 49.4082 282.664 49.6953C282.965 49.9824 283.115 50.4062 283.115 50.9395C283.115 52.375 281.816 53.2637 279.697 53.2637C277.4 53.2637 276.143 52.2246 275.965 50.2422H273.6ZM287.49 50.2422C287.545 53.6191 289.609 55.4512 293.369 55.4512C295.297 55.4512 296.787 55.0273 297.867 54.1797C298.934 53.3457 299.467 52.1562 299.467 50.6387C299.467 49.4766 299.152 48.5879 298.51 47.959C297.867 47.3438 296.705 46.8242 295.01 46.4277L292.631 45.8672C291.742 45.6621 291.141 45.4297 290.826 45.1562C290.498 44.8965 290.334 44.5273 290.334 44.0488C290.334 42.7227 291.387 42.0117 293.369 42.0117C295.352 42.0117 296.568 42.9004 296.678 44.4453H299.07V44.3906C299.07 43.0234 298.551 41.9297 297.525 41.123C296.5 40.3164 295.105 39.9062 293.369 39.9062C291.66 39.9062 290.32 40.2891 289.35 41.041C288.365 41.8066 287.873 42.832 287.873 44.1309C287.873 45.2656 288.174 46.1406 288.789 46.7559C289.391 47.3711 290.471 47.877 292.016 48.2461L294.764 48.957C295.652 49.1621 296.24 49.4082 296.555 49.6953C296.855 49.9824 297.006 50.4062 297.006 50.9395C297.006 52.375 295.707 53.2637 293.588 53.2637C291.291 53.2637 290.033 52.2246 289.855 50.2422H287.49ZM304.266 46.3457C304.498 43.5566 305.934 42.0664 308.354 42.0664C310.869 42.0664 312.291 43.6113 312.305 46.3457H304.266ZM312.25 50.2695C311.867 52.1699 310.514 53.2363 308.504 53.2363C305.879 53.2363 304.334 51.4727 304.279 48.3965H314.848C314.889 48.123 314.889 47.9043 314.889 47.3027C314.889 44.9375 314.314 43.1191 313.166 41.8203C312.004 40.5215 310.377 39.8789 308.271 39.8789C306.221 39.8789 304.607 40.5762 303.445 41.9844C302.283 43.3926 301.695 45.334 301.695 47.8359C301.695 50.2012 302.283 52.0605 303.459 53.4277C304.635 54.7949 306.234 55.4785 308.271 55.4785C310.008 55.4785 311.443 55.0137 312.578 54.084C313.713 53.1543 314.424 51.8828 314.684 50.2695H312.25ZM322.914 52.1973L318.854 40.3574H316.105L321.656 55.834L321.014 57.5703C320.699 58.4043 320.139 58.7734 319.195 58.7734C318.717 58.7734 318.252 58.7051 317.76 58.5547V60.9062C318.252 61.0566 318.73 61.1387 319.223 61.1387C320.344 61.1387 321.205 60.8926 321.793 60.4004C322.381 59.9082 322.969 58.8691 323.557 57.2695L329.723 40.3574H326.975L322.914 52.1973ZM351.734 45.2246C351.666 43.584 351.078 42.2852 349.971 41.3145C348.863 40.3574 347.387 39.8789 345.541 39.8789C343.449 39.8789 341.809 40.5762 340.619 41.957C339.43 43.3516 338.828 45.2793 338.828 47.7266C338.828 50.1191 339.402 52.0059 340.551 53.3867C341.686 54.7676 343.258 55.4512 345.268 55.4512C347.195 55.4512 348.727 54.9453 349.861 53.9336C350.996 52.9355 351.639 51.5273 351.762 49.7363H349.41C349.082 51.9922 347.674 53.209 345.377 53.209C342.82 53.209 341.371 51.1992 341.371 47.6309C341.371 44.0762 342.875 42.0938 345.541 42.0938C347.797 42.0938 349.15 43.2148 349.301 45.2246H351.734ZM354.236 40.3574V49.1484V49.8457C354.236 50.8848 354.291 51.6367 354.387 52.1152C354.482 52.5938 354.646 53.0176 354.879 53.373C355.686 54.6445 357.244 55.3691 359.281 55.3691C361.469 55.3691 363.096 54.5078 364.121 52.8125V55H366.473V40.3574H364.012V48.2461C364.012 51.4863 362.535 53.1816 359.691 53.1816C358.611 53.1816 357.859 52.8945 357.408 52.334C356.957 51.7734 356.725 50.7754 356.725 49.3398V40.3574H354.236ZM372.693 55V46.8516C372.693 44.1172 374.102 42.6543 376.727 42.6543C377.055 42.6543 377.191 42.668 377.314 42.6816V40.084C377.15 40.043 377.041 40.043 376.672 40.043C374.717 40.043 373.391 41.0137 372.611 42.9824V40.3574H370.232V55H372.693ZM381.99 55V46.8516C381.99 44.1172 383.398 42.6543 386.023 42.6543C386.352 42.6543 386.488 42.668 386.611 42.6816V40.084C386.447 40.043 386.338 40.043 385.969 40.043C384.014 40.043 382.688 41.0137 381.908 42.9824V40.3574H379.529V55H381.99ZM390.699 46.3457C390.932 43.5566 392.367 42.0664 394.787 42.0664C397.303 42.0664 398.725 43.6113 398.738 46.3457H390.699ZM398.684 50.2695C398.301 52.1699 396.947 53.2363 394.938 53.2363C392.312 53.2363 390.768 51.4727 390.713 48.3965H401.281C401.322 48.123 401.322 47.9043 401.322 47.3027C401.322 44.9375 400.748 43.1191 399.6 41.8203C398.438 40.5215 396.811 39.8789 394.705 39.8789C392.654 39.8789 391.041 40.5762 389.879 41.9844C388.717 43.3926 388.129 45.334 388.129 47.8359C388.129 50.2012 388.717 52.0605 389.893 53.4277C391.068 54.7949 392.668 55.4785 394.705 55.4785C396.441 55.4785 397.877 55.0137 399.012 54.084C400.146 53.1543 400.857 51.8828 401.117 50.2695H398.684ZM416.375 55V46.209V45.5117C416.375 44.4727 416.32 43.707 416.225 43.2285C416.129 42.75 415.965 42.3398 415.732 41.9844C414.912 40.6582 413.395 39.9883 411.193 39.9883C409.156 39.9883 407.625 40.7949 406.49 42.4902V40.3574H404.139V55H406.6V46.6602C406.6 43.8027 408.199 42.1758 410.947 42.1758C412.027 42.1758 412.779 42.4492 413.23 42.9961C413.668 43.5566 413.887 44.5547 413.887 45.9902V55H416.375ZM422.965 42.3125H425.604V40.3574H422.965V36.2695H420.504V40.3574H418.316V42.3125H420.504V52.1426C420.504 53.2773 420.736 54.0703 421.201 54.5215C421.666 54.9727 422.473 55.1914 423.635 55.1914C424.141 55.1914 424.783 55.123 425.604 54.9727V52.8809C424.947 52.9355 424.564 52.9492 424.277 52.9492C423.771 52.9492 423.43 52.8398 423.252 52.6211C423.061 52.4023 422.965 51.9648 422.965 51.3086V42.3125ZM430.484 55V34.8613H427.982V55H430.484ZM439.508 52.1973L435.447 40.3574H432.699L438.25 55.834L437.607 57.5703C437.293 58.4043 436.732 58.7734 435.789 58.7734C435.311 58.7734 434.846 58.7051 434.354 58.5547V60.9062C434.846 61.0566 435.324 61.1387 435.816 61.1387C436.938 61.1387 437.799 60.8926 438.387 60.4004C438.975 59.9082 439.562 58.8691 440.15 57.2695L446.316 40.3574H443.568L439.508 52.1973ZM457.938 47.6582C457.938 44.0352 459.537 42.0664 462.449 42.0664C465.334 42.0664 466.906 44.0488 466.906 47.6582C466.906 51.2812 465.334 53.2637 462.449 53.2637C459.551 53.2637 457.938 51.2812 457.938 47.6582ZM455.422 47.6582C455.422 50.1328 456.037 52.0469 457.268 53.4004C458.498 54.7676 460.221 55.4512 462.449 55.4512C464.664 55.4512 466.387 54.7676 467.617 53.4004C468.834 52.0332 469.449 50.1191 469.449 47.6582C469.449 45.1973 468.834 43.2832 467.604 41.916C466.373 40.5625 464.65 39.8789 462.422 39.8789C460.207 39.8789 458.484 40.5625 457.268 41.9297C456.037 43.2969 455.422 45.2109 455.422 47.6582ZM484.68 55V46.209V45.5117C484.68 44.4727 484.625 43.707 484.529 43.2285C484.434 42.75 484.27 42.3398 484.037 41.9844C483.217 40.6582 481.699 39.9883 479.498 39.9883C477.461 39.9883 475.93 40.7949 474.795 42.4902V40.3574H472.443V55H474.904V46.6602C474.904 43.8027 476.504 42.1758 479.252 42.1758C480.332 42.1758 481.084 42.4492 481.535 42.9961C481.973 43.5566 482.191 44.5547 482.191 45.9902V55H484.68ZM498.953 42.3125H501.592V40.3574H498.953V36.2695H496.492V40.3574H494.305V42.3125H496.492V52.1426C496.492 53.2773 496.725 54.0703 497.189 54.5215C497.654 54.9727 498.461 55.1914 499.623 55.1914C500.129 55.1914 500.771 55.123 501.592 54.9727V52.8809C500.936 52.9355 500.553 52.9492 500.266 52.9492C499.76 52.9492 499.418 52.8398 499.24 52.6211C499.049 52.4023 498.953 51.9648 498.953 51.3086V42.3125ZM516.18 55V46.209V45.5117C516.18 44.4727 516.125 43.707 516.029 43.2285C515.934 42.75 515.77 42.3398 515.537 41.9844C514.717 40.6582 513.199 39.9883 510.998 39.9883C508.906 39.9883 507.293 40.8359 506.404 42.4219V34.8613H503.943V55H506.404V46.3457C506.404 45.0742 506.801 44.0488 507.58 43.2969C508.359 42.5449 509.426 42.1758 510.752 42.1758C511.832 42.1758 512.584 42.4492 513.035 42.9961C513.473 43.543 513.691 44.541 513.691 45.9902V55H516.18ZM521.758 46.3457C521.99 43.5566 523.426 42.0664 525.846 42.0664C528.361 42.0664 529.783 43.6113 529.797 46.3457H521.758ZM529.742 50.2695C529.359 52.1699 528.006 53.2363 525.996 53.2363C523.371 53.2363 521.826 51.4727 521.771 48.3965H532.34C532.381 48.123 532.381 47.9043 532.381 47.3027C532.381 44.9375 531.807 43.1191 530.658 41.8203C529.496 40.5215 527.869 39.8789 525.764 39.8789C523.713 39.8789 522.1 40.5762 520.938 41.9844C519.775 43.3926 519.188 45.334 519.188 47.8359C519.188 50.2012 519.775 52.0605 520.951 53.4277C522.127 54.7949 523.727 55.4785 525.764 55.4785C527.5 55.4785 528.936 55.0137 530.07 54.084C531.205 53.1543 531.916 51.8828 532.176 50.2695H529.742ZM542.238 48.3691C542.443 52.9766 545.26 55.5332 550.141 55.5332C552.506 55.5332 554.393 54.959 555.787 53.8105C557.168 52.6621 557.865 51.1172 557.865 49.1758C557.865 47.5762 557.291 46.25 556.211 45.334C555.5 44.7324 554.064 44.1719 551.891 43.6523L551.604 43.584C551.344 43.5156 550.961 43.4336 550.469 43.3105C547.146 42.5449 545.492 41.3828 545.492 39.8242C545.492 38.8535 545.889 38.0605 546.695 37.4727C547.502 36.8848 548.568 36.5977 549.908 36.5977C552.766 36.5977 554.488 38.0879 554.666 40.7812L557.277 40.7676C557.264 38.7715 556.607 37.1992 555.336 36.0508C554.064 34.916 552.314 34.3418 550.086 34.3418C547.912 34.3418 546.162 34.8887 544.85 35.9688C543.537 37.0625 542.881 38.5117 542.881 40.3027C542.881 41.7656 543.318 42.9004 544.207 43.6934C545.082 44.5 546.887 45.2246 549.621 45.8672C549.73 45.8945 549.881 45.9355 550.086 45.9766C553.463 46.7832 555.145 47.9453 555.145 49.4902C555.145 50.625 554.693 51.5137 553.805 52.1699C552.902 52.8262 551.672 53.1543 550.113 53.1543C548.541 53.1543 547.283 52.7168 546.34 51.8555C545.396 50.9941 544.904 49.832 544.877 48.3691H542.238ZM563.867 42.3125H566.506V40.3574H563.867V36.2695H561.406V40.3574H559.219V42.3125H561.406V52.1426C561.406 53.2773 561.639 54.0703 562.104 54.5215C562.568 54.9727 563.375 55.1914 564.537 55.1914C565.043 55.1914 565.686 55.123 566.506 54.9727V52.8809C565.85 52.9355 565.467 52.9492 565.18 52.9492C564.674 52.9492 564.332 52.8398 564.154 52.6211C563.963 52.4023 563.867 51.9648 563.867 51.3086V42.3125ZM577.908 53.127C577.908 54.5625 578.729 55.2734 580.369 55.2734C580.766 55.2734 581.189 55.2188 581.791 55.0547V53.1543C581.504 53.209 581.299 53.2363 581.148 53.2363C580.793 53.2363 580.547 53.1406 580.41 52.9629C580.273 52.7852 580.205 52.375 580.205 51.7461V44.418C580.205 41.3008 578.414 39.8789 574.49 39.8789C572.672 39.8789 571.236 40.3027 570.197 41.1641C569.158 42.0254 568.639 43.1875 568.639 44.6641V44.7734H570.963C570.963 42.9824 572.125 42.0664 574.408 42.0664C576.609 42.0664 577.703 42.8184 577.703 44.3086C577.703 44.8965 577.662 45.2793 577.566 45.457C577.471 45.6348 577.293 45.7852 577.006 45.8945C576.719 46.0176 575.953 46.1406 574.709 46.2637C573.984 46.3457 573.396 46.4141 572.973 46.4551C569.596 46.8926 567.969 48.3828 567.969 51.0488C567.969 52.4297 568.393 53.4961 569.227 54.2754C570.061 55.0684 571.236 55.4512 572.727 55.4512C574.654 55.4512 576.377 54.6445 577.908 53.0449V53.127ZM577.676 49.7363C577.676 50.7754 577.252 51.623 576.404 52.293C575.557 52.9629 574.477 53.291 573.15 53.291C571.455 53.291 570.512 52.4844 570.512 51.0215C570.512 49.5586 571.236 48.8477 573.027 48.5605C573.314 48.5195 573.738 48.4512 574.299 48.3828C575.898 48.1777 577.02 47.9043 577.676 47.5488V49.7363ZM586.521 55V46.8516C586.521 44.1172 587.93 42.6543 590.555 42.6543C590.883 42.6543 591.02 42.668 591.143 42.6816V40.084C590.979 40.043 590.869 40.043 590.5 40.043C588.545 40.043 587.219 41.0137 586.439 42.9824V40.3574H584.061V55H586.521ZM595.818 55V49.9004L598.402 47.4121L602.682 55H605.457L600.057 45.7031L605.539 40.3574H602.436L595.818 46.9336V34.8613H593.357V55H595.818ZM620.086 55V46.209V45.5117C620.086 44.4727 620.031 43.707 619.936 43.2285C619.84 42.75 619.676 42.3398 619.443 41.9844C618.623 40.6582 617.105 39.9883 614.904 39.9883C612.867 39.9883 611.336 40.7949 610.201 42.4902V40.3574H607.85V55H610.311V46.6602C610.311 43.8027 611.91 42.1758 614.658 42.1758C615.738 42.1758 616.49 42.4492 616.941 42.9961C617.379 43.5566 617.598 44.5547 617.598 45.9902V55H620.086ZM625.664 46.3457C625.896 43.5566 627.332 42.0664 629.752 42.0664C632.268 42.0664 633.689 43.6113 633.703 46.3457H625.664ZM633.648 50.2695C633.266 52.1699 631.912 53.2363 629.902 53.2363C627.277 53.2363 625.732 51.4727 625.678 48.3965H636.246C636.287 48.123 636.287 47.9043 636.287 47.3027C636.287 44.9375 635.713 43.1191 634.564 41.8203C633.402 40.5215 631.775 39.8789 629.67 39.8789C627.619 39.8789 626.006 40.5762 624.844 41.9844C623.682 43.3926 623.094 45.334 623.094 47.8359C623.094 50.2012 623.682 52.0605 624.857 53.4277C626.033 54.7949 627.633 55.4785 629.67 55.4785C631.406 55.4785 632.842 55.0137 633.977 54.084C635.111 53.1543 635.822 51.8828 636.082 50.2695H633.648ZM641.988 42.3125H644.627V40.3574H641.988V36.2695H639.527V40.3574H637.34V42.3125H639.527V52.1426C639.527 53.2773 639.76 54.0703 640.225 54.5215C640.689 54.9727 641.496 55.1914 642.658 55.1914C643.164 55.1914 643.807 55.123 644.627 54.9727V52.8809C643.971 52.9355 643.588 52.9492 643.301 52.9492C642.795 52.9492 642.453 52.8398 642.275 52.6211C642.084 52.4023 641.988 51.9648 641.988 51.3086V42.3125ZM657.547 42.3125H660.186V40.3574H657.547V36.2695H655.086V40.3574H652.898V42.3125H655.086V52.1426C655.086 53.2773 655.318 54.0703 655.783 54.5215C656.248 54.9727 657.055 55.1914 658.217 55.1914C658.723 55.1914 659.365 55.123 660.186 54.9727V52.8809C659.529 52.9355 659.146 52.9492 658.859 52.9492C658.354 52.9492 658.012 52.8398 657.834 52.6211C657.643 52.4023 657.547 51.9648 657.547 51.3086V42.3125ZM664.41 46.3457C664.643 43.5566 666.078 42.0664 668.498 42.0664C671.014 42.0664 672.436 43.6113 672.449 46.3457H664.41ZM672.395 50.2695C672.012 52.1699 670.658 53.2363 668.648 53.2363C666.023 53.2363 664.479 51.4727 664.424 48.3965H674.992C675.033 48.123 675.033 47.9043 675.033 47.3027C675.033 44.9375 674.459 43.1191 673.311 41.8203C672.148 40.5215 670.521 39.8789 668.416 39.8789C666.365 39.8789 664.752 40.5762 663.59 41.9844C662.428 43.3926 661.84 45.334 661.84 47.8359C661.84 50.2012 662.428 52.0605 663.604 53.4277C664.779 54.7949 666.379 55.4785 668.416 55.4785C670.152 55.4785 671.588 55.0137 672.723 54.084C673.857 53.1543 674.568 51.8828 674.828 50.2695H672.395ZM676.838 50.2422C676.893 53.6191 678.957 55.4512 682.717 55.4512C684.645 55.4512 686.135 55.0273 687.215 54.1797C688.281 53.3457 688.814 52.1562 688.814 50.6387C688.814 49.4766 688.5 48.5879 687.857 47.959C687.215 47.3438 686.053 46.8242 684.357 46.4277L681.979 45.8672C681.09 45.6621 680.488 45.4297 680.174 45.1562C679.846 44.8965 679.682 44.5273 679.682 44.0488C679.682 42.7227 680.734 42.0117 682.717 42.0117C684.699 42.0117 685.916 42.9004 686.025 44.4453H688.418V44.3906C688.418 43.0234 687.898 41.9297 686.873 41.123C685.848 40.3164 684.453 39.9062 682.717 39.9062C681.008 39.9062 679.668 40.2891 678.697 41.041C677.713 41.8066 677.221 42.832 677.221 44.1309C677.221 45.2656 677.521 46.1406 678.137 46.7559C678.738 47.3711 679.818 47.877 681.363 48.2461L684.111 48.957C685 49.1621 685.588 49.4082 685.902 49.6953C686.203 49.9824 686.354 50.4062 686.354 50.9395C686.354 52.375 685.055 53.2637 682.936 53.2637C680.639 53.2637 679.381 52.2246 679.203 50.2422H676.838ZM694.625 42.3125H697.264V40.3574H694.625V36.2695H692.164V40.3574H689.977V42.3125H692.164V52.1426C692.164 53.2773 692.396 54.0703 692.861 54.5215C693.326 54.9727 694.133 55.1914 695.295 55.1914C695.801 55.1914 696.443 55.123 697.264 54.9727V52.8809C696.607 52.9355 696.225 52.9492 695.938 52.9492C695.432 52.9492 695.09 52.8398 694.912 52.6211C694.721 52.4023 694.625 51.9648 694.625 51.3086V42.3125ZM711.852 55V46.209V45.5117C711.852 44.4727 711.797 43.707 711.701 43.2285C711.605 42.75 711.441 42.3398 711.209 41.9844C710.389 40.6582 708.871 39.9883 706.67 39.9883C704.633 39.9883 703.102 40.7949 701.967 42.4902V40.3574H699.615V55H702.076V46.6602C702.076 43.8027 703.676 42.1758 706.424 42.1758C707.504 42.1758 708.256 42.4492 708.707 42.9961C709.145 43.5566 709.363 44.5547 709.363 45.9902V55H711.852ZM717.43 46.3457C717.662 43.5566 719.098 42.0664 721.518 42.0664C724.033 42.0664 725.455 43.6113 725.469 46.3457H717.43ZM725.414 50.2695C725.031 52.1699 723.678 53.2363 721.668 53.2363C719.043 53.2363 717.498 51.4727 717.443 48.3965H728.012C728.053 48.123 728.053 47.9043 728.053 47.3027C728.053 44.9375 727.479 43.1191 726.33 41.8203C725.168 40.5215 723.541 39.8789 721.436 39.8789C719.385 39.8789 717.771 40.5762 716.609 41.9844C715.447 43.3926 714.859 45.334 714.859 47.8359C714.859 50.2012 715.447 52.0605 716.623 53.4277C717.799 54.7949 719.398 55.4785 721.436 55.4785C723.172 55.4785 724.607 55.0137 725.742 54.084C726.877 53.1543 727.588 51.8828 727.848 50.2695H725.414ZM733.754 42.3125H736.393V40.3574H733.754V36.2695H731.293V40.3574H729.105V42.3125H731.293V52.1426C731.293 53.2773 731.525 54.0703 731.99 54.5215C732.455 54.9727 733.262 55.1914 734.424 55.1914C734.93 55.1914 735.572 55.123 736.393 54.9727V52.8809C735.736 52.9355 735.354 52.9492 735.066 52.9492C734.561 52.9492 734.219 52.8398 734.041 52.6211C733.85 52.4023 733.754 51.9648 733.754 51.3086V42.3125ZM758.664 55V46.209V45.5117C758.664 44.4727 758.609 43.707 758.514 43.2285C758.418 42.75 758.254 42.3398 758.021 41.9844C757.201 40.6582 755.684 39.9883 753.482 39.9883C751.391 39.9883 749.777 40.8359 748.889 42.4219V34.8613H746.428V55H748.889V46.3457C748.889 45.0742 749.285 44.0488 750.064 43.2969C750.844 42.5449 751.91 42.1758 753.236 42.1758C754.316 42.1758 755.068 42.4492 755.52 42.9961C755.957 43.543 756.176 44.541 756.176 45.9902V55H758.664ZM765.254 42.3125H767.893V40.3574H765.254V36.2695H762.793V40.3574H760.605V42.3125H762.793V52.1426C762.793 53.2773 763.025 54.0703 763.49 54.5215C763.955 54.9727 764.762 55.1914 765.924 55.1914C766.43 55.1914 767.072 55.123 767.893 54.9727V52.8809C767.236 52.9355 766.854 52.9492 766.566 52.9492C766.061 52.9492 765.719 52.8398 765.541 52.6211C765.35 52.4023 765.254 51.9648 765.254 51.3086V42.3125ZM773.129 42.3125H775.768V40.3574H773.129V36.2695H770.668V40.3574H768.48V42.3125H770.668V52.1426C770.668 53.2773 770.9 54.0703 771.365 54.5215C771.83 54.9727 772.637 55.1914 773.799 55.1914C774.305 55.1914 774.947 55.123 775.768 54.9727V52.8809C775.111 52.9355 774.729 52.9492 774.441 52.9492C773.936 52.9492 773.594 52.8398 773.416 52.6211C773.225 52.4023 773.129 51.9648 773.129 51.3086V42.3125ZM780.498 47.7812C780.498 44.1309 782.043 42.0938 784.818 42.0938C786.172 42.0938 787.238 42.5723 788.018 43.5293C788.797 44.4863 789.18 45.7988 789.18 47.4668C789.18 51.1719 787.621 53.2637 784.846 53.2637C781.947 53.2637 780.498 51.4316 780.498 47.7812ZM780.58 60.8516V53.209C781.729 54.7266 783.26 55.4512 785.324 55.4512C787.266 55.4512 788.824 54.7402 790 53.332C791.176 51.9238 791.764 50.0234 791.764 47.6309C791.764 45.2656 791.189 43.3926 790.027 41.9844C788.865 40.5762 787.307 39.8789 785.352 39.8789C783.26 39.8789 781.797 40.6719 780.58 42.4219V40.3574H778.174V60.8516H780.58ZM793.76 50.2422C793.814 53.6191 795.879 55.4512 799.639 55.4512C801.566 55.4512 803.057 55.0273 804.137 54.1797C805.203 53.3457 805.736 52.1562 805.736 50.6387C805.736 49.4766 805.422 48.5879 804.779 47.959C804.137 47.3438 802.975 46.8242 801.279 46.4277L798.9 45.8672C798.012 45.6621 797.41 45.4297 797.096 45.1562C796.768 44.8965 796.604 44.5273 796.604 44.0488C796.604 42.7227 797.656 42.0117 799.639 42.0117C801.621 42.0117 802.838 42.9004 802.947 44.4453H805.34V44.3906C805.34 43.0234 804.82 41.9297 803.795 41.123C802.77 40.3164 801.375 39.9062 799.639 39.9062C797.93 39.9062 796.59 40.2891 795.619 41.041C794.635 41.8066 794.143 42.832 794.143 44.1309C794.143 45.2656 794.443 46.1406 795.059 46.7559C795.66 47.3711 796.74 47.877 798.285 48.2461L801.033 48.957C801.922 49.1621 802.51 49.4082 802.824 49.6953C803.125 49.9824 803.275 50.4062 803.275 50.9395C803.275 52.375 801.977 53.2637 799.857 53.2637C797.561 53.2637 796.303 52.2246 796.125 50.2422H793.76ZM812.367 43.3789V40.3574H809.537V43.3789H812.367ZM812.367 55V51.9512H809.537V55H812.367ZM816.756 57.5977L823.551 34.3418H821.828L815.074 57.5977H816.756ZM825.178 57.5977L831.973 34.3418H830.25L823.496 57.5977H825.178ZM842.869 53.127C842.869 54.5625 843.689 55.2734 845.33 55.2734C845.727 55.2734 846.15 55.2188 846.752 55.0547V53.1543C846.465 53.209 846.26 53.2363 846.109 53.2363C845.754 53.2363 845.508 53.1406 845.371 52.9629C845.234 52.7852 845.166 52.375 845.166 51.7461V44.418C845.166 41.3008 843.375 39.8789 839.451 39.8789C837.633 39.8789 836.197 40.3027 835.158 41.1641C834.119 42.0254 833.6 43.1875 833.6 44.6641V44.7734H835.924C835.924 42.9824 837.086 42.0664 839.369 42.0664C841.57 42.0664 842.664 42.8184 842.664 44.3086C842.664 44.8965 842.623 45.2793 842.527 45.457C842.432 45.6348 842.254 45.7852 841.967 45.8945C841.68 46.0176 840.914 46.1406 839.67 46.2637C838.945 46.3457 838.357 46.4141 837.934 46.4551C834.557 46.8926 832.93 48.3828 832.93 51.0488C832.93 52.4297 833.354 53.4961 834.188 54.2754C835.021 55.0684 836.197 55.4512 837.688 55.4512C839.615 55.4512 841.338 54.6445 842.869 53.0449V53.127ZM842.637 49.7363C842.637 50.7754 842.213 51.623 841.365 52.293C840.518 52.9629 839.438 53.291 838.111 53.291C836.416 53.291 835.473 52.4844 835.473 51.0215C835.473 49.5586 836.197 48.8477 837.988 48.5605C838.275 48.5195 838.699 48.4512 839.26 48.3828C840.859 48.1777 841.98 47.9043 842.637 47.5488V49.7363ZM851.551 55V34.8613H849.049V55H851.551ZM857.744 47.7812C857.744 44.1309 859.289 42.0938 862.064 42.0938C863.418 42.0938 864.484 42.5723 865.264 43.5293C866.043 44.4863 866.426 45.7988 866.426 47.4668C866.426 51.1719 864.867 53.2637 862.092 53.2637C859.193 53.2637 857.744 51.4316 857.744 47.7812ZM857.826 60.8516V53.209C858.975 54.7266 860.506 55.4512 862.57 55.4512C864.512 55.4512 866.07 54.7402 867.246 53.332C868.422 51.9238 869.01 50.0234 869.01 47.6309C869.01 45.2656 868.436 43.3926 867.273 41.9844C866.111 40.5762 864.553 39.8789 862.598 39.8789C860.506 39.8789 859.043 40.6719 857.826 42.4219V40.3574H855.42V60.8516H857.826ZM884.254 55V46.209V45.5117C884.254 44.4727 884.199 43.707 884.104 43.2285C884.008 42.75 883.844 42.3398 883.611 41.9844C882.791 40.6582 881.273 39.9883 879.072 39.9883C876.98 39.9883 875.367 40.8359 874.479 42.4219V34.8613H872.018V55H874.479V46.3457C874.479 45.0742 874.875 44.0488 875.654 43.2969C876.434 42.5449 877.5 42.1758 878.826 42.1758C879.906 42.1758 880.658 42.4492 881.109 42.9961C881.547 43.543 881.766 44.541 881.766 45.9902V55H884.254ZM897.01 53.127C897.01 54.5625 897.83 55.2734 899.471 55.2734C899.867 55.2734 900.291 55.2188 900.893 55.0547V53.1543C900.605 53.209 900.4 53.2363 900.25 53.2363C899.895 53.2363 899.648 53.1406 899.512 52.9629C899.375 52.7852 899.307 52.375 899.307 51.7461V44.418C899.307 41.3008 897.516 39.8789 893.592 39.8789C891.773 39.8789 890.338 40.3027 889.299 41.1641C888.26 42.0254 887.74 43.1875 887.74 44.6641V44.7734H890.064C890.064 42.9824 891.227 42.0664 893.51 42.0664C895.711 42.0664 896.805 42.8184 896.805 44.3086C896.805 44.8965 896.764 45.2793 896.668 45.457C896.572 45.6348 896.395 45.7852 896.107 45.8945C895.82 46.0176 895.055 46.1406 893.811 46.2637C893.086 46.3457 892.498 46.4141 892.074 46.4551C888.697 46.8926 887.07 48.3828 887.07 51.0488C887.07 52.4297 887.494 53.4961 888.328 54.2754C889.162 55.0684 890.338 55.4512 891.828 55.4512C893.756 55.4512 895.479 54.6445 897.01 53.0449V53.127ZM896.777 49.7363C896.777 50.7754 896.354 51.623 895.506 52.293C894.658 52.9629 893.578 53.291 892.252 53.291C890.557 53.291 889.613 52.4844 889.613 51.0215C889.613 49.5586 890.338 48.8477 892.129 48.5605C892.416 48.5195 892.84 48.4512 893.4 48.3828C895 48.1777 896.121 47.9043 896.777 47.5488V49.7363ZM910.504 39.2363V47.9453H904.338L910.504 39.2363ZM913.02 55V50.1875H915.795V47.9453H913.02V35.9824H910.477L901.986 47.7266V50.1875H910.504V55H913.02ZM921.893 55V51.9512H919.09V55H921.893ZM925.201 50.2422C925.256 53.6191 927.32 55.4512 931.08 55.4512C933.008 55.4512 934.498 55.0273 935.578 54.1797C936.645 53.3457 937.178 52.1562 937.178 50.6387C937.178 49.4766 936.863 48.5879 936.221 47.959C935.578 47.3438 934.416 46.8242 932.721 46.4277L930.342 45.8672C929.453 45.6621 928.852 45.4297 928.537 45.1562C928.209 44.8965 928.045 44.5273 928.045 44.0488C928.045 42.7227 929.098 42.0117 931.08 42.0117C933.062 42.0117 934.279 42.9004 934.389 44.4453H936.781V44.3906C936.781 43.0234 936.262 41.9297 935.236 41.123C934.211 40.3164 932.816 39.9062 931.08 39.9062C929.371 39.9062 928.031 40.2891 927.061 41.041C926.076 41.8066 925.584 42.832 925.584 44.1309C925.584 45.2656 925.885 46.1406 926.5 46.7559C927.102 47.3711 928.182 47.877 929.727 48.2461L932.475 48.957C933.363 49.1621 933.951 49.4082 934.266 49.6953C934.566 49.9824 934.717 50.4062 934.717 50.9395C934.717 52.375 933.418 53.2637 931.299 53.2637C929.002 53.2637 927.744 52.2246 927.566 50.2422H925.201ZM942.988 42.3125H945.627V40.3574H942.988V36.2695H940.527V40.3574H938.34V42.3125H940.527V52.1426C940.527 53.2773 940.76 54.0703 941.225 54.5215C941.689 54.9727 942.496 55.1914 943.658 55.1914C944.164 55.1914 944.807 55.123 945.627 54.9727V52.8809C944.971 52.9355 944.588 52.9492 944.301 52.9492C943.795 52.9492 943.453 52.8398 943.275 52.6211C943.084 52.4023 942.988 51.9648 942.988 51.3086V42.3125ZM957.029 53.127C957.029 54.5625 957.85 55.2734 959.49 55.2734C959.887 55.2734 960.311 55.2188 960.912 55.0547V53.1543C960.625 53.209 960.42 53.2363 960.27 53.2363C959.914 53.2363 959.668 53.1406 959.531 52.9629C959.395 52.7852 959.326 52.375 959.326 51.7461V44.418C959.326 41.3008 957.535 39.8789 953.611 39.8789C951.793 39.8789 950.357 40.3027 949.318 41.1641C948.279 42.0254 947.76 43.1875 947.76 44.6641V44.7734H950.084C950.084 42.9824 951.246 42.0664 953.529 42.0664C955.73 42.0664 956.824 42.8184 956.824 44.3086C956.824 44.8965 956.783 45.2793 956.688 45.457C956.592 45.6348 956.414 45.7852 956.127 45.8945C955.84 46.0176 955.074 46.1406 953.83 46.2637C953.105 46.3457 952.518 46.4141 952.094 46.4551C948.717 46.8926 947.09 48.3828 947.09 51.0488C947.09 52.4297 947.514 53.4961 948.348 54.2754C949.182 55.0684 950.357 55.4512 951.848 55.4512C953.775 55.4512 955.498 54.6445 957.029 53.0449V53.127ZM956.797 49.7363C956.797 50.7754 956.373 51.623 955.525 52.293C954.678 52.9629 953.598 53.291 952.271 53.291C950.576 53.291 949.633 52.4844 949.633 51.0215C949.633 49.5586 950.357 48.8477 952.148 48.5605C952.436 48.5195 952.859 48.4512 953.42 48.3828C955.02 48.1777 956.141 47.9043 956.797 47.5488V49.7363ZM965.643 55V46.8516C965.643 44.1172 967.051 42.6543 969.676 42.6543C970.004 42.6543 970.141 42.668 970.264 42.6816V40.084C970.1 40.043 969.99 40.043 969.621 40.043C967.666 40.043 966.34 41.0137 965.561 42.9824V40.3574H963.182V55H965.643ZM974.939 55V49.9004L977.523 47.4121L981.803 55H984.578L979.178 45.7031L984.66 40.3574H981.557L974.939 46.9336V34.8613H972.479V55H974.939ZM999.207 55V46.209V45.5117C999.207 44.4727 999.152 43.707 999.057 43.2285C998.961 42.75 998.797 42.3398 998.564 41.9844C997.744 40.6582 996.227 39.9883 994.025 39.9883C991.988 39.9883 990.457 40.7949 989.322 42.4902V40.3574H986.971V55H989.432V46.6602C989.432 43.8027 991.031 42.1758 993.779 42.1758C994.859 42.1758 995.611 42.4492 996.062 42.9961C996.5 43.5566 996.719 44.5547 996.719 45.9902V55H999.207ZM1004.79 46.3457C1005.02 43.5566 1006.45 42.0664 1008.87 42.0664C1011.39 42.0664 1012.81 43.6113 1012.82 46.3457H1004.79ZM1012.77 50.2695C1012.39 52.1699 1011.03 53.2363 1009.02 53.2363C1006.4 53.2363 1004.85 51.4727 1004.8 48.3965H1015.37C1015.41 48.123 1015.41 47.9043 1015.41 47.3027C1015.41 44.9375 1014.83 43.1191 1013.69 41.8203C1012.52 40.5215 1010.9 39.8789 1008.79 39.8789C1006.74 39.8789 1005.13 40.5762 1003.96 41.9844C1002.8 43.3926 1002.21 45.334 1002.21 47.8359C1002.21 50.2012 1002.8 52.0605 1003.98 53.4277C1005.15 54.7949 1006.75 55.4785 1008.79 55.4785C1010.53 55.4785 1011.96 55.0137 1013.1 54.084C1014.23 53.1543 1014.94 51.8828 1015.2 50.2695H1012.77ZM1021.11 42.3125H1023.75V40.3574H1021.11V36.2695H1018.65V40.3574H1016.46V42.3125H1018.65V52.1426C1018.65 53.2773 1018.88 54.0703 1019.35 54.5215C1019.81 54.9727 1020.62 55.1914 1021.78 55.1914C1022.29 55.1914 1022.93 55.123 1023.75 54.9727V52.8809C1023.09 52.9355 1022.71 52.9492 1022.42 52.9492C1021.92 52.9492 1021.57 52.8398 1021.4 52.6211C1021.21 52.4023 1021.11 51.9648 1021.11 51.3086V42.3125ZM1029.46 55V51.9512H1026.66V55H1029.46ZM1036.24 37.6641V34.8613H1033.78V37.6641H1036.24ZM1036.24 55V40.3574H1033.78V55H1036.24ZM1041.78 47.6582C1041.78 44.0352 1043.38 42.0664 1046.29 42.0664C1049.18 42.0664 1050.75 44.0488 1050.75 47.6582C1050.75 51.2812 1049.18 53.2637 1046.29 53.2637C1043.39 53.2637 1041.78 51.2812 1041.78 47.6582ZM1039.27 47.6582C1039.27 50.1328 1039.88 52.0469 1041.11 53.4004C1042.34 54.7676 1044.06 55.4512 1046.29 55.4512C1048.51 55.4512 1050.23 54.7676 1051.46 53.4004C1052.68 52.0332 1053.29 50.1191 1053.29 47.6582C1053.29 45.1973 1052.68 43.2832 1051.45 41.916C1050.22 40.5625 1048.49 39.8789 1046.27 39.8789C1044.05 39.8789 1042.33 40.5625 1041.11 41.9297C1039.88 43.2969 1039.27 45.2109 1039.27 47.6582ZM1056.52 60.7969C1059.6 56.6406 1061.04 52.4707 1061.04 47.7539C1061.04 43.0098 1059.6 38.8535 1056.52 34.6973H1054.76C1057.33 39.1133 1058.58 43.3652 1058.58 47.7539C1058.58 52.1289 1057.33 56.3809 1054.76 60.7969H1056.52ZM1069.06 55V51.9512H1066.25V55H1069.06Z" fill="white"/>
</svg>
