<svg width="876" height="28" viewBox="0 0 876 28" fill="none" xmlns="http://www.w3.org/2000/svg">
<path d="M8.74414 21C10.8359 21 12.5039 20.4531 13.7207 19.373C14.9375 18.293 15.5527 16.8301 15.5527 14.9844C15.5527 12.373 14.1309 10.582 11.7109 10.1309C13.625 9.35156 14.5957 7.86133 14.5957 5.76953C14.5957 2.50195 12.5039 0.861328 8.33398 0.861328H0.212891V21H8.74414ZM2.94727 3.1582H7.96484C10.6035 3.1582 11.8613 4.12891 11.8613 6.16602C11.8613 8.33984 10.5762 9.32422 7.74609 9.32422H2.94727V3.1582ZM2.94727 11.5664H8.18359C11.3418 11.5664 12.75 12.6191 12.75 14.957C12.75 17.3086 11.2871 18.5664 8.49805 18.5664H2.94727V11.5664ZM18.4102 6.35742V15.1484V15.8457C18.4102 16.8848 18.4648 17.6367 18.5605 18.1152C18.6562 18.5938 18.8203 19.0176 19.0527 19.373C19.8594 20.6445 21.418 21.3691 23.4551 21.3691C25.6426 21.3691 27.2695 20.5078 28.2949 18.8125V21H30.6465V6.35742H28.1855V14.2461C28.1855 17.4863 26.709 19.1816 23.8652 19.1816C22.7852 19.1816 22.0332 18.8945 21.582 18.334C21.1309 17.7734 20.8984 16.7754 20.8984 15.3398V6.35742H18.4102ZM46.6426 21V12.209V11.5117C46.6426 10.4727 46.5879 9.70703 46.4922 9.22852C46.3965 8.75 46.2324 8.33984 46 7.98438C45.1797 6.6582 43.6621 5.98828 41.4609 5.98828C39.4238 5.98828 37.8926 6.79492 36.7578 8.49023V6.35742H34.4062V21H36.8672V12.6602C36.8672 9.80273 38.4668 8.17578 41.2148 8.17578C42.2949 8.17578 43.0469 8.44922 43.498 8.99609C43.9355 9.55664 44.1543 10.5547 44.1543 11.9902V21H46.6426ZM60.8477 13.5762C60.8477 17.2266 59.2617 19.2637 56.5137 19.2637C55.1602 19.2637 54.0938 18.7852 53.3145 17.8281C52.5352 16.8711 52.1387 15.5586 52.1387 13.8906C52.1387 10.1855 53.7109 8.09375 56.4863 8.09375C59.3711 8.09375 60.8477 9.95312 60.8477 13.5762ZM60.7656 0.861328V8.14844C59.6172 6.63086 58.0449 5.87891 56.0078 5.87891C54.0664 5.87891 52.5078 6.58984 51.3457 7.99805C50.1836 9.41992 49.5957 11.334 49.5957 13.7266C49.5957 16.0781 50.1836 17.9512 51.3457 19.3457C52.5078 20.7539 54.0527 21.4512 56.0078 21.4512C57.9219 21.4512 59.5078 20.6855 60.7656 19.1543V21H63.1445V0.861328H60.7656ZM69.5293 21V0.861328H67.0273V21H69.5293ZM75.2168 12.3457C75.4492 9.55664 76.8848 8.06641 79.3047 8.06641C81.8203 8.06641 83.2422 9.61133 83.2559 12.3457H75.2168ZM83.2012 16.2695C82.8184 18.1699 81.4648 19.2363 79.4551 19.2363C76.8301 19.2363 75.2852 17.4727 75.2305 14.3965H85.7988C85.8398 14.123 85.8398 13.9043 85.8398 13.3027C85.8398 10.9375 85.2656 9.11914 84.1172 7.82031C82.9551 6.52148 81.3281 5.87891 79.2227 5.87891C77.1719 5.87891 75.5586 6.57617 74.3965 7.98438C73.2344 9.39258 72.6465 11.334 72.6465 13.8359C72.6465 16.2012 73.2344 18.0605 74.4102 19.4277C75.5859 20.7949 77.1855 21.4785 79.2227 21.4785C80.959 21.4785 82.3945 21.0137 83.5293 20.084C84.6641 19.1543 85.375 17.8828 85.6348 16.2695H83.2012ZM101.549 18.1973L97.4883 6.35742H94.7402L100.291 21.834L99.6484 23.5703C99.334 24.4043 98.7734 24.7734 97.8301 24.7734C97.3516 24.7734 96.8867 24.7051 96.3945 24.5547V26.9062C96.8867 27.0566 97.3652 27.1387 97.8574 27.1387C98.9785 27.1387 99.8398 26.8926 100.428 26.4004C101.016 25.9082 101.604 24.8691 102.191 23.2695L108.357 6.35742H105.609L101.549 18.1973ZM112.295 13.6582C112.295 10.0352 113.895 8.06641 116.807 8.06641C119.691 8.06641 121.264 10.0488 121.264 13.6582C121.264 17.2812 119.691 19.2637 116.807 19.2637C113.908 19.2637 112.295 17.2812 112.295 13.6582ZM109.779 13.6582C109.779 16.1328 110.395 18.0469 111.625 19.4004C112.855 20.7676 114.578 21.4512 116.807 21.4512C119.021 21.4512 120.744 20.7676 121.975 19.4004C123.191 18.0332 123.807 16.1191 123.807 13.6582C123.807 11.1973 123.191 9.2832 121.961 7.91602C120.73 6.5625 119.008 5.87891 116.779 5.87891C114.564 5.87891 112.842 6.5625 111.625 7.92969C110.395 9.29688 109.779 11.2109 109.779 13.6582ZM126.746 6.35742V15.1484V15.8457C126.746 16.8848 126.801 17.6367 126.896 18.1152C126.992 18.5938 127.156 19.0176 127.389 19.373C128.195 20.6445 129.754 21.3691 131.791 21.3691C133.979 21.3691 135.605 20.5078 136.631 18.8125V21H138.982V6.35742H136.521V14.2461C136.521 17.4863 135.045 19.1816 132.201 19.1816C131.121 19.1816 130.369 18.8945 129.918 18.334C129.467 17.7734 129.234 16.7754 129.234 15.3398V6.35742H126.746ZM145.203 21V12.8516C145.203 10.1172 146.611 8.6543 149.236 8.6543C149.564 8.6543 149.701 8.66797 149.824 8.68164V6.08398C149.66 6.04297 149.551 6.04297 149.182 6.04297C147.227 6.04297 145.9 7.01367 145.121 8.98242V6.35742H142.742V21H145.203ZM172.807 21V18.457H162.771V0.861328H160.01V21H172.807ZM182.555 21V1.42188H180.641C180.354 3.99219 178.754 5.14062 175.473 5.18164V7.16406H179.998V21H182.555ZM212.633 21V18.4844H200.752V11.7305H211.512V9.37891H200.752V3.36328H212.4V0.861328H198.045V21H212.633ZM223.816 21L230.898 0.861328H228.041L222.422 17.7188L216.625 0.861328H213.795L220.959 21H223.816ZM235.588 3.8418C235.711 4.51172 235.861 5.09961 236.039 5.60547L241.098 21H243.682L248.863 5.60547C249.041 5.01758 249.219 4.42969 249.342 3.8418V21H251.994V0.861328H248.07L242.902 16.2695C242.738 16.748 242.602 17.2539 242.451 17.9238C242.383 17.5547 242.26 17.1445 241.973 16.2695L236.982 0.861328H233.072V21H235.588V3.8418ZM268.893 21L271.996 9.7207L275.086 21H277.574L282.031 6.35742H279.502L276.289 17.5547L273.432 6.35742H270.574L267.689 17.5547L264.586 6.35742H262.029L266.404 21H268.893ZM293.16 19.127C293.16 20.5625 293.98 21.2734 295.621 21.2734C296.018 21.2734 296.441 21.2188 297.043 21.0547V19.1543C296.756 19.209 296.551 19.2363 296.4 19.2363C296.045 19.2363 295.799 19.1406 295.662 18.9629C295.525 18.7852 295.457 18.375 295.457 17.7461V10.418C295.457 7.30078 293.666 5.87891 289.742 5.87891C287.924 5.87891 286.488 6.30273 285.449 7.16406C284.41 8.02539 283.891 9.1875 283.891 10.6641V10.7734H286.215C286.215 8.98242 287.377 8.06641 289.66 8.06641C291.861 8.06641 292.955 8.81836 292.955 10.3086C292.955 10.8965 292.914 11.2793 292.818 11.457C292.723 11.6348 292.545 11.7852 292.258 11.8945C291.971 12.0176 291.205 12.1406 289.961 12.2637C289.236 12.3457 288.648 12.4141 288.225 12.4551C284.848 12.8926 283.221 14.3828 283.221 17.0488C283.221 18.4297 283.645 19.4961 284.479 20.2754C285.312 21.0684 286.488 21.4512 287.979 21.4512C289.906 21.4512 291.629 20.6445 293.16 19.0449V19.127ZM292.928 15.7363C292.928 16.7754 292.504 17.623 291.656 18.293C290.809 18.9629 289.729 19.291 288.402 19.291C286.707 19.291 285.764 18.4844 285.764 17.0215C285.764 15.5586 286.488 14.8477 288.279 14.5605C288.566 14.5195 288.99 14.4512 289.551 14.3828C291.15 14.1777 292.271 13.9043 292.928 13.5488V15.7363ZM301.842 21V0.861328H299.34V21H301.842ZM308.186 21V0.861328H305.684V21H308.186ZM313.873 12.3457C314.105 9.55664 315.541 8.06641 317.961 8.06641C320.477 8.06641 321.898 9.61133 321.912 12.3457H313.873ZM321.857 16.2695C321.475 18.1699 320.121 19.2363 318.111 19.2363C315.486 19.2363 313.941 17.4727 313.887 14.3965H324.455C324.496 14.123 324.496 13.9043 324.496 13.3027C324.496 10.9375 323.922 9.11914 322.773 7.82031C321.611 6.52148 319.984 5.87891 317.879 5.87891C315.828 5.87891 314.215 6.57617 313.053 7.98438C311.891 9.39258 311.303 11.334 311.303 13.8359C311.303 16.2012 311.891 18.0605 313.066 19.4277C314.242 20.7949 315.842 21.4785 317.879 21.4785C319.615 21.4785 321.051 21.0137 322.186 20.084C323.32 19.1543 324.031 17.8828 324.291 16.2695H321.857ZM330.197 8.3125H332.836V6.35742H330.197V2.26953H327.736V6.35742H325.549V8.3125H327.736V18.1426C327.736 19.2773 327.969 20.0703 328.434 20.5215C328.898 20.9727 329.705 21.1914 330.867 21.1914C331.373 21.1914 332.016 21.123 332.836 20.9727V18.8809C332.18 18.9355 331.797 18.9492 331.51 18.9492C331.004 18.9492 330.662 18.8398 330.484 18.6211C330.293 18.4023 330.197 17.9648 330.197 17.3086V8.3125ZM334.176 16.2422C334.23 19.6191 336.295 21.4512 340.055 21.4512C341.982 21.4512 343.473 21.0273 344.553 20.1797C345.619 19.3457 346.152 18.1562 346.152 16.6387C346.152 15.4766 345.838 14.5879 345.195 13.959C344.553 13.3438 343.391 12.8242 341.695 12.4277L339.316 11.8672C338.428 11.6621 337.826 11.4297 337.512 11.1562C337.184 10.8965 337.02 10.5273 337.02 10.0488C337.02 8.72266 338.072 8.01172 340.055 8.01172C342.037 8.01172 343.254 8.90039 343.363 10.4453H345.756V10.3906C345.756 9.02344 345.236 7.92969 344.211 7.12305C343.186 6.31641 341.791 5.90625 340.055 5.90625C338.346 5.90625 337.006 6.28906 336.035 7.04102C335.051 7.80664 334.559 8.83203 334.559 10.1309C334.559 11.2656 334.859 12.1406 335.475 12.7559C336.076 13.3711 337.156 13.877 338.701 14.2461L341.449 14.957C342.338 15.1621 342.926 15.4082 343.24 15.6953C343.541 15.9824 343.691 16.4062 343.691 16.9395C343.691 18.375 342.393 19.2637 340.273 19.2637C337.977 19.2637 336.719 18.2246 336.541 16.2422H334.176ZM359.646 8.3125H362.285V6.35742H359.646V2.26953H357.186V6.35742H354.998V8.3125H357.186V18.1426C357.186 19.2773 357.418 20.0703 357.883 20.5215C358.348 20.9727 359.154 21.1914 360.316 21.1914C360.822 21.1914 361.465 21.123 362.285 20.9727V18.8809C361.629 18.9355 361.246 18.9492 360.959 18.9492C360.453 18.9492 360.111 18.8398 359.934 18.6211C359.742 18.4023 359.646 17.9648 359.646 17.3086V8.3125ZM366.4 13.6582C366.4 10.0352 368 8.06641 370.912 8.06641C373.797 8.06641 375.369 10.0488 375.369 13.6582C375.369 17.2812 373.797 19.2637 370.912 19.2637C368.014 19.2637 366.4 17.2812 366.4 13.6582ZM363.885 13.6582C363.885 16.1328 364.5 18.0469 365.73 19.4004C366.961 20.7676 368.684 21.4512 370.912 21.4512C373.127 21.4512 374.85 20.7676 376.08 19.4004C377.297 18.0332 377.912 16.1191 377.912 13.6582C377.912 11.1973 377.297 9.2832 376.066 7.91602C374.836 6.5625 373.113 5.87891 370.885 5.87891C368.67 5.87891 366.947 6.5625 365.73 7.92969C364.5 9.29688 363.885 11.2109 363.885 13.6582ZM394.756 21L400.102 6.35742H397.463L393.471 18.0879L389.383 6.35742H386.744L392.145 21H394.756ZM403.943 12.3457C404.176 9.55664 405.611 8.06641 408.031 8.06641C410.547 8.06641 411.969 9.61133 411.982 12.3457H403.943ZM411.928 16.2695C411.545 18.1699 410.191 19.2363 408.182 19.2363C405.557 19.2363 404.012 17.4727 403.957 14.3965H414.525C414.566 14.123 414.566 13.9043 414.566 13.3027C414.566 10.9375 413.992 9.11914 412.844 7.82031C411.682 6.52148 410.055 5.87891 407.949 5.87891C405.898 5.87891 404.285 6.57617 403.123 7.98438C401.961 9.39258 401.373 11.334 401.373 13.8359C401.373 16.2012 401.961 18.0605 403.137 19.4277C404.312 20.7949 405.912 21.4785 407.949 21.4785C409.686 21.4785 411.121 21.0137 412.256 20.084C413.391 19.1543 414.102 17.8828 414.361 16.2695H411.928ZM419.844 21V12.8516C419.844 10.1172 421.252 8.6543 423.877 8.6543C424.205 8.6543 424.342 8.66797 424.465 8.68164V6.08398C424.301 6.04297 424.191 6.04297 423.822 6.04297C421.867 6.04297 420.541 7.01367 419.762 8.98242V6.35742H417.383V21H419.844ZM429.141 3.66406V0.861328H426.68V3.66406H429.141ZM429.141 21V6.35742H426.68V21H429.141ZM435.936 21V8.3125H438.574V6.35742H435.936V5.12695C435.936 4.23828 436.045 3.62305 436.277 3.30859C436.51 2.99414 436.906 2.83008 437.48 2.83008C437.699 2.83008 438.041 2.87109 438.574 2.9668V0.751953C437.549 0.601562 437.098 0.560547 436.756 0.560547C434.555 0.560547 433.447 1.77734 433.447 4.19727V6.35742H431.041V8.3125H433.447V21H435.936ZM445.533 18.1973L441.473 6.35742H438.725L444.275 21.834L443.633 23.5703C443.318 24.4043 442.758 24.7734 441.814 24.7734C441.336 24.7734 440.871 24.7051 440.379 24.5547V26.9062C440.871 27.0566 441.35 27.1387 441.842 27.1387C442.963 27.1387 443.824 26.8926 444.412 26.4004C445 25.9082 445.588 24.8691 446.176 23.2695L452.342 6.35742H449.594L445.533 18.1973ZM467.408 18.1973L463.348 6.35742H460.6L466.15 21.834L465.508 23.5703C465.193 24.4043 464.633 24.7734 463.689 24.7734C463.211 24.7734 462.746 24.7051 462.254 24.5547V26.9062C462.746 27.0566 463.225 27.1387 463.717 27.1387C464.838 27.1387 465.699 26.8926 466.287 26.4004C466.875 25.9082 467.463 24.8691 468.051 23.2695L474.217 6.35742H471.469L467.408 18.1973ZM478.154 13.6582C478.154 10.0352 479.754 8.06641 482.666 8.06641C485.551 8.06641 487.123 10.0488 487.123 13.6582C487.123 17.2812 485.551 19.2637 482.666 19.2637C479.768 19.2637 478.154 17.2812 478.154 13.6582ZM475.639 13.6582C475.639 16.1328 476.254 18.0469 477.484 19.4004C478.715 20.7676 480.438 21.4512 482.666 21.4512C484.881 21.4512 486.604 20.7676 487.834 19.4004C489.051 18.0332 489.666 16.1191 489.666 13.6582C489.666 11.1973 489.051 9.2832 487.82 7.91602C486.59 6.5625 484.867 5.87891 482.639 5.87891C480.424 5.87891 478.701 6.5625 477.484 7.92969C476.254 9.29688 475.639 11.2109 475.639 13.6582ZM492.605 6.35742V15.1484V15.8457C492.605 16.8848 492.66 17.6367 492.756 18.1152C492.852 18.5938 493.016 19.0176 493.248 19.373C494.055 20.6445 495.613 21.3691 497.65 21.3691C499.838 21.3691 501.465 20.5078 502.49 18.8125V21H504.842V6.35742H502.381V14.2461C502.381 17.4863 500.904 19.1816 498.061 19.1816C496.98 19.1816 496.229 18.8945 495.777 18.334C495.326 17.7734 495.094 16.7754 495.094 15.3398V6.35742H492.605ZM511.062 21V12.8516C511.062 10.1172 512.471 8.6543 515.096 8.6543C515.424 8.6543 515.561 8.66797 515.684 8.68164V6.08398C515.52 6.04297 515.41 6.04297 515.041 6.04297C513.086 6.04297 511.76 7.01367 510.98 8.98242V6.35742H508.602V21H511.062ZM527.455 12.3457C527.688 9.55664 529.123 8.06641 531.543 8.06641C534.059 8.06641 535.48 9.61133 535.494 12.3457H527.455ZM535.439 16.2695C535.057 18.1699 533.703 19.2363 531.693 19.2363C529.068 19.2363 527.523 17.4727 527.469 14.3965H538.037C538.078 14.123 538.078 13.9043 538.078 13.3027C538.078 10.9375 537.504 9.11914 536.355 7.82031C535.193 6.52148 533.566 5.87891 531.461 5.87891C529.41 5.87891 527.797 6.57617 526.635 7.98438C525.473 9.39258 524.885 11.334 524.885 13.8359C524.885 16.2012 525.473 18.0605 526.648 19.4277C527.824 20.7949 529.424 21.4785 531.461 21.4785C533.197 21.4785 534.633 21.0137 535.768 20.084C536.902 19.1543 537.613 17.8828 537.873 16.2695H535.439ZM541.906 21L545.625 15.3398L549.467 21H552.434L547.197 13.4395L552.119 6.35742H549.275L545.748 11.6211L542.152 6.35742H539.268L544.121 13.4668L539.021 21H541.906ZM556.781 3.66406V0.861328H554.32V3.66406H556.781ZM556.781 21V6.35742H554.32V21H556.781ZM559.543 16.2422C559.598 19.6191 561.662 21.4512 565.422 21.4512C567.35 21.4512 568.84 21.0273 569.92 20.1797C570.986 19.3457 571.52 18.1562 571.52 16.6387C571.52 15.4766 571.205 14.5879 570.562 13.959C569.92 13.3438 568.758 12.8242 567.062 12.4277L564.684 11.8672C563.795 11.6621 563.193 11.4297 562.879 11.1562C562.551 10.8965 562.387 10.5273 562.387 10.0488C562.387 8.72266 563.439 8.01172 565.422 8.01172C567.404 8.01172 568.621 8.90039 568.73 10.4453H571.123V10.3906C571.123 9.02344 570.604 7.92969 569.578 7.12305C568.553 6.31641 567.158 5.90625 565.422 5.90625C563.713 5.90625 562.373 6.28906 561.402 7.04102C560.418 7.80664 559.926 8.83203 559.926 10.1309C559.926 11.2656 560.227 12.1406 560.842 12.7559C561.443 13.3711 562.523 13.877 564.068 14.2461L566.816 14.957C567.705 15.1621 568.293 15.4082 568.607 15.6953C568.908 15.9824 569.059 16.4062 569.059 16.9395C569.059 18.375 567.76 19.2637 565.641 19.2637C563.344 19.2637 562.086 18.2246 561.908 16.2422H559.543ZM577.33 8.3125H579.969V6.35742H577.33V2.26953H574.869V6.35742H572.682V8.3125H574.869V18.1426C574.869 19.2773 575.102 20.0703 575.566 20.5215C576.031 20.9727 576.838 21.1914 578 21.1914C578.506 21.1914 579.148 21.123 579.969 20.9727V18.8809C579.312 18.9355 578.93 18.9492 578.643 18.9492C578.137 18.9492 577.795 18.8398 577.617 18.6211C577.426 18.4023 577.33 17.9648 577.33 17.3086V8.3125ZM584.781 3.66406V0.861328H582.32V3.66406H584.781ZM584.781 21V6.35742H582.32V21H584.781ZM600.791 21V12.209V11.5117C600.791 10.4727 600.736 9.70703 600.641 9.22852C600.545 8.75 600.381 8.33984 600.148 7.98438C599.328 6.6582 597.811 5.98828 595.609 5.98828C593.572 5.98828 592.041 6.79492 590.906 8.49023V6.35742H588.555V21H591.016V12.6602C591.016 9.80273 592.615 8.17578 595.363 8.17578C596.443 8.17578 597.195 8.44922 597.646 8.99609C598.084 9.55664 598.303 10.5547 598.303 11.9902V21H600.791ZM610.689 8.09375C613.602 8.09375 615.105 10.0215 615.105 13.7812C615.105 17.5 613.711 19.2637 610.717 19.2637C609.35 19.2637 608.283 18.7715 607.518 17.7871C606.752 16.8164 606.369 15.4492 606.369 13.6855C606.369 10.0898 607.914 8.09375 610.689 8.09375ZM615.023 21.2188C615.023 22.5723 614.682 23.5566 614.012 24.1445C613.328 24.7324 612.207 25.0332 610.662 25.0332C608.078 25.0332 606.793 24.2812 606.793 22.7637V22.709H604.387V22.8184C604.387 24.1582 604.934 25.2109 606.027 25.9629C607.121 26.7148 608.639 27.0977 610.58 27.0977C612.973 27.0977 614.709 26.5918 615.789 25.5938C616.869 24.582 617.402 22.9414 617.402 20.6855V6.35742H614.996V8.20312C613.738 6.57617 612.33 5.87891 610.402 5.87891C608.42 5.87891 606.82 6.58984 605.617 7.99805C604.4 9.41992 603.799 11.293 603.799 13.6309C603.799 15.9961 604.4 17.8828 605.604 19.3184C606.807 20.7539 608.393 21.4785 610.375 21.4785C612.344 21.4785 613.875 20.7266 615.023 19.209V21.2188ZM630.623 13.6582C630.623 10.0352 632.223 8.06641 635.135 8.06641C638.02 8.06641 639.592 10.0488 639.592 13.6582C639.592 17.2812 638.02 19.2637 635.135 19.2637C632.236 19.2637 630.623 17.2812 630.623 13.6582ZM628.107 13.6582C628.107 16.1328 628.723 18.0469 629.953 19.4004C631.184 20.7676 632.906 21.4512 635.135 21.4512C637.35 21.4512 639.072 20.7676 640.303 19.4004C641.52 18.0332 642.135 16.1191 642.135 13.6582C642.135 11.1973 641.52 9.2832 640.289 7.91602C639.059 6.5625 637.336 5.87891 635.107 5.87891C632.893 5.87891 631.17 6.5625 629.953 7.92969C628.723 9.29688 628.107 11.2109 628.107 13.6582ZM657.365 21V12.209V11.5117C657.365 10.4727 657.311 9.70703 657.215 9.22852C657.119 8.75 656.955 8.33984 656.723 7.98438C655.902 6.6582 654.385 5.98828 652.184 5.98828C650.146 5.98828 648.615 6.79492 647.48 8.49023V6.35742H645.129V21H647.59V12.6602C647.59 9.80273 649.189 8.17578 651.938 8.17578C653.018 8.17578 653.77 8.44922 654.221 8.99609C654.658 9.55664 654.877 10.5547 654.877 11.9902V21H657.365ZM666.949 14.6973V12.4824H660.182V14.6973H666.949ZM681.975 11.2246C681.906 9.58398 681.318 8.28516 680.211 7.31445C679.104 6.35742 677.627 5.87891 675.781 5.87891C673.689 5.87891 672.049 6.57617 670.859 7.95703C669.67 9.35156 669.068 11.2793 669.068 13.7266C669.068 16.1191 669.643 18.0059 670.791 19.3867C671.926 20.7676 673.498 21.4512 675.508 21.4512C677.436 21.4512 678.967 20.9453 680.102 19.9336C681.236 18.9355 681.879 17.5273 682.002 15.7363H679.65C679.322 17.9922 677.914 19.209 675.617 19.209C673.061 19.209 671.611 17.1992 671.611 13.6309C671.611 10.0762 673.115 8.09375 675.781 8.09375C678.037 8.09375 679.391 9.21484 679.541 11.2246H681.975ZM696.768 21V12.209V11.5117C696.768 10.4727 696.713 9.70703 696.617 9.22852C696.521 8.75 696.357 8.33984 696.125 7.98438C695.305 6.6582 693.787 5.98828 691.586 5.98828C689.494 5.98828 687.881 6.83594 686.992 8.42188V0.861328H684.531V21H686.992V12.3457C686.992 11.0742 687.389 10.0488 688.168 9.29688C688.947 8.54492 690.014 8.17578 691.34 8.17578C692.42 8.17578 693.172 8.44922 693.623 8.99609C694.061 9.54297 694.279 10.541 694.279 11.9902V21H696.768ZM709.523 19.127C709.523 20.5625 710.344 21.2734 711.984 21.2734C712.381 21.2734 712.805 21.2188 713.406 21.0547V19.1543C713.119 19.209 712.914 19.2363 712.764 19.2363C712.408 19.2363 712.162 19.1406 712.025 18.9629C711.889 18.7852 711.82 18.375 711.82 17.7461V10.418C711.82 7.30078 710.029 5.87891 706.105 5.87891C704.287 5.87891 702.852 6.30273 701.812 7.16406C700.773 8.02539 700.254 9.1875 700.254 10.6641V10.7734H702.578C702.578 8.98242 703.74 8.06641 706.023 8.06641C708.225 8.06641 709.318 8.81836 709.318 10.3086C709.318 10.8965 709.277 11.2793 709.182 11.457C709.086 11.6348 708.908 11.7852 708.621 11.8945C708.334 12.0176 707.568 12.1406 706.324 12.2637C705.6 12.3457 705.012 12.4141 704.588 12.4551C701.211 12.8926 699.584 14.3828 699.584 17.0488C699.584 18.4297 700.008 19.4961 700.842 20.2754C701.676 21.0684 702.852 21.4512 704.342 21.4512C706.27 21.4512 707.992 20.6445 709.523 19.0449V19.127ZM709.291 15.7363C709.291 16.7754 708.867 17.623 708.02 18.293C707.172 18.9629 706.092 19.291 704.766 19.291C703.07 19.291 702.127 18.4844 702.127 17.0215C702.127 15.5586 702.852 14.8477 704.643 14.5605C704.93 14.5195 705.354 14.4512 705.914 14.3828C707.514 14.1777 708.635 13.9043 709.291 13.5488V15.7363ZM718.137 3.66406V0.861328H715.676V3.66406H718.137ZM718.137 21V6.35742H715.676V21H718.137ZM734.146 21V12.209V11.5117C734.146 10.4727 734.092 9.70703 733.996 9.22852C733.9 8.75 733.736 8.33984 733.504 7.98438C732.684 6.6582 731.166 5.98828 728.965 5.98828C726.928 5.98828 725.396 6.79492 724.262 8.49023V6.35742H721.91V21H724.371V12.6602C724.371 9.80273 725.971 8.17578 728.719 8.17578C729.799 8.17578 730.551 8.44922 731.002 8.99609C731.439 9.55664 731.658 10.5547 731.658 11.9902V21H734.146ZM747.996 21V12.8516C747.996 10.1172 749.404 8.6543 752.029 8.6543C752.357 8.6543 752.494 8.66797 752.617 8.68164V6.08398C752.453 6.04297 752.344 6.04297 751.975 6.04297C750.02 6.04297 748.693 7.01367 747.914 8.98242V6.35742H745.535V21H747.996ZM756.705 12.3457C756.938 9.55664 758.373 8.06641 760.793 8.06641C763.309 8.06641 764.73 9.61133 764.744 12.3457H756.705ZM764.689 16.2695C764.307 18.1699 762.953 19.2363 760.943 19.2363C758.318 19.2363 756.773 17.4727 756.719 14.3965H767.287C767.328 14.123 767.328 13.9043 767.328 13.3027C767.328 10.9375 766.754 9.11914 765.605 7.82031C764.443 6.52148 762.816 5.87891 760.711 5.87891C758.66 5.87891 757.047 6.57617 755.885 7.98438C754.723 9.39258 754.135 11.334 754.135 13.8359C754.135 16.2012 754.723 18.0605 755.898 19.4277C757.074 20.7949 758.674 21.4785 760.711 21.4785C762.447 21.4785 763.883 21.0137 765.018 20.084C766.152 19.1543 766.863 17.8828 767.123 16.2695H764.689ZM772.523 13.7812C772.523 10.1309 774.068 8.09375 776.844 8.09375C778.197 8.09375 779.264 8.57227 780.043 9.5293C780.822 10.4863 781.205 11.7988 781.205 13.4668C781.205 17.1719 779.646 19.2637 776.871 19.2637C773.973 19.2637 772.523 17.4316 772.523 13.7812ZM772.605 26.8516V19.209C773.754 20.7266 775.285 21.4512 777.35 21.4512C779.291 21.4512 780.85 20.7402 782.025 19.332C783.201 17.9238 783.789 16.0234 783.789 13.6309C783.789 11.2656 783.215 9.39258 782.053 7.98438C780.891 6.57617 779.332 5.87891 777.377 5.87891C775.285 5.87891 773.822 6.67188 772.605 8.42188V6.35742H770.199V26.8516H772.605ZM786.742 6.35742V15.1484V15.8457C786.742 16.8848 786.797 17.6367 786.893 18.1152C786.988 18.5938 787.152 19.0176 787.385 19.373C788.191 20.6445 789.75 21.3691 791.787 21.3691C793.975 21.3691 795.602 20.5078 796.627 18.8125V21H798.979V6.35742H796.518V14.2461C796.518 17.4863 795.041 19.1816 792.197 19.1816C791.117 19.1816 790.365 18.8945 789.914 18.334C789.463 17.7734 789.23 16.7754 789.23 15.3398V6.35742H786.742ZM805.623 8.3125H808.262V6.35742H805.623V2.26953H803.162V6.35742H800.975V8.3125H803.162V18.1426C803.162 19.2773 803.395 20.0703 803.859 20.5215C804.324 20.9727 805.131 21.1914 806.293 21.1914C806.799 21.1914 807.441 21.123 808.262 20.9727V18.8809C807.605 18.9355 807.223 18.9492 806.936 18.9492C806.43 18.9492 806.088 18.8398 805.91 18.6211C805.719 18.4023 805.623 17.9648 805.623 17.3086V8.3125ZM819.664 19.127C819.664 20.5625 820.484 21.2734 822.125 21.2734C822.521 21.2734 822.945 21.2188 823.547 21.0547V19.1543C823.26 19.209 823.055 19.2363 822.904 19.2363C822.549 19.2363 822.303 19.1406 822.166 18.9629C822.029 18.7852 821.961 18.375 821.961 17.7461V10.418C821.961 7.30078 820.17 5.87891 816.246 5.87891C814.428 5.87891 812.992 6.30273 811.953 7.16406C810.914 8.02539 810.395 9.1875 810.395 10.6641V10.7734H812.719C812.719 8.98242 813.881 8.06641 816.164 8.06641C818.365 8.06641 819.459 8.81836 819.459 10.3086C819.459 10.8965 819.418 11.2793 819.322 11.457C819.227 11.6348 819.049 11.7852 818.762 11.8945C818.475 12.0176 817.709 12.1406 816.465 12.2637C815.74 12.3457 815.152 12.4141 814.729 12.4551C811.352 12.8926 809.725 14.3828 809.725 17.0488C809.725 18.4297 810.148 19.4961 810.982 20.2754C811.816 21.0684 812.992 21.4512 814.482 21.4512C816.41 21.4512 818.133 20.6445 819.664 19.0449V19.127ZM819.432 15.7363C819.432 16.7754 819.008 17.623 818.16 18.293C817.312 18.9629 816.232 19.291 814.906 19.291C813.211 19.291 812.268 18.4844 812.268 17.0215C812.268 15.5586 812.992 14.8477 814.783 14.5605C815.07 14.5195 815.494 14.4512 816.055 14.3828C817.654 14.1777 818.775 13.9043 819.432 13.5488V15.7363ZM828.701 8.3125H831.34V6.35742H828.701V2.26953H826.24V6.35742H824.053V8.3125H826.24V18.1426C826.24 19.2773 826.473 20.0703 826.938 20.5215C827.402 20.9727 828.209 21.1914 829.371 21.1914C829.877 21.1914 830.52 21.123 831.34 20.9727V18.8809C830.684 18.9355 830.301 18.9492 830.014 18.9492C829.508 18.9492 829.166 18.8398 828.988 18.6211C828.797 18.4023 828.701 17.9648 828.701 17.3086V8.3125ZM836.152 3.66406V0.861328H833.691V3.66406H836.152ZM836.152 21V6.35742H833.691V21H836.152ZM841.689 13.6582C841.689 10.0352 843.289 8.06641 846.201 8.06641C849.086 8.06641 850.658 10.0488 850.658 13.6582C850.658 17.2812 849.086 19.2637 846.201 19.2637C843.303 19.2637 841.689 17.2812 841.689 13.6582ZM839.174 13.6582C839.174 16.1328 839.789 18.0469 841.02 19.4004C842.25 20.7676 843.973 21.4512 846.201 21.4512C848.416 21.4512 850.139 20.7676 851.369 19.4004C852.586 18.0332 853.201 16.1191 853.201 13.6582C853.201 11.1973 852.586 9.2832 851.355 7.91602C850.125 6.5625 848.402 5.87891 846.174 5.87891C843.959 5.87891 842.236 6.5625 841.02 7.92969C839.789 9.29688 839.174 11.2109 839.174 13.6582ZM868.432 21V12.209V11.5117C868.432 10.4727 868.377 9.70703 868.281 9.22852C868.186 8.75 868.021 8.33984 867.789 7.98438C866.969 6.6582 865.451 5.98828 863.25 5.98828C861.213 5.98828 859.682 6.79492 858.547 8.49023V6.35742H856.195V21H858.656V12.6602C858.656 9.80273 860.256 8.17578 863.004 8.17578C864.084 8.17578 864.836 8.44922 865.287 8.99609C865.725 9.55664 865.943 10.5547 865.943 11.9902V21H868.432ZM875.5 21V17.9512H872.697V21H875.5Z" fill="white"/>
</svg>
