<svg width="789" height="61" viewBox="0 0 789 61" fill="none" xmlns="http://www.w3.org/2000/svg">
<path d="M3.12891 3.8418C3.25195 4.51172 3.40234 5.09961 3.58008 5.60547L8.63867 21H11.2227L16.4043 5.60547C16.582 5.01758 16.7598 4.42969 16.8828 3.8418V21H19.5352V0.861328H15.6113L10.4434 16.2695C10.2793 16.748 10.1426 17.2539 9.99219 17.9238C9.92383 17.5547 9.80078 17.1445 9.51367 16.2695L4.52344 0.861328H0.613281V21H3.12891V3.8418ZM26.0293 3.66406V0.861328H23.5684V3.66406H26.0293ZM26.0293 21V6.35742H23.5684V21H26.0293ZM42.0391 21V12.209V11.5117C42.0391 10.4727 41.9844 9.70703 41.8887 9.22852C41.793 8.75 41.6289 8.33984 41.3965 7.98438C40.5762 6.6582 39.0586 5.98828 36.8574 5.98828C34.8203 5.98828 33.2891 6.79492 32.1543 8.49023V6.35742H29.8027V21H32.2637V12.6602C32.2637 9.80273 33.8633 8.17578 36.6113 8.17578C37.6914 8.17578 38.4434 8.44922 38.8945 8.99609C39.332 9.55664 39.5508 10.5547 39.5508 11.9902V21H42.0391ZM48.6289 8.3125H51.2676V6.35742H48.6289V2.26953H46.168V6.35742H43.9805V8.3125H46.168V18.1426C46.168 19.2773 46.4004 20.0703 46.8652 20.5215C47.3301 20.9727 48.1367 21.1914 49.2988 21.1914C49.8047 21.1914 50.4473 21.123 51.2676 20.9727V18.8809C50.6113 18.9355 50.2285 18.9492 49.9414 18.9492C49.4355 18.9492 49.0938 18.8398 48.916 18.6211C48.7246 18.4023 48.6289 17.9648 48.6289 17.3086V8.3125ZM66.5117 18.1973L62.4512 6.35742H59.7031L65.2539 21.834L64.6113 23.5703C64.2969 24.4043 63.7363 24.7734 62.793 24.7734C62.3145 24.7734 61.8496 24.7051 61.3574 24.5547V26.9062C61.8496 27.0566 62.3281 27.1387 62.8203 27.1387C63.9414 27.1387 64.8027 26.8926 65.3906 26.4004C65.9785 25.9082 66.5664 24.8691 67.1543 23.2695L73.3203 6.35742H70.5723L66.5117 18.1973ZM77.2578 13.6582C77.2578 10.0352 78.8574 8.06641 81.7695 8.06641C84.6543 8.06641 86.2266 10.0488 86.2266 13.6582C86.2266 17.2812 84.6543 19.2637 81.7695 19.2637C78.8711 19.2637 77.2578 17.2812 77.2578 13.6582ZM74.7422 13.6582C74.7422 16.1328 75.3574 18.0469 76.5879 19.4004C77.8184 20.7676 79.541 21.4512 81.7695 21.4512C83.9844 21.4512 85.707 20.7676 86.9375 19.4004C88.1543 18.0332 88.7695 16.1191 88.7695 13.6582C88.7695 11.1973 88.1543 9.2832 86.9238 7.91602C85.6934 6.5625 83.9707 5.87891 81.7422 5.87891C79.5273 5.87891 77.8047 6.5625 76.5879 7.92969C75.3574 9.29688 74.7422 11.2109 74.7422 13.6582ZM91.709 6.35742V15.1484V15.8457C91.709 16.8848 91.7637 17.6367 91.8594 18.1152C91.9551 18.5938 92.1191 19.0176 92.3516 19.373C93.1582 20.6445 94.7168 21.3691 96.7539 21.3691C98.9414 21.3691 100.568 20.5078 101.594 18.8125V21H103.945V6.35742H101.484V14.2461C101.484 17.4863 100.008 19.1816 97.1641 19.1816C96.084 19.1816 95.332 18.8945 94.8809 18.334C94.4297 17.7734 94.1973 16.7754 94.1973 15.3398V6.35742H91.709ZM110.166 21V12.8516C110.166 10.1172 111.574 8.6543 114.199 8.6543C114.527 8.6543 114.664 8.66797 114.787 8.68164V6.08398C114.623 6.04297 114.514 6.04297 114.145 6.04297C112.189 6.04297 110.863 7.01367 110.084 8.98242V6.35742H107.705V21H110.166ZM124.043 14.3691C124.248 18.9766 127.064 21.5332 131.945 21.5332C134.311 21.5332 136.197 20.959 137.592 19.8105C138.973 18.6621 139.67 17.1172 139.67 15.1758C139.67 13.5762 139.096 12.25 138.016 11.334C137.305 10.7324 135.869 10.1719 133.695 9.65234L133.408 9.58398C133.148 9.51562 132.766 9.43359 132.273 9.31055C128.951 8.54492 127.297 7.38281 127.297 5.82422C127.297 4.85352 127.693 4.06055 128.5 3.47266C129.307 2.88477 130.373 2.59766 131.713 2.59766C134.57 2.59766 136.293 4.08789 136.471 6.78125L139.082 6.76758C139.068 4.77148 138.412 3.19922 137.141 2.05078C135.869 0.916016 134.119 0.341797 131.891 0.341797C129.717 0.341797 127.967 0.888672 126.654 1.96875C125.342 3.0625 124.686 4.51172 124.686 6.30273C124.686 7.76562 125.123 8.90039 126.012 9.69336C126.887 10.5 128.691 11.2246 131.426 11.8672C131.535 11.8945 131.686 11.9355 131.891 11.9766C135.268 12.7832 136.949 13.9453 136.949 15.4902C136.949 16.625 136.498 17.5137 135.609 18.1699C134.707 18.8262 133.477 19.1543 131.918 19.1543C130.346 19.1543 129.088 18.7168 128.145 17.8555C127.201 16.9941 126.709 15.832 126.682 14.3691H124.043ZM145.672 8.3125H148.311V6.35742H145.672V2.26953H143.211V6.35742H141.023V8.3125H143.211V18.1426C143.211 19.2773 143.443 20.0703 143.908 20.5215C144.373 20.9727 145.18 21.1914 146.342 21.1914C146.848 21.1914 147.49 21.123 148.311 20.9727V18.8809C147.654 18.9355 147.271 18.9492 146.984 18.9492C146.479 18.9492 146.137 18.8398 145.959 18.6211C145.768 18.4023 145.672 17.9648 145.672 17.3086V8.3125ZM152.535 12.3457C152.768 9.55664 154.203 8.06641 156.623 8.06641C159.139 8.06641 160.561 9.61133 160.574 12.3457H152.535ZM160.52 16.2695C160.137 18.1699 158.783 19.2363 156.773 19.2363C154.148 19.2363 152.604 17.4727 152.549 14.3965H163.117C163.158 14.123 163.158 13.9043 163.158 13.3027C163.158 10.9375 162.584 9.11914 161.436 7.82031C160.273 6.52148 158.646 5.87891 156.541 5.87891C154.49 5.87891 152.877 6.57617 151.715 7.98438C150.553 9.39258 149.965 11.334 149.965 13.8359C149.965 16.2012 150.553 18.0605 151.729 19.4277C152.904 20.7949 154.504 21.4785 156.541 21.4785C158.277 21.4785 159.713 21.0137 160.848 20.084C161.982 19.1543 162.693 17.8828 162.953 16.2695H160.52ZM168.504 21V0.861328H166.002V21H168.504ZM174.848 21V0.861328H172.346V21H174.848ZM187.713 19.127C187.713 20.5625 188.533 21.2734 190.174 21.2734C190.57 21.2734 190.994 21.2188 191.596 21.0547V19.1543C191.309 19.209 191.104 19.2363 190.953 19.2363C190.598 19.2363 190.352 19.1406 190.215 18.9629C190.078 18.7852 190.01 18.375 190.01 17.7461V10.418C190.01 7.30078 188.219 5.87891 184.295 5.87891C182.477 5.87891 181.041 6.30273 180.002 7.16406C178.963 8.02539 178.443 9.1875 178.443 10.6641V10.7734H180.768C180.768 8.98242 181.93 8.06641 184.213 8.06641C186.414 8.06641 187.508 8.81836 187.508 10.3086C187.508 10.8965 187.467 11.2793 187.371 11.457C187.275 11.6348 187.098 11.7852 186.811 11.8945C186.523 12.0176 185.758 12.1406 184.514 12.2637C183.789 12.3457 183.201 12.4141 182.777 12.4551C179.4 12.8926 177.773 14.3828 177.773 17.0488C177.773 18.4297 178.197 19.4961 179.031 20.2754C179.865 21.0684 181.041 21.4512 182.531 21.4512C184.459 21.4512 186.182 20.6445 187.713 19.0449V19.127ZM187.48 15.7363C187.48 16.7754 187.057 17.623 186.209 18.293C185.361 18.9629 184.281 19.291 182.955 19.291C181.26 19.291 180.316 18.4844 180.316 17.0215C180.316 15.5586 181.041 14.8477 182.832 14.5605C183.119 14.5195 183.543 14.4512 184.104 14.3828C185.703 14.1777 186.824 13.9043 187.48 13.5488V15.7363ZM196.326 21V12.8516C196.326 10.1172 197.734 8.6543 200.359 8.6543C200.688 8.6543 200.824 8.66797 200.947 8.68164V6.08398C200.783 6.04297 200.674 6.04297 200.305 6.04297C198.35 6.04297 197.023 7.01367 196.244 8.98242V6.35742H193.865V21H196.326ZM213.088 10.9512C213.088 8.36719 213.689 6.34375 214.879 4.89453C216.068 3.44531 217.709 2.7207 219.814 2.7207C221.906 2.7207 223.547 3.44531 224.736 4.89453C225.912 6.34375 226.5 8.36719 226.5 10.9512C226.5 13.5352 225.912 15.5449 224.736 16.9941C223.547 18.457 221.906 19.1816 219.814 19.1816C217.709 19.1816 216.068 18.457 214.879 16.9941C213.689 15.5449 213.088 13.5352 213.088 10.9512ZM210.258 10.9512C210.258 14.2734 211.105 16.8711 212.801 18.7441C214.482 20.6172 216.82 21.5605 219.814 21.5605C222.795 21.5605 225.133 20.6172 226.814 18.7441C228.496 16.8711 229.33 14.2734 229.33 10.9512C229.33 7.61523 228.496 5.01758 226.814 3.14453C225.133 1.27148 222.795 0.341797 219.814 0.341797C216.82 0.341797 214.482 1.27148 212.801 3.14453C211.105 5.01758 210.258 7.62891 210.258 10.9512ZM243.002 13.5762C243.002 17.2266 241.416 19.2637 238.668 19.2637C237.314 19.2637 236.248 18.7852 235.469 17.8281C234.689 16.8711 234.293 15.5586 234.293 13.8906C234.293 10.1855 235.865 8.09375 238.641 8.09375C241.525 8.09375 243.002 9.95312 243.002 13.5762ZM242.92 0.861328V8.14844C241.771 6.63086 240.199 5.87891 238.162 5.87891C236.221 5.87891 234.662 6.58984 233.5 7.99805C232.338 9.41992 231.75 11.334 231.75 13.7266C231.75 16.0781 232.338 17.9512 233.5 19.3457C234.662 20.7539 236.207 21.4512 238.162 21.4512C240.076 21.4512 241.662 20.6855 242.92 19.1543V21H245.299V0.861328H242.92ZM254.363 18.1973L250.303 6.35742H247.555L253.105 21.834L252.463 23.5703C252.148 24.4043 251.588 24.7734 250.645 24.7734C250.166 24.7734 249.701 24.7051 249.209 24.5547V26.9062C249.701 27.0566 250.18 27.1387 250.672 27.1387C251.793 27.1387 252.654 26.8926 253.242 26.4004C253.83 25.9082 254.418 24.8691 255.006 23.2695L261.172 6.35742H258.424L254.363 18.1973ZM262.334 16.2422C262.389 19.6191 264.453 21.4512 268.213 21.4512C270.141 21.4512 271.631 21.0273 272.711 20.1797C273.777 19.3457 274.311 18.1562 274.311 16.6387C274.311 15.4766 273.996 14.5879 273.354 13.959C272.711 13.3438 271.549 12.8242 269.854 12.4277L267.475 11.8672C266.586 11.6621 265.984 11.4297 265.67 11.1562C265.342 10.8965 265.178 10.5273 265.178 10.0488C265.178 8.72266 266.23 8.01172 268.213 8.01172C270.195 8.01172 271.412 8.90039 271.521 10.4453H273.914V10.3906C273.914 9.02344 273.395 7.92969 272.369 7.12305C271.344 6.31641 269.949 5.90625 268.213 5.90625C266.504 5.90625 265.164 6.28906 264.193 7.04102C263.209 7.80664 262.717 8.83203 262.717 10.1309C262.717 11.2656 263.018 12.1406 263.633 12.7559C264.234 13.3711 265.314 13.877 266.859 14.2461L269.607 14.957C270.496 15.1621 271.084 15.4082 271.398 15.6953C271.699 15.9824 271.85 16.4062 271.85 16.9395C271.85 18.375 270.551 19.2637 268.432 19.2637C266.135 19.2637 264.877 18.2246 264.699 16.2422H262.334ZM276.225 16.2422C276.279 19.6191 278.344 21.4512 282.104 21.4512C284.031 21.4512 285.521 21.0273 286.602 20.1797C287.668 19.3457 288.201 18.1562 288.201 16.6387C288.201 15.4766 287.887 14.5879 287.244 13.959C286.602 13.3438 285.439 12.8242 283.744 12.4277L281.365 11.8672C280.477 11.6621 279.875 11.4297 279.561 11.1562C279.232 10.8965 279.068 10.5273 279.068 10.0488C279.068 8.72266 280.121 8.01172 282.104 8.01172C284.086 8.01172 285.303 8.90039 285.412 10.4453H287.805V10.3906C287.805 9.02344 287.285 7.92969 286.26 7.12305C285.234 6.31641 283.84 5.90625 282.104 5.90625C280.395 5.90625 279.055 6.28906 278.084 7.04102C277.1 7.80664 276.607 8.83203 276.607 10.1309C276.607 11.2656 276.908 12.1406 277.523 12.7559C278.125 13.3711 279.205 13.877 280.75 14.2461L283.498 14.957C284.387 15.1621 284.975 15.4082 285.289 15.6953C285.59 15.9824 285.74 16.4062 285.74 16.9395C285.74 18.375 284.441 19.2637 282.322 19.2637C280.025 19.2637 278.768 18.2246 278.59 16.2422H276.225ZM293 12.3457C293.232 9.55664 294.668 8.06641 297.088 8.06641C299.604 8.06641 301.025 9.61133 301.039 12.3457H293ZM300.984 16.2695C300.602 18.1699 299.248 19.2363 297.238 19.2363C294.613 19.2363 293.068 17.4727 293.014 14.3965H303.582C303.623 14.123 303.623 13.9043 303.623 13.3027C303.623 10.9375 303.049 9.11914 301.9 7.82031C300.738 6.52148 299.111 5.87891 297.006 5.87891C294.955 5.87891 293.342 6.57617 292.18 7.98438C291.018 9.39258 290.43 11.334 290.43 13.8359C290.43 16.2012 291.018 18.0605 292.193 19.4277C293.369 20.7949 294.969 21.4785 297.006 21.4785C298.742 21.4785 300.178 21.0137 301.312 20.084C302.447 19.1543 303.158 17.8828 303.418 16.2695H300.984ZM311.648 18.1973L307.588 6.35742H304.84L310.391 21.834L309.748 23.5703C309.434 24.4043 308.873 24.7734 307.93 24.7734C307.451 24.7734 306.986 24.7051 306.494 24.5547V26.9062C306.986 27.0566 307.465 27.1387 307.957 27.1387C309.078 27.1387 309.939 26.8926 310.527 26.4004C311.115 25.9082 311.703 24.8691 312.291 23.2695L318.457 6.35742H315.709L311.648 18.1973ZM331.172 21V4.67578C331.391 5.22266 331.637 5.71484 331.924 6.16602L341.535 21H344.502V0.861328H341.891V17.1855C341.713 16.6934 341.398 16.1328 340.975 15.4902L331.568 0.861328H328.574V21H331.172ZM351.543 21V11.8945H360.963V9.43359H351.543V3.39062H362.33V0.861328H348.809V21H351.543ZM372.324 21V3.30859H378.682V0.861328H363.219V3.30859H369.576V21H372.324ZM388.047 26.7969C385.463 22.3809 384.205 18.1289 384.205 13.7539C384.205 9.36523 385.463 5.11328 388.047 0.697266H386.283C383.166 4.86719 381.717 9.05078 381.717 13.7539C381.717 18.4434 383.166 22.627 386.283 26.7969H388.047ZM404.617 13.5215C404.549 15.2031 403.988 16.5566 402.936 17.582C401.883 18.6074 400.529 19.127 398.875 19.127C396.947 19.127 395.389 18.3887 394.227 16.8984C393.051 15.4082 392.463 13.4395 392.463 10.9785C392.463 8.36719 393.023 6.35742 394.158 4.92188C395.279 3.48633 396.865 2.77539 398.902 2.77539C401.965 2.77539 403.947 4.25195 404.453 6.91797H407.133C406.9 4.88086 406.066 3.28125 404.617 2.10547C403.154 0.929688 401.295 0.341797 399.012 0.341797C396.154 0.341797 393.871 1.27148 392.189 3.11719C390.508 4.97656 389.66 7.47852 389.66 10.6367C389.66 14.0547 390.467 16.7344 392.08 18.6621C393.68 20.5898 395.908 21.5605 398.738 21.5605C401.199 21.5605 403.209 20.8359 404.768 19.373C406.312 17.9238 407.146 15.9688 407.27 13.5215H404.617ZM412.67 21V12.8516C412.67 10.1172 414.078 8.6543 416.703 8.6543C417.031 8.6543 417.168 8.66797 417.291 8.68164V6.08398C417.127 6.04297 417.018 6.04297 416.648 6.04297C414.693 6.04297 413.367 7.01367 412.588 8.98242V6.35742H410.209V21H412.67ZM419.451 6.35742V15.1484V15.8457C419.451 16.8848 419.506 17.6367 419.602 18.1152C419.697 18.5938 419.861 19.0176 420.094 19.373C420.9 20.6445 422.459 21.3691 424.496 21.3691C426.684 21.3691 428.311 20.5078 429.336 18.8125V21H431.688V6.35742H429.227V14.2461C429.227 17.4863 427.75 19.1816 424.906 19.1816C423.826 19.1816 423.074 18.8945 422.623 18.334C422.172 17.7734 421.939 16.7754 421.939 15.3398V6.35742H419.451ZM436.459 21L440.178 15.3398L444.02 21H446.986L441.75 13.4395L446.672 6.35742H443.828L440.301 11.6211L436.705 6.35742H433.82L438.674 13.4668L433.574 21H436.459ZM449.105 26.7969C452.182 22.6406 453.631 18.4707 453.631 13.7539C453.631 9.00977 452.182 4.85352 449.105 0.697266H447.342C449.912 5.11328 451.17 9.36523 451.17 13.7539C451.17 18.1289 449.912 22.3809 447.342 26.7969H449.105ZM468.848 8.3125H471.486V6.35742H468.848V2.26953H466.387V6.35742H464.199V8.3125H466.387V18.1426C466.387 19.2773 466.619 20.0703 467.084 20.5215C467.549 20.9727 468.355 21.1914 469.518 21.1914C470.023 21.1914 470.666 21.123 471.486 20.9727V18.8809C470.83 18.9355 470.447 18.9492 470.16 18.9492C469.654 18.9492 469.312 18.8398 469.135 18.6211C468.943 18.4023 468.848 17.9648 468.848 17.3086V8.3125ZM475.602 13.6582C475.602 10.0352 477.201 8.06641 480.113 8.06641C482.998 8.06641 484.57 10.0488 484.57 13.6582C484.57 17.2812 482.998 19.2637 480.113 19.2637C477.215 19.2637 475.602 17.2812 475.602 13.6582ZM473.086 13.6582C473.086 16.1328 473.701 18.0469 474.932 19.4004C476.162 20.7676 477.885 21.4512 480.113 21.4512C482.328 21.4512 484.051 20.7676 485.281 19.4004C486.498 18.0332 487.113 16.1191 487.113 13.6582C487.113 11.1973 486.498 9.2832 485.268 7.91602C484.037 6.5625 482.314 5.87891 480.086 5.87891C477.871 5.87891 476.148 6.5625 474.932 7.92969C473.701 9.29688 473.086 11.2109 473.086 13.6582ZM500.676 8.3125H503.314V6.35742H500.676V2.26953H498.215V6.35742H496.027V8.3125H498.215V18.1426C498.215 19.2773 498.447 20.0703 498.912 20.5215C499.377 20.9727 500.184 21.1914 501.346 21.1914C501.852 21.1914 502.494 21.123 503.314 20.9727V18.8809C502.658 18.9355 502.275 18.9492 501.988 18.9492C501.482 18.9492 501.141 18.8398 500.963 18.6211C500.771 18.4023 500.676 17.9648 500.676 17.3086V8.3125ZM517.902 21V12.209V11.5117C517.902 10.4727 517.848 9.70703 517.752 9.22852C517.656 8.75 517.492 8.33984 517.26 7.98438C516.439 6.6582 514.922 5.98828 512.721 5.98828C510.629 5.98828 509.016 6.83594 508.127 8.42188V0.861328H505.666V21H508.127V12.3457C508.127 11.0742 508.523 10.0488 509.303 9.29688C510.082 8.54492 511.148 8.17578 512.475 8.17578C513.555 8.17578 514.307 8.44922 514.758 8.99609C515.195 9.54297 515.414 10.541 515.414 11.9902V21H517.902ZM523.48 12.3457C523.713 9.55664 525.148 8.06641 527.568 8.06641C530.084 8.06641 531.506 9.61133 531.52 12.3457H523.48ZM531.465 16.2695C531.082 18.1699 529.729 19.2363 527.719 19.2363C525.094 19.2363 523.549 17.4727 523.494 14.3965H534.062C534.104 14.123 534.104 13.9043 534.104 13.3027C534.104 10.9375 533.529 9.11914 532.381 7.82031C531.219 6.52148 529.592 5.87891 527.486 5.87891C525.436 5.87891 523.822 6.57617 522.66 7.98438C521.498 9.39258 520.91 11.334 520.91 13.8359C520.91 16.2012 521.498 18.0605 522.674 19.4277C523.85 20.7949 525.449 21.4785 527.486 21.4785C529.223 21.4785 530.658 21.0137 531.793 20.084C532.928 19.1543 533.639 17.8828 533.898 16.2695H531.465ZM549.785 21L552.889 9.7207L555.979 21H558.467L562.924 6.35742H560.395L557.182 17.5547L554.324 6.35742H551.467L548.582 17.5547L545.479 6.35742H542.922L547.297 21H549.785ZM574.053 19.127C574.053 20.5625 574.873 21.2734 576.514 21.2734C576.91 21.2734 577.334 21.2188 577.936 21.0547V19.1543C577.648 19.209 577.443 19.2363 577.293 19.2363C576.938 19.2363 576.691 19.1406 576.555 18.9629C576.418 18.7852 576.35 18.375 576.35 17.7461V10.418C576.35 7.30078 574.559 5.87891 570.635 5.87891C568.816 5.87891 567.381 6.30273 566.342 7.16406C565.303 8.02539 564.783 9.1875 564.783 10.6641V10.7734H567.107C567.107 8.98242 568.27 8.06641 570.553 8.06641C572.754 8.06641 573.848 8.81836 573.848 10.3086C573.848 10.8965 573.807 11.2793 573.711 11.457C573.615 11.6348 573.438 11.7852 573.15 11.8945C572.863 12.0176 572.098 12.1406 570.854 12.2637C570.129 12.3457 569.541 12.4141 569.117 12.4551C565.74 12.8926 564.113 14.3828 564.113 17.0488C564.113 18.4297 564.537 19.4961 565.371 20.2754C566.205 21.0684 567.381 21.4512 568.871 21.4512C570.799 21.4512 572.521 20.6445 574.053 19.0449V19.127ZM573.82 15.7363C573.82 16.7754 573.396 17.623 572.549 18.293C571.701 18.9629 570.621 19.291 569.295 19.291C567.6 19.291 566.656 18.4844 566.656 17.0215C566.656 15.5586 567.381 14.8477 569.172 14.5605C569.459 14.5195 569.883 14.4512 570.443 14.3828C572.043 14.1777 573.164 13.9043 573.82 13.5488V15.7363ZM582.734 21V0.861328H580.232V21H582.734ZM589.078 21V0.861328H586.576V21H589.078ZM594.766 12.3457C594.998 9.55664 596.434 8.06641 598.854 8.06641C601.369 8.06641 602.791 9.61133 602.805 12.3457H594.766ZM602.75 16.2695C602.367 18.1699 601.014 19.2363 599.004 19.2363C596.379 19.2363 594.834 17.4727 594.779 14.3965H605.348C605.389 14.123 605.389 13.9043 605.389 13.3027C605.389 10.9375 604.814 9.11914 603.666 7.82031C602.504 6.52148 600.877 5.87891 598.771 5.87891C596.721 5.87891 595.107 6.57617 593.945 7.98438C592.783 9.39258 592.195 11.334 592.195 13.8359C592.195 16.2012 592.783 18.0605 593.959 19.4277C595.135 20.7949 596.734 21.4785 598.771 21.4785C600.508 21.4785 601.943 21.0137 603.078 20.084C604.213 19.1543 604.924 17.8828 605.184 16.2695H602.75ZM611.09 8.3125H613.729V6.35742H611.09V2.26953H608.629V6.35742H606.441V8.3125H608.629V18.1426C608.629 19.2773 608.861 20.0703 609.326 20.5215C609.791 20.9727 610.598 21.1914 611.76 21.1914C612.266 21.1914 612.908 21.123 613.729 20.9727V18.8809C613.072 18.9355 612.689 18.9492 612.402 18.9492C611.896 18.9492 611.555 18.8398 611.377 18.6211C611.186 18.4023 611.09 17.9648 611.09 17.3086V8.3125ZM628.973 18.1973L624.912 6.35742H622.164L627.715 21.834L627.072 23.5703C626.758 24.4043 626.197 24.7734 625.254 24.7734C624.775 24.7734 624.311 24.7051 623.818 24.5547V26.9062C624.311 27.0566 624.789 27.1387 625.281 27.1387C626.402 27.1387 627.264 26.8926 627.852 26.4004C628.439 25.9082 629.027 24.8691 629.615 23.2695L635.781 6.35742H633.033L628.973 18.1973ZM639.719 13.6582C639.719 10.0352 641.318 8.06641 644.23 8.06641C647.115 8.06641 648.688 10.0488 648.688 13.6582C648.688 17.2812 647.115 19.2637 644.23 19.2637C641.332 19.2637 639.719 17.2812 639.719 13.6582ZM637.203 13.6582C637.203 16.1328 637.818 18.0469 639.049 19.4004C640.279 20.7676 642.002 21.4512 644.23 21.4512C646.445 21.4512 648.168 20.7676 649.398 19.4004C650.615 18.0332 651.23 16.1191 651.23 13.6582C651.23 11.1973 650.615 9.2832 649.385 7.91602C648.154 6.5625 646.432 5.87891 644.203 5.87891C641.988 5.87891 640.266 6.5625 639.049 7.92969C637.818 9.29688 637.203 11.2109 637.203 13.6582ZM654.17 6.35742V15.1484V15.8457C654.17 16.8848 654.225 17.6367 654.32 18.1152C654.416 18.5938 654.58 19.0176 654.812 19.373C655.619 20.6445 657.178 21.3691 659.215 21.3691C661.402 21.3691 663.029 20.5078 664.055 18.8125V21H666.406V6.35742H663.945V14.2461C663.945 17.4863 662.469 19.1816 659.625 19.1816C658.545 19.1816 657.793 18.8945 657.342 18.334C656.891 17.7734 656.658 16.7754 656.658 15.3398V6.35742H654.17ZM676.838 16.2422C676.893 19.6191 678.957 21.4512 682.717 21.4512C684.645 21.4512 686.135 21.0273 687.215 20.1797C688.281 19.3457 688.814 18.1562 688.814 16.6387C688.814 15.4766 688.5 14.5879 687.857 13.959C687.215 13.3438 686.053 12.8242 684.357 12.4277L681.979 11.8672C681.09 11.6621 680.488 11.4297 680.174 11.1562C679.846 10.8965 679.682 10.5273 679.682 10.0488C679.682 8.72266 680.734 8.01172 682.717 8.01172C684.699 8.01172 685.916 8.90039 686.025 10.4453H688.418V10.3906C688.418 9.02344 687.898 7.92969 686.873 7.12305C685.848 6.31641 684.453 5.90625 682.717 5.90625C681.008 5.90625 679.668 6.28906 678.697 7.04102C677.713 7.80664 677.221 8.83203 677.221 10.1309C677.221 11.2656 677.521 12.1406 678.137 12.7559C678.738 13.3711 679.818 13.877 681.363 14.2461L684.111 14.957C685 15.1621 685.588 15.4082 685.902 15.6953C686.203 15.9824 686.354 16.4062 686.354 16.9395C686.354 18.375 685.055 19.2637 682.936 19.2637C680.639 19.2637 679.381 18.2246 679.203 16.2422H676.838ZM694.201 3.66406V0.861328H691.74V3.66406H694.201ZM694.201 21V6.35742H691.74V21H694.201ZM704.168 8.09375C707.08 8.09375 708.584 10.0215 708.584 13.7812C708.584 17.5 707.189 19.2637 704.195 19.2637C702.828 19.2637 701.762 18.7715 700.996 17.7871C700.23 16.8164 699.848 15.4492 699.848 13.6855C699.848 10.0898 701.393 8.09375 704.168 8.09375ZM708.502 21.2188C708.502 22.5723 708.16 23.5566 707.49 24.1445C706.807 24.7324 705.686 25.0332 704.141 25.0332C701.557 25.0332 700.271 24.2812 700.271 22.7637V22.709H697.865V22.8184C697.865 24.1582 698.412 25.2109 699.506 25.9629C700.6 26.7148 702.117 27.0977 704.059 27.0977C706.451 27.0977 708.188 26.5918 709.268 25.5938C710.348 24.582 710.881 22.9414 710.881 20.6855V6.35742H708.475V8.20312C707.217 6.57617 705.809 5.87891 703.881 5.87891C701.898 5.87891 700.299 6.58984 699.096 7.99805C697.879 9.41992 697.277 11.293 697.277 13.6309C697.277 15.9961 697.879 17.8828 699.082 19.3184C700.285 20.7539 701.871 21.4785 703.854 21.4785C705.822 21.4785 707.354 20.7266 708.502 19.209V21.2188ZM726.891 21V12.209V11.5117C726.891 10.4727 726.836 9.70703 726.74 9.22852C726.645 8.75 726.48 8.33984 726.248 7.98438C725.428 6.6582 723.91 5.98828 721.709 5.98828C719.672 5.98828 718.141 6.79492 717.006 8.49023V6.35742H714.654V21H717.115V12.6602C717.115 9.80273 718.715 8.17578 721.463 8.17578C722.543 8.17578 723.295 8.44922 723.746 8.99609C724.184 9.55664 724.402 10.5547 724.402 11.9902V21H726.891ZM732.469 12.3457C732.701 9.55664 734.137 8.06641 736.557 8.06641C739.072 8.06641 740.494 9.61133 740.508 12.3457H732.469ZM740.453 16.2695C740.07 18.1699 738.717 19.2363 736.707 19.2363C734.082 19.2363 732.537 17.4727 732.482 14.3965H743.051C743.092 14.123 743.092 13.9043 743.092 13.3027C743.092 10.9375 742.518 9.11914 741.369 7.82031C740.207 6.52148 738.58 5.87891 736.475 5.87891C734.424 5.87891 732.811 6.57617 731.648 7.98438C730.486 9.39258 729.898 11.334 729.898 13.8359C729.898 16.2012 730.486 18.0605 731.662 19.4277C732.838 20.7949 734.438 21.4785 736.475 21.4785C738.211 21.4785 739.646 21.0137 740.781 20.084C741.916 19.1543 742.627 17.8828 742.887 16.2695H740.453ZM756.408 13.5762C756.408 17.2266 754.822 19.2637 752.074 19.2637C750.721 19.2637 749.654 18.7852 748.875 17.8281C748.096 16.8711 747.699 15.5586 747.699 13.8906C747.699 10.1855 749.271 8.09375 752.047 8.09375C754.932 8.09375 756.408 9.95312 756.408 13.5762ZM756.326 0.861328V8.14844C755.178 6.63086 753.605 5.87891 751.568 5.87891C749.627 5.87891 748.068 6.58984 746.906 7.99805C745.744 9.41992 745.156 11.334 745.156 13.7266C745.156 16.0781 745.744 17.9512 746.906 19.3457C748.068 20.7539 749.613 21.4512 751.568 21.4512C753.482 21.4512 755.068 20.6855 756.326 19.1543V21H758.705V0.861328H756.326ZM772.705 3.66406V0.861328H770.244V3.66406H772.705ZM772.705 21V6.35742H770.244V21H772.705ZM788.715 21V12.209V11.5117C788.715 10.4727 788.66 9.70703 788.564 9.22852C788.469 8.75 788.305 8.33984 788.072 7.98438C787.252 6.6582 785.734 5.98828 783.533 5.98828C781.496 5.98828 779.965 6.79492 778.83 8.49023V6.35742H776.479V21H778.939V12.6602C778.939 9.80273 780.539 8.17578 783.287 8.17578C784.367 8.17578 785.119 8.44922 785.57 8.99609C786.008 9.55664 786.227 10.5547 786.227 11.9902V21H788.715ZM229.672 55L232.775 43.7207L235.865 55H238.354L242.811 40.3574H240.281L237.068 51.5547L234.211 40.3574H231.354L228.469 51.5547L225.365 40.3574H222.809L227.184 55H229.672ZM247.35 37.6641V34.8613H244.889V37.6641H247.35ZM247.35 55V40.3574H244.889V55H247.35ZM254.008 42.3125H256.646V40.3574H254.008V36.2695H251.547V40.3574H249.359V42.3125H251.547V52.1426C251.547 53.2773 251.779 54.0703 252.244 54.5215C252.709 54.9727 253.516 55.1914 254.678 55.1914C255.184 55.1914 255.826 55.123 256.646 54.9727V52.8809C255.99 52.9355 255.607 52.9492 255.32 52.9492C254.814 52.9492 254.473 52.8398 254.295 52.6211C254.104 52.4023 254.008 51.9648 254.008 51.3086V42.3125ZM271.234 55V46.209V45.5117C271.234 44.4727 271.18 43.707 271.084 43.2285C270.988 42.75 270.824 42.3398 270.592 41.9844C269.771 40.6582 268.254 39.9883 266.053 39.9883C263.961 39.9883 262.348 40.8359 261.459 42.4219V34.8613H258.998V55H261.459V46.3457C261.459 45.0742 261.855 44.0488 262.635 43.2969C263.414 42.5449 264.48 42.1758 265.807 42.1758C266.887 42.1758 267.639 42.4492 268.09 42.9961C268.527 43.543 268.746 44.541 268.746 45.9902V55H271.234ZM285.084 37.6641V34.8613H282.623V37.6641H285.084ZM285.084 55V40.3574H282.623V55H285.084ZM301.094 55V46.209V45.5117C301.094 44.4727 301.039 43.707 300.943 43.2285C300.848 42.75 300.684 42.3398 300.451 41.9844C299.631 40.6582 298.113 39.9883 295.912 39.9883C293.875 39.9883 292.344 40.7949 291.209 42.4902V40.3574H288.857V55H291.318V46.6602C291.318 43.8027 292.918 42.1758 295.666 42.1758C296.746 42.1758 297.498 42.4492 297.949 42.9961C298.387 43.5566 298.605 44.5547 298.605 45.9902V55H301.094ZM311.471 50.2422C311.525 53.6191 313.59 55.4512 317.35 55.4512C319.277 55.4512 320.768 55.0273 321.848 54.1797C322.914 53.3457 323.447 52.1562 323.447 50.6387C323.447 49.4766 323.133 48.5879 322.49 47.959C321.848 47.3438 320.686 46.8242 318.99 46.4277L316.611 45.8672C315.723 45.6621 315.121 45.4297 314.807 45.1562C314.479 44.8965 314.314 44.5273 314.314 44.0488C314.314 42.7227 315.367 42.0117 317.35 42.0117C319.332 42.0117 320.549 42.9004 320.658 44.4453H323.051V44.3906C323.051 43.0234 322.531 41.9297 321.506 41.123C320.48 40.3164 319.086 39.9062 317.35 39.9062C315.641 39.9062 314.301 40.2891 313.33 41.041C312.346 41.8066 311.854 42.832 311.854 44.1309C311.854 45.2656 312.154 46.1406 312.77 46.7559C313.371 47.3711 314.451 47.877 315.996 48.2461L318.744 48.957C319.633 49.1621 320.221 49.4082 320.535 49.6953C320.836 49.9824 320.986 50.4062 320.986 50.9395C320.986 52.375 319.688 53.2637 317.568 53.2637C315.271 53.2637 314.014 52.2246 313.836 50.2422H311.471ZM329.258 42.3125H331.896V40.3574H329.258V36.2695H326.797V40.3574H324.609V42.3125H326.797V52.1426C326.797 53.2773 327.029 54.0703 327.494 54.5215C327.959 54.9727 328.766 55.1914 329.928 55.1914C330.434 55.1914 331.076 55.123 331.896 54.9727V52.8809C331.24 52.9355 330.857 52.9492 330.57 52.9492C330.064 52.9492 329.723 52.8398 329.545 52.6211C329.354 52.4023 329.258 51.9648 329.258 51.3086V42.3125ZM336.121 46.3457C336.354 43.5566 337.789 42.0664 340.209 42.0664C342.725 42.0664 344.146 43.6113 344.16 46.3457H336.121ZM344.105 50.2695C343.723 52.1699 342.369 53.2363 340.359 53.2363C337.734 53.2363 336.189 51.4727 336.135 48.3965H346.703C346.744 48.123 346.744 47.9043 346.744 47.3027C346.744 44.9375 346.17 43.1191 345.021 41.8203C343.859 40.5215 342.232 39.8789 340.127 39.8789C338.076 39.8789 336.463 40.5762 335.301 41.9844C334.139 43.3926 333.551 45.334 333.551 47.8359C333.551 50.2012 334.139 52.0605 335.314 53.4277C336.49 54.7949 338.09 55.4785 340.127 55.4785C341.863 55.4785 343.299 55.0137 344.434 54.084C345.568 53.1543 346.279 51.8828 346.539 50.2695H344.105ZM351.939 47.7812C351.939 44.1309 353.484 42.0938 356.26 42.0938C357.613 42.0938 358.68 42.5723 359.459 43.5293C360.238 44.4863 360.621 45.7988 360.621 47.4668C360.621 51.1719 359.062 53.2637 356.287 53.2637C353.389 53.2637 351.939 51.4316 351.939 47.7812ZM352.021 60.8516V53.209C353.17 54.7266 354.701 55.4512 356.766 55.4512C358.707 55.4512 360.266 54.7402 361.441 53.332C362.617 51.9238 363.205 50.0234 363.205 47.6309C363.205 45.2656 362.631 43.3926 361.469 41.9844C360.307 40.5762 358.748 39.8789 356.793 39.8789C354.701 39.8789 353.238 40.6719 352.021 42.4219V40.3574H349.615V60.8516H352.021ZM381.744 55V35.4219H379.83C379.543 37.9922 377.943 39.1406 374.662 39.1816V41.1641H379.188V55H381.744ZM398.711 47.6582C398.711 44.0352 400.311 42.0664 403.223 42.0664C406.107 42.0664 407.68 44.0488 407.68 47.6582C407.68 51.2812 406.107 53.2637 403.223 53.2637C400.324 53.2637 398.711 51.2812 398.711 47.6582ZM396.195 47.6582C396.195 50.1328 396.811 52.0469 398.041 53.4004C399.271 54.7676 400.994 55.4512 403.223 55.4512C405.438 55.4512 407.16 54.7676 408.391 53.4004C409.607 52.0332 410.223 50.1191 410.223 47.6582C410.223 45.1973 409.607 43.2832 408.377 41.916C407.146 40.5625 405.424 39.8789 403.195 39.8789C400.98 39.8789 399.258 40.5625 398.041 41.9297C396.811 43.2969 396.195 45.2109 396.195 47.6582ZM425.453 55V46.209V45.5117C425.453 44.4727 425.398 43.707 425.303 43.2285C425.207 42.75 425.043 42.3398 424.811 41.9844C423.99 40.6582 422.473 39.9883 420.271 39.9883C418.234 39.9883 416.703 40.7949 415.568 42.4902V40.3574H413.217V55H415.678V46.6602C415.678 43.8027 417.277 42.1758 420.025 42.1758C421.105 42.1758 421.857 42.4492 422.309 42.9961C422.746 43.5566 422.965 44.5547 422.965 45.9902V55H425.453ZM436.199 48.3691C436.404 52.9766 439.221 55.5332 444.102 55.5332C446.467 55.5332 448.354 54.959 449.748 53.8105C451.129 52.6621 451.826 51.1172 451.826 49.1758C451.826 47.5762 451.252 46.25 450.172 45.334C449.461 44.7324 448.025 44.1719 445.852 43.6523L445.564 43.584C445.305 43.5156 444.922 43.4336 444.43 43.3105C441.107 42.5449 439.453 41.3828 439.453 39.8242C439.453 38.8535 439.85 38.0605 440.656 37.4727C441.463 36.8848 442.529 36.5977 443.869 36.5977C446.727 36.5977 448.449 38.0879 448.627 40.7812L451.238 40.7676C451.225 38.7715 450.568 37.1992 449.297 36.0508C448.025 34.916 446.275 34.3418 444.047 34.3418C441.873 34.3418 440.123 34.8887 438.811 35.9688C437.498 37.0625 436.842 38.5117 436.842 40.3027C436.842 41.7656 437.279 42.9004 438.168 43.6934C439.043 44.5 440.848 45.2246 443.582 45.8672C443.691 45.8945 443.842 45.9355 444.047 45.9766C447.424 46.7832 449.105 47.9453 449.105 49.4902C449.105 50.625 448.654 51.5137 447.766 52.1699C446.863 52.8262 445.633 53.1543 444.074 53.1543C442.502 53.1543 441.244 52.7168 440.301 51.8555C439.357 50.9941 438.865 49.832 438.838 48.3691H436.199ZM457.828 42.3125H460.467V40.3574H457.828V36.2695H455.367V40.3574H453.18V42.3125H455.367V52.1426C455.367 53.2773 455.6 54.0703 456.064 54.5215C456.529 54.9727 457.336 55.1914 458.498 55.1914C459.004 55.1914 459.646 55.123 460.467 54.9727V52.8809C459.811 52.9355 459.428 52.9492 459.141 52.9492C458.635 52.9492 458.293 52.8398 458.115 52.6211C457.924 52.4023 457.828 51.9648 457.828 51.3086V42.3125ZM471.869 53.127C471.869 54.5625 472.689 55.2734 474.33 55.2734C474.727 55.2734 475.15 55.2188 475.752 55.0547V53.1543C475.465 53.209 475.26 53.2363 475.109 53.2363C474.754 53.2363 474.508 53.1406 474.371 52.9629C474.234 52.7852 474.166 52.375 474.166 51.7461V44.418C474.166 41.3008 472.375 39.8789 468.451 39.8789C466.633 39.8789 465.197 40.3027 464.158 41.1641C463.119 42.0254 462.6 43.1875 462.6 44.6641V44.7734H464.924C464.924 42.9824 466.086 42.0664 468.369 42.0664C470.57 42.0664 471.664 42.8184 471.664 44.3086C471.664 44.8965 471.623 45.2793 471.527 45.457C471.432 45.6348 471.254 45.7852 470.967 45.8945C470.68 46.0176 469.914 46.1406 468.67 46.2637C467.945 46.3457 467.357 46.4141 466.934 46.4551C463.557 46.8926 461.93 48.3828 461.93 51.0488C461.93 52.4297 462.354 53.4961 463.188 54.2754C464.021 55.0684 465.197 55.4512 466.688 55.4512C468.615 55.4512 470.338 54.6445 471.869 53.0449V53.127ZM471.637 49.7363C471.637 50.7754 471.213 51.623 470.365 52.293C469.518 52.9629 468.438 53.291 467.111 53.291C465.416 53.291 464.473 52.4844 464.473 51.0215C464.473 49.5586 465.197 48.8477 466.988 48.5605C467.275 48.5195 467.699 48.4512 468.26 48.3828C469.859 48.1777 470.98 47.9043 471.637 47.5488V49.7363ZM480.482 55V46.8516C480.482 44.1172 481.891 42.6543 484.516 42.6543C484.844 42.6543 484.98 42.668 485.104 42.6816V40.084C484.939 40.043 484.83 40.043 484.461 40.043C482.506 40.043 481.18 41.0137 480.4 42.9824V40.3574H478.021V55H480.482ZM489.779 55V49.9004L492.363 47.4121L496.643 55H499.418L494.018 45.7031L499.5 40.3574H496.396L489.779 46.9336V34.8613H487.318V55H489.779ZM504.668 55V38.6758C504.887 39.2227 505.133 39.7148 505.42 40.166L515.031 55H517.998V34.8613H515.387V51.1855C515.209 50.6934 514.895 50.1328 514.471 49.4902L505.064 34.8613H502.07V55H504.668ZM523.891 46.3457C524.123 43.5566 525.559 42.0664 527.979 42.0664C530.494 42.0664 531.916 43.6113 531.93 46.3457H523.891ZM531.875 50.2695C531.492 52.1699 530.139 53.2363 528.129 53.2363C525.504 53.2363 523.959 51.4727 523.904 48.3965H534.473C534.514 48.123 534.514 47.9043 534.514 47.3027C534.514 44.9375 533.939 43.1191 532.791 41.8203C531.629 40.5215 530.002 39.8789 527.896 39.8789C525.846 39.8789 524.232 40.5762 523.07 41.9844C521.908 43.3926 521.32 45.334 521.32 47.8359C521.32 50.2012 521.908 52.0605 523.084 53.4277C524.26 54.7949 525.859 55.4785 527.896 55.4785C529.633 55.4785 531.068 55.0137 532.203 54.084C533.338 53.1543 534.049 51.8828 534.309 50.2695H531.875ZM540.215 42.3125H542.854V40.3574H540.215V36.2695H537.754V40.3574H535.566V42.3125H537.754V52.1426C537.754 53.2773 537.986 54.0703 538.451 54.5215C538.916 54.9727 539.723 55.1914 540.885 55.1914C541.391 55.1914 542.033 55.123 542.854 54.9727V52.8809C542.197 52.9355 541.814 52.9492 541.527 52.9492C541.021 52.9492 540.68 52.8398 540.502 52.6211C540.311 52.4023 540.215 51.9648 540.215 51.3086V42.3125ZM548.568 55V51.9512H545.766V55H548.568Z" fill="white"/>
</svg>
