<svg width="1600" height="123" viewBox="0 0 1600 123" fill="none" xmlns="http://www.w3.org/2000/svg">
<path d="M145.186 123H6.05759V111.78H145.186C147.21 111.78 149.102 111.384 150.862 110.592C152.622 109.8 154.162 108.744 155.482 107.424C156.802 106.104 157.858 104.564 158.65 102.804C159.442 101.044 159.838 99.152 159.838 97.128C159.838 95.104 159.442 93.212 158.65 91.452C157.858 89.604 156.802 88.02 155.482 86.7C154.162 85.38 152.622 84.368 150.862 83.664C149.102 82.872 147.21 82.476 145.186 82.476H26.2536C22.7336 82.476 19.3896 81.816 16.2216 80.496C13.0536 79.088 10.2816 77.24 7.90559 74.952C5.61759 72.576 3.76959 69.804 2.36159 66.636C1.04159 63.468 0.381592 60.08 0.381592 56.472C0.381592 52.864 1.04159 49.52 2.36159 46.44C3.76959 43.272 5.61759 40.544 7.90559 38.256C10.2816 35.88 13.0536 34.032 16.2216 32.712C19.3896 31.304 22.7336 30.6 26.2536 30.6H165.382V41.82H26.2536C24.2296 41.82 22.3376 42.216 20.5776 43.008C18.8176 43.8 17.2776 44.856 15.9576 46.176C14.6376 47.496 13.5816 49.036 12.7896 50.796C11.9976 52.556 11.6016 54.448 11.6016 56.472C11.6016 58.496 11.9976 60.432 12.7896 62.28C13.5816 64.04 14.6376 65.58 15.9576 66.9C17.2776 68.22 18.8176 69.276 20.5776 70.068C22.3376 70.772 24.2296 71.124 26.2536 71.124H145.186C148.794 71.124 152.138 71.828 155.218 73.236C158.386 74.556 161.114 76.404 163.402 78.78C165.778 81.068 167.626 83.796 168.946 86.964C170.354 90.132 171.058 93.52 171.058 97.128C171.058 100.648 170.354 103.992 168.946 107.16C167.626 110.328 165.778 113.1 163.402 115.476C161.114 117.764 158.386 119.612 155.218 121.02C152.138 122.34 148.794 123 145.186 123Z" fill="white"/>
<path d="M379.771 123H255.295C249.399 123 243.811 121.988 238.531 119.964C233.339 117.852 228.719 114.992 224.671 111.384C220.623 107.688 217.235 103.376 214.507 98.448C211.867 93.52 210.195 88.24 209.491 82.608H197.479V71.388H209.095V4.72799H220.447V71.388H379.771V82.608H220.843C221.547 86.744 222.911 90.616 224.935 94.224C227.047 97.744 229.599 100.824 232.591 103.464C235.671 106.016 239.147 108.04 243.019 109.536C246.891 111.032 250.983 111.78 255.295 111.78H379.771V123Z" fill="white"/>
<path d="M571.574 98.052C569.55 101.836 567.086 105.268 564.182 108.348C561.278 111.428 558.022 114.068 554.414 116.268C550.894 118.468 547.11 120.14 543.062 121.284C539.014 122.428 534.834 123 530.522 123H452.378C446.042 123 440.058 121.812 434.426 119.436C428.794 116.972 423.866 113.672 419.642 109.536C415.506 105.312 412.206 100.384 409.742 94.752C407.366 89.12 406.178 83.136 406.178 76.8C406.178 70.464 407.366 64.48 409.742 58.848C412.206 53.216 415.506 48.332 419.642 44.196C423.866 39.972 428.794 36.672 434.426 34.296C440.058 31.832 446.042 30.6 452.378 30.6H530.522C536.858 30.6 542.842 31.832 548.474 34.296C554.107 36.672 558.99 39.972 563.126 44.196C567.35 48.332 570.651 53.216 573.026 58.848C575.49 64.48 576.722 70.464 576.722 76.8V82.476H442.214V71.124H564.974C564.358 66.988 562.994 63.16 560.882 59.64C558.858 56.032 556.306 52.908 553.226 50.268C550.146 47.628 546.67 45.56 542.798 44.064C538.926 42.568 534.834 41.82 530.522 41.82H452.378C447.538 41.82 443.006 42.744 438.782 44.592C434.558 46.44 430.862 48.948 427.694 52.116C424.526 55.284 422.018 58.98 420.17 63.204C418.322 67.428 417.398 71.96 417.398 76.8C417.398 81.64 418.322 86.172 420.17 90.396C422.018 94.62 424.526 98.316 427.694 101.484C430.862 104.652 434.558 107.16 438.782 109.008C443.006 110.856 447.538 111.78 452.378 111.78H530.522C536.066 111.78 541.214 110.592 545.966 108.216C550.806 105.752 554.898 102.364 558.242 98.052H571.574Z" fill="white"/>
<path d="M649.347 123C643.011 123 637.027 121.812 631.395 119.436C625.763 116.972 620.835 113.672 616.611 109.536C612.475 105.312 609.175 100.384 606.711 94.752C604.335 89.12 603.147 83.136 603.147 76.8V30.6H614.367V76.8C614.367 81.64 615.291 86.172 617.139 90.396C618.987 94.62 621.495 98.316 624.663 101.484C627.831 104.652 631.527 107.16 635.751 109.008C639.975 110.856 644.507 111.78 649.347 111.78H773.823V123H649.347Z" fill="white"/>
<path d="M846.445 123C840.109 123 834.125 121.812 828.493 119.436C822.861 116.972 817.933 113.672 813.709 109.536C809.573 105.312 806.273 100.384 803.809 94.752C801.433 89.12 800.245 83.136 800.245 76.8V30.6H811.465V76.8C811.465 81.64 812.389 86.172 814.237 90.396C816.085 94.62 818.593 98.316 821.761 101.484C824.929 104.652 828.625 107.16 832.849 109.008C837.073 110.856 841.605 111.78 846.445 111.78H970.921V123H846.445Z" fill="white"/>
<path d="M1167.62 123H1156.4V106.896C1152.18 111.824 1147.03 115.74 1140.96 118.644C1134.97 121.46 1128.51 122.868 1121.55 122.868H1043.54C1037.21 122.868 1031.22 121.68 1025.59 119.304C1019.96 116.84 1015.03 113.54 1010.81 109.404C1006.67 105.18 1003.37 100.252 1000.91 94.62C998.531 88.988 997.343 83.004 997.343 76.668C997.343 70.332 998.531 64.392 1000.91 58.848C1003.37 53.216 1006.67 48.332 1010.81 44.196C1015.03 39.972 1019.96 36.672 1025.59 34.296C1031.22 31.832 1037.21 30.6 1043.54 30.6H1167.62V123ZM1043.54 41.82C1038.7 41.82 1034.17 42.744 1029.95 44.592C1025.72 46.44 1022.03 48.948 1018.86 52.116C1015.69 55.284 1013.18 58.98 1011.33 63.204C1009.49 67.428 1008.56 71.916 1008.56 76.668C1008.56 81.508 1009.49 86.04 1011.33 90.264C1013.18 94.488 1015.69 98.184 1018.86 101.352C1022.03 104.52 1025.72 107.028 1029.95 108.876C1034.17 110.724 1038.7 111.648 1043.54 111.648H1121.55C1126.31 111.648 1130.79 110.768 1135.02 109.008C1139.24 107.16 1142.94 104.652 1146.11 101.484C1149.27 98.316 1151.78 94.62 1153.63 90.396C1155.48 86.172 1156.4 81.684 1156.4 76.932V41.82H1043.54Z" fill="white"/>
<path d="M1364.73 30.6V41.82H1240.25C1235.41 41.82 1230.88 42.744 1226.66 44.592C1222.43 46.44 1218.74 48.948 1215.57 52.116C1212.4 55.284 1209.89 58.98 1208.05 63.204C1206.2 67.428 1205.27 71.96 1205.27 76.8V123H1194.05V30.6H1205.27V46.704C1209.59 41.688 1214.73 37.772 1220.72 34.956C1226.7 32.052 1233.21 30.6 1240.25 30.6H1364.73Z" fill="white"/>
<path d="M1391.15 0.635986H1402.37V11.988H1391.15V0.635986ZM1391.15 30.6H1402.37V123H1391.15V30.6Z" fill="white"/>
<path d="M1573.72 123H1434.6V111.78H1573.72C1575.75 111.78 1577.64 111.384 1579.4 110.592C1581.16 109.8 1582.7 108.744 1584.02 107.424C1585.34 106.104 1586.4 104.564 1587.19 102.804C1587.98 101.044 1588.38 99.152 1588.38 97.128C1588.38 95.104 1587.98 93.212 1587.19 91.452C1586.4 89.604 1585.34 88.02 1584.02 86.7C1582.7 85.38 1581.16 84.368 1579.4 83.664C1577.64 82.872 1575.75 82.476 1573.72 82.476H1454.79C1451.27 82.476 1447.93 81.816 1444.76 80.496C1441.59 79.088 1438.82 77.24 1436.44 74.952C1434.16 72.576 1432.31 69.804 1430.9 66.636C1429.58 63.468 1428.92 60.08 1428.92 56.472C1428.92 52.864 1429.58 49.52 1430.9 46.44C1432.31 43.272 1434.16 40.544 1436.44 38.256C1438.82 35.88 1441.59 34.032 1444.76 32.712C1447.93 31.304 1451.27 30.6 1454.79 30.6H1593.92V41.82H1454.79C1452.77 41.82 1450.88 42.216 1449.12 43.008C1447.36 43.8 1445.82 44.856 1444.5 46.176C1443.18 47.496 1442.12 49.036 1441.33 50.796C1440.54 52.556 1440.14 54.448 1440.14 56.472C1440.14 58.496 1440.54 60.432 1441.33 62.28C1442.12 64.04 1443.18 65.58 1444.5 66.9C1445.82 68.22 1447.36 69.276 1449.12 70.068C1450.88 70.772 1452.77 71.124 1454.79 71.124H1573.72C1577.33 71.124 1580.68 71.828 1583.76 73.236C1586.92 74.556 1589.65 76.404 1591.94 78.78C1594.32 81.068 1596.16 83.796 1597.48 86.964C1598.89 90.132 1599.6 93.52 1599.6 97.128C1599.6 100.648 1598.89 103.992 1597.48 107.16C1596.16 110.328 1594.32 113.1 1591.94 115.476C1589.65 117.764 1586.92 119.612 1583.76 121.02C1580.68 122.34 1577.33 123 1573.72 123Z" fill="white"/>
</svg>
