<svg width="373" height="80" viewBox="0 0 373 80" fill="none" xmlns="http://www.w3.org/2000/svg">
<path d="M79.3086 36.716V43.884H87.5406V42.344H80.8486V38.256H92.6646V48H77.2646C76.4059 48 75.6779 47.7013 75.0806 47.104C74.4833 46.5067 74.1846 45.7787 74.1846 44.92V35.68C74.1846 34.8213 74.4833 34.0933 75.0806 33.496C75.6779 32.8987 76.4059 32.6 77.2646 32.6H92.6646V36.716H79.3086ZM101.703 36.716V38.256H112.763V42.344H101.703V43.884H115.059V48H99.6591C98.8005 48 98.0725 47.7013 97.4751 47.104C96.8778 46.5067 96.5791 45.7787 96.5791 44.92V35.68C96.5791 34.8213 96.8778 34.0933 97.4751 33.496C98.0725 32.8987 98.8005 32.6 99.6591 32.6H115.059V36.716H101.703ZM137.65 32.6V36.716H130.958V48H125.834V36.716H119.17V32.6H137.65ZM165.454 38.256V42.344V38.256ZM152.098 36.716V38.256H165.454V44.92C165.454 44.9947 165.454 45.0413 165.454 45.06C165.416 45.8627 165.099 46.5533 164.502 47.132C163.904 47.7107 163.195 48 162.374 48C162.374 48 157.24 48 146.974 48V43.884H160.33V42.344H146.974V35.68C146.974 35.624 146.974 35.5773 146.974 35.54C147.011 34.7187 147.328 34.028 147.926 33.468C148.542 32.8893 149.251 32.6 150.054 32.6H165.454V36.716H152.098ZM188.044 32.6V36.716H181.352V48H176.228V36.716H169.564V32.6H188.044ZM207.079 32.6C207.919 32.6 208.637 32.8987 209.235 33.496C209.851 34.0933 210.159 34.8213 210.159 35.68V48H205.007V42.876H196.803V48H191.679V35.68C191.679 34.8213 191.977 34.0933 192.575 33.496C193.172 32.8987 193.9 32.6 194.759 32.6H207.079ZM205.007 38.76V36.716H196.803V38.76H205.007ZM229.557 32.6C230.416 32.6 231.144 32.8987 231.741 33.496C232.339 34.0933 232.637 34.8213 232.637 35.68V39.796C232.637 40.636 232.339 41.364 231.741 41.98C231.144 42.5773 230.416 42.876 229.557 42.876H228.353L232.637 48H227.289L222.977 42.876H219.281V48H214.157V32.6H229.557ZM227.513 38.76V36.716H219.281V38.76H227.513ZM255.228 32.6V36.716H248.536V48H243.412V36.716H236.748V32.6H255.228ZM264.07 36.716V38.256H275.13V42.344H264.07V43.884H277.426V48H262.026C261.168 48 260.44 47.7013 259.842 47.104C259.245 46.5067 258.946 45.7787 258.946 44.92V35.68C258.946 34.8213 259.245 34.0933 259.842 33.496C260.44 32.8987 261.168 32.6 262.026 32.6H277.426V36.716H264.07ZM296.741 32.6C297.6 32.6 298.328 32.8987 298.925 33.496C299.522 34.0933 299.821 34.8213 299.821 35.68V44.92C299.821 45.7787 299.522 46.5067 298.925 47.104C298.328 47.7013 297.6 48 296.741 48H281.341V32.6H296.741ZM294.697 43.884V36.716H286.465V43.884H294.697Z" fill="white"/>
<g filter="url(#filter0_d_227_1500)">
<rect x="15.5" y="15.5" width="342" height="49" rx="24.5" stroke="#B4B4B4" shape-rendering="crispEdges"/>
</g>
<defs>
<filter id="filter0_d_227_1500" x="0" y="0" width="373" height="80" filterUnits="userSpaceOnUse" color-interpolation-filters="sRGB">
<feFlood flood-opacity="0" result="BackgroundImageFix"/>
<feColorMatrix in="SourceAlpha" type="matrix" values="0 0 0 0 0 0 0 0 0 0 0 0 0 0 0 0 0 0 127 0" result="hardAlpha"/>
<feMorphology radius="5" operator="dilate" in="SourceAlpha" result="effect1_dropShadow_227_1500"/>
<feOffset/>
<feGaussianBlur stdDeviation="5"/>
<feComposite in2="hardAlpha" operator="out"/>
<feColorMatrix type="matrix" values="0 0 0 0 1 0 0 0 0 1 0 0 0 0 1 0 0 0 0.25 0"/>
<feBlend mode="normal" in2="BackgroundImageFix" result="effect1_dropShadow_227_1500"/>
<feBlend mode="normal" in="SourceGraphic" in2="effect1_dropShadow_227_1500" result="shape"/>
</filter>
</defs>
</svg>
