<svg width="677" height="42" viewBox="0 0 677 42" fill="none" xmlns="http://www.w3.org/2000/svg">
<path d="M24.8867 33V26.3184H8.53711V1.22461H0.566406V33H24.8867ZM48.7344 21.5703C48.7988 21.7422 48.7988 21.9355 48.7988 22.3867C48.7988 24.2988 48.0254 25.8457 46.4785 27.0273C44.9102 28.209 42.8906 28.8105 40.3984 28.8105C37.9922 28.8105 36.4238 27.6074 36.4238 25.7812C36.4238 24.9004 36.7891 24.2559 37.5195 23.8477C38.25 23.4395 39.9902 23.0742 42.7617 22.7949C42.9121 22.7734 43.1484 22.752 43.4707 22.709C46.0703 22.4512 47.8105 22.0645 48.7344 21.5703ZM55.9102 17.8535C55.9102 15.8555 55.7383 14.373 55.3945 13.3848C55.0293 12.418 54.4277 11.6016 53.5898 10.957C51.3555 9.30273 48.0254 8.44336 43.7285 8.44336C34.9844 8.44336 30.2578 11.4512 30.2578 17.0371V17.123L37.9277 17.1016C37.9922 14.373 39.625 13.1484 43.2988 13.1484C46.9297 13.1484 48.7559 14.0293 48.7559 15.834C48.7559 17.3379 46.3926 18.2617 41.666 18.584C40.6992 18.6484 39.9258 18.6914 39.3887 18.7344C35.2852 19.0781 32.3848 19.8086 30.6875 20.9043C28.9902 22.0215 28.1523 23.6973 28.1523 25.9531C28.1523 28.3809 29.0977 30.293 30.9668 31.7109C32.8359 33.1289 35.4141 33.8379 38.6797 33.8379C42.8906 33.8379 46.0059 32.7422 48.5625 30.4004L48.9277 33H57.0273V32.4629C56.2324 31.9258 55.9102 31.0449 55.9102 29.1758V17.8535ZM81.3047 9.28125V20.9902C81.3047 23.0742 80.7031 24.707 79.4785 25.8887C78.2539 27.0703 76.5781 27.6719 74.4512 27.6719C72.5391 27.6719 71.207 27.1777 70.4551 26.1895C69.6816 25.2227 69.2949 23.418 69.2949 20.7754V9.28125H61.9473V22.3438C61.9473 24.5352 62.0547 26.1465 62.2695 27.1562C62.4844 28.166 62.8496 29.0684 63.3652 29.8418C64.998 32.2695 68.0273 33.5801 72.0664 33.5801C75.7402 33.5801 78.748 32.2051 81.3047 29.4336V33H88.6523V9.28125H81.3047ZM101.908 33V21.291C101.908 19.207 102.531 17.5527 103.756 16.3496C104.98 15.168 106.656 14.5664 108.783 14.5664C110.674 14.5664 112.006 15.0605 112.779 16.0488C113.531 17.0371 113.918 18.8633 113.918 21.5059V33H121.266V19.9375C121.266 17.7676 121.158 16.1562 120.943 15.125C120.729 14.1152 120.363 13.2129 119.869 12.4609C118.236 10.0332 115.121 8.6582 111.146 8.6582C107.623 8.6582 104.508 10.0762 101.908 12.8477V9.28125H94.5605V33H101.908ZM146.23 23.3535C146.123 24.7715 145.5 25.9316 144.383 26.8125C143.244 27.7148 141.848 28.166 140.15 28.166C138.152 28.166 136.541 27.5215 135.359 26.2539C134.156 24.9863 133.555 23.2891 133.555 21.1621C133.555 19.0352 134.156 17.3164 135.359 16.0273C136.562 14.7598 138.152 14.1152 140.15 14.1152C143.652 14.1152 145.779 15.6406 146.188 18.3906H154.287C153.492 11.9668 148.658 8.44336 140.602 8.44336C135.939 8.44336 132.287 9.58203 129.623 11.8379C126.938 14.0938 125.605 17.1875 125.605 21.1191C125.605 24.9648 126.938 28.0371 129.58 30.3574C132.223 32.6777 135.703 33.8379 140.064 33.8379C144.168 33.8379 147.562 32.8711 150.205 30.9375C152.848 29.0039 154.309 26.4688 154.545 23.3535H146.23ZM166.232 33V21.291C166.232 19.207 166.855 17.5527 168.08 16.3496C169.305 15.168 170.98 14.5664 173.107 14.5664C174.998 14.5664 176.33 15.0605 177.104 16.0488C177.855 17.0371 178.242 18.8633 178.242 21.5059V33H185.59V19.9375C185.59 17.7676 185.482 16.1562 185.268 15.125C185.053 14.1152 184.688 13.2129 184.193 12.4609C182.561 9.99023 179.531 8.72266 175.471 8.72266C171.84 8.72266 168.789 10.0762 166.232 12.8477V1.22461H158.885V33H166.232ZM206.816 22.666C206.816 26.2539 208.234 29.0039 211.07 30.9375C213.906 32.8711 217.967 33.8379 223.23 33.8379C234.295 33.8379 240.139 30.0781 240.139 23.0098C240.139 17.5098 236.443 14.5664 228.301 13.6855L222.393 13.0625C219.557 12.7402 217.773 12.375 217.064 11.9453C216.334 11.5156 215.969 10.8281 215.969 9.9043C215.969 7.58398 218.547 6.25195 223.016 6.25195C227.85 6.25195 230.449 7.82031 230.814 11H238.721V10.7422C238.721 7.54102 237.324 5.00586 234.531 3.1582C231.717 1.31055 227.85 0.386719 222.887 0.386719C218.268 0.386719 214.572 1.375 211.779 3.33008C208.965 5.28516 207.568 7.8418 207.568 10.957C207.568 16.2207 211.328 19.0352 219.578 19.8945L225.229 20.4531C227.742 20.7109 229.396 21.0762 230.234 21.5703C231.051 22.0645 231.459 22.8379 231.459 23.8906C231.459 26.3828 228.838 27.8008 224.197 27.8008C218.182 27.8008 214.959 25.8887 214.959 22.3008V22H206.816V22.666ZM247.271 9.28125H243.812V14.8672H247.271V28.123C247.271 30.1426 247.873 31.6035 249.098 32.4844C250.322 33.3867 252.342 33.8379 255.156 33.8379H260.119V28.123H257.047C255.994 28.123 255.328 27.9727 255.049 27.6934C254.77 27.4141 254.619 26.4688 254.619 24.9004V14.8672H260.119V9.28125H254.619V3.0293H247.271V9.28125ZM270.818 18.1113C270.947 16.6719 271.549 15.5117 272.623 14.6523C273.676 13.8145 275.051 13.3848 276.748 13.3848C280.164 13.3848 282.42 15.1895 282.678 18.1328L270.818 18.1113ZM282.334 25.3086C281.453 27.4785 279.348 28.7246 276.576 28.7246C274.793 28.7246 273.375 28.209 272.301 27.1777C271.205 26.168 270.646 24.793 270.604 23.0527H290.842V22.043C290.842 17.6816 289.617 14.3301 287.146 11.9668C284.676 9.625 281.152 8.44336 276.576 8.44336C272.172 8.44336 268.713 9.58203 266.156 11.8379C263.6 14.1152 262.332 17.209 262.332 21.1191C262.332 25.0293 263.621 28.123 266.178 30.4004C268.734 32.6992 272.193 33.8379 276.576 33.8379C280.035 33.8379 282.957 33.1074 285.363 31.6035C287.77 30.1211 289.467 28.0371 290.434 25.3086H282.334ZM303.066 33V1.22461H295.762V33H303.066ZM317.332 33V1.22461H310.027V33H317.332ZM343.371 21.5703C343.436 21.7422 343.436 21.9355 343.436 22.3867C343.436 24.2988 342.662 25.8457 341.115 27.0273C339.547 28.209 337.527 28.8105 335.035 28.8105C332.629 28.8105 331.061 27.6074 331.061 25.7812C331.061 24.9004 331.426 24.2559 332.156 23.8477C332.887 23.4395 334.627 23.0742 337.398 22.7949C337.549 22.7734 337.785 22.752 338.107 22.709C340.707 22.4512 342.447 22.0645 343.371 21.5703ZM350.547 17.8535C350.547 15.8555 350.375 14.373 350.031 13.3848C349.666 12.418 349.064 11.6016 348.227 10.957C345.992 9.30273 342.662 8.44336 338.365 8.44336C329.621 8.44336 324.895 11.4512 324.895 17.0371V17.123L332.564 17.1016C332.629 14.373 334.262 13.1484 337.936 13.1484C341.566 13.1484 343.393 14.0293 343.393 15.834C343.393 17.3379 341.029 18.2617 336.303 18.584C335.336 18.6484 334.562 18.6914 334.025 18.7344C329.922 19.0781 327.021 19.8086 325.324 20.9043C323.627 22.0215 322.789 23.6973 322.789 25.9531C322.789 28.3809 323.734 30.293 325.604 31.7109C327.473 33.1289 330.051 33.8379 333.316 33.8379C337.527 33.8379 340.643 32.7422 343.199 30.4004L343.564 33H351.664V32.4629C350.869 31.9258 350.547 31.0449 350.547 29.1758V17.8535ZM363.932 22.3867C363.932 20.002 364.555 18.1543 365.779 16.8008C367.004 15.4473 368.701 14.7812 370.85 14.7812C372.203 14.7812 372.676 14.8027 373.17 14.8672V8.61523C373.041 8.59375 372.848 8.59375 372.59 8.57227C371.859 8.48633 371.365 8.44336 371.107 8.44336C368.508 8.44336 366.166 9.73242 363.932 12.418V9.28125H356.584V33H363.932V22.3867ZM411.777 21.5703C411.842 21.7422 411.842 21.9355 411.842 22.3867C411.842 24.2988 411.068 25.8457 409.521 27.0273C407.953 28.209 405.934 28.8105 403.441 28.8105C401.035 28.8105 399.467 27.6074 399.467 25.7812C399.467 24.9004 399.832 24.2559 400.562 23.8477C401.293 23.4395 403.033 23.0742 405.805 22.7949C405.955 22.7734 406.191 22.752 406.514 22.709C409.113 22.4512 410.854 22.0645 411.777 21.5703ZM418.953 17.8535C418.953 15.8555 418.781 14.373 418.438 13.3848C418.072 12.418 417.471 11.6016 416.633 10.957C414.398 9.30273 411.068 8.44336 406.771 8.44336C398.027 8.44336 393.301 11.4512 393.301 17.0371V17.123L400.971 17.1016C401.035 14.373 402.668 13.1484 406.342 13.1484C409.973 13.1484 411.799 14.0293 411.799 15.834C411.799 17.3379 409.436 18.2617 404.709 18.584C403.742 18.6484 402.969 18.6914 402.432 18.7344C398.328 19.0781 395.428 19.8086 393.73 20.9043C392.033 22.0215 391.195 23.6973 391.195 25.9531C391.195 28.3809 392.141 30.293 394.01 31.7109C395.879 33.1289 398.457 33.8379 401.723 33.8379C405.934 33.8379 409.049 32.7422 411.605 30.4004L411.971 33H420.07V32.4629C419.275 31.9258 418.953 31.0449 418.953 29.1758V17.8535ZM432.338 33V21.291C432.338 19.207 432.961 17.5527 434.186 16.3496C435.41 15.168 437.086 14.5664 439.213 14.5664C441.104 14.5664 442.436 15.0605 443.209 16.0488C443.961 17.0371 444.348 18.8633 444.348 21.5059V33H451.695V19.9375C451.695 17.7676 451.588 16.1562 451.373 15.125C451.158 14.1152 450.793 13.2129 450.299 12.4609C448.666 10.0332 445.551 8.6582 441.576 8.6582C438.053 8.6582 434.938 10.0762 432.338 12.8477V9.28125H424.99V33H432.338ZM477.885 21.4199C477.885 23.4609 477.262 25.1152 475.994 26.3398C474.727 27.5859 473.051 28.209 470.945 28.209C468.818 28.209 467.143 27.6074 465.875 26.3828C464.607 25.1582 463.984 23.5254 463.984 21.4629C463.984 19.3789 464.607 17.7461 465.875 16.5215C467.121 15.2969 468.818 14.6953 470.945 14.6953C473.051 14.6953 474.727 15.2969 475.994 16.5215C477.262 17.7461 477.885 19.3789 477.885 21.4199ZM477.885 12.0527C475.973 9.99023 473.223 8.98047 469.613 8.98047C465.574 8.98047 462.309 10.1191 459.816 12.3965C457.324 14.6953 456.078 17.6816 456.078 21.377C456.078 25.0508 457.324 28.0371 459.816 30.3359C462.287 32.6348 465.51 33.7949 469.484 33.7949C473.18 33.7949 475.844 32.8496 477.885 30.8086V33H485.232V1.22461H477.885V12.0527ZM506.523 25.2227C506.846 30.916 511.508 33.8379 520.295 33.8379C528.996 33.8379 533.594 30.8301 533.594 25.1582C533.594 21.0117 530.758 18.4551 525.666 18.0898L520.531 17.6816C516.514 17.3594 515.031 16.7363 515.031 15.4473C515.031 14.0938 516.793 13.2773 519.779 13.2773C523.324 13.2773 525.193 14.2871 525.537 16.3711H532.885V16.1562C532.885 13.75 531.768 11.8594 529.512 10.4844C527.256 9.13086 524.141 8.44336 520.166 8.44336C511.83 8.44336 507.275 11.2793 507.275 16.5C507.275 18.498 507.984 20.1523 509.424 21.4629C510.863 22.7734 512.797 23.5469 515.246 23.7617L521.885 24.3418C523.582 24.4707 524.678 24.6641 525.215 24.9434C525.73 25.2227 525.988 25.6523 525.988 26.2754C525.988 27.6504 523.99 28.5957 520.918 28.5957C516.449 28.5957 514.516 27.6074 514.279 25.2227H506.523ZM546.484 1.22461H539.18V6.91797H546.484V1.22461ZM546.484 33V9.28125H539.18V33H546.484ZM573.232 20.3242C573.232 22.2578 572.609 23.8047 571.363 24.9434C570.096 26.082 568.42 26.6621 566.293 26.6621C564.166 26.6621 562.469 26.082 561.223 24.9434C559.955 23.8047 559.332 22.2578 559.332 20.3242C559.332 18.3906 559.955 16.8438 561.223 15.7051C562.469 14.5664 564.166 13.9863 566.293 13.9863C568.42 13.9863 570.096 14.5664 571.363 15.7051C572.609 16.8438 573.232 18.3906 573.232 20.3242ZM580.58 9.28125H573.232V11.4297C571.234 9.51758 568.592 8.61523 564.875 8.61523C560.9 8.61523 557.656 9.71094 555.164 11.8809C552.672 14.0723 551.426 16.8867 551.426 20.3242C551.426 23.8047 552.672 26.6191 555.186 28.7676C557.678 30.916 560.943 31.9902 565.004 31.9902C568.613 31.9902 571.256 31.0449 573.232 29.1328V30.7227C573.232 32.7207 572.717 34.1387 571.686 34.9336C570.633 35.7285 568.785 36.1152 566.121 36.1152C562.512 36.1152 560.793 35.127 560.793 33.1289H553.445V33.5371C553.445 38.7148 557.721 41.3574 566.078 41.3574C571.514 41.3574 575.273 40.2188 577.959 37.748C578.904 36.8672 579.57 35.8359 579.979 34.6543C580.387 33.4727 580.58 31.5176 580.58 28.7676V9.28125ZM594.029 33V21.291C594.029 19.207 594.652 17.5527 595.877 16.3496C597.102 15.168 598.777 14.5664 600.904 14.5664C602.795 14.5664 604.127 15.0605 604.9 16.0488C605.652 17.0371 606.039 18.8633 606.039 21.5059V33H613.387V19.9375C613.387 17.7676 613.279 16.1562 613.064 15.125C612.85 14.1152 612.484 13.2129 611.99 12.4609C610.357 10.0332 607.242 8.6582 603.268 8.6582C599.744 8.6582 596.629 10.0762 594.029 12.8477V9.28125H586.682V33H594.029ZM643.164 1.22461H635.859V6.91797H643.164V1.22461ZM643.164 33V9.28125H635.859V33H643.164ZM656.979 33V21.291C656.979 19.207 657.602 17.5527 658.826 16.3496C660.051 15.168 661.727 14.5664 663.854 14.5664C665.744 14.5664 667.076 15.0605 667.85 16.0488C668.602 17.0371 668.988 18.8633 668.988 21.5059V33H676.336V19.9375C676.336 17.7676 676.229 16.1562 676.014 15.125C675.799 14.1152 675.434 13.2129 674.939 12.4609C673.307 10.0332 670.191 8.6582 666.217 8.6582C662.693 8.6582 659.578 10.0762 656.979 12.8477V9.28125H649.631V33H656.979Z" fill="white"/>
</svg>
