<svg width="629" height="94" viewBox="0 0 629 94" fill="none" xmlns="http://www.w3.org/2000/svg">
<path d="M19.9473 6.39062C23.9219 6.39062 25.4902 7.35742 25.4902 9.69922C25.4902 10.8809 25.1035 11.7188 24.3086 12.2129C23.5137 12.707 22.0742 12.9434 19.9473 12.9434H10.5371V6.39062H19.9473ZM10.5371 18.5293H21.1289C25.082 18.5293 26.6719 19.6035 26.6719 22.1816C26.6719 23.4707 26.2852 24.373 25.5117 24.8887C24.7383 25.4043 23.2773 25.6621 21.1289 25.6621H10.5371V18.5293ZM24.6953 32C27.918 32 30.4531 31.1836 32.2793 29.5723C34.1055 27.9609 35.0293 25.748 35.0293 22.9336C35.0293 18.9805 33.1602 16.2949 29.4863 15.1133C32.3223 13.6523 33.8047 11.2461 33.8047 8.15234C33.8047 2.88867 30.2383 0.224609 23.1055 0.224609H2.56641V32H24.6953ZM46.0508 20.1621C46.0508 18.0781 46.6953 16.4023 47.9844 15.1348C49.252 13.8887 50.9707 13.2656 53.0977 13.2656C55.2246 13.2656 56.9434 13.8887 58.2109 15.1133C59.4785 16.3594 60.1016 18.0352 60.1016 20.1191C60.1016 22.2246 59.457 23.9004 58.1895 25.1465C56.9219 26.4141 55.2246 27.0371 53.0977 27.0371C50.9707 27.0371 49.252 26.4141 47.9844 25.168C46.6953 23.9219 46.0508 22.2461 46.0508 20.1621ZM38.1016 20.1191C38.1016 24.0508 39.4551 27.1445 42.1406 29.4219C44.8262 31.6992 48.4785 32.8379 53.0977 32.8379C57.7168 32.8379 61.3691 31.6992 64.0547 29.4219C66.7188 27.1445 68.0508 24.0508 68.0508 20.1191C68.0508 16.1875 66.7188 13.0938 64.0547 10.8379C61.3906 8.58203 57.7383 7.44336 53.0977 7.44336C48.4355 7.44336 44.7832 8.58203 42.1191 10.8379C39.4336 13.0938 38.1016 16.1875 38.1016 20.1191ZM91.8125 8.28125V19.9902C91.8125 22.0742 91.2109 23.707 89.9863 24.8887C88.7617 26.0703 87.0859 26.6719 84.959 26.6719C83.0469 26.6719 81.7148 26.1777 80.9629 25.1895C80.1895 24.2227 79.8027 22.418 79.8027 19.7754V8.28125H72.4551V21.3438C72.4551 23.5352 72.5625 25.1465 72.7773 26.1562C72.9922 27.166 73.3574 28.0684 73.873 28.8418C75.5059 31.2695 78.5352 32.5801 82.5742 32.5801C86.248 32.5801 89.2559 31.2051 91.8125 28.4336V32H99.1602V8.28125H91.8125ZM112.416 32V20.291C112.416 18.207 113.039 16.5527 114.264 15.3496C115.488 14.168 117.164 13.5664 119.291 13.5664C121.182 13.5664 122.514 14.0605 123.287 15.0488C124.039 16.0371 124.426 17.8633 124.426 20.5059V32H131.773V18.9375C131.773 16.7676 131.666 15.1562 131.451 14.125C131.236 13.1152 130.871 12.2129 130.377 11.4609C128.744 9.0332 125.629 7.6582 121.654 7.6582C118.131 7.6582 115.016 9.07617 112.416 11.8477V8.28125H105.068V32H112.416ZM157.963 20.4199C157.963 22.4609 157.34 24.1152 156.072 25.3398C154.805 26.5859 153.129 27.209 151.023 27.209C148.896 27.209 147.221 26.6074 145.953 25.3828C144.686 24.1582 144.062 22.5254 144.062 20.4629C144.062 18.3789 144.686 16.7461 145.953 15.5215C147.199 14.2969 148.896 13.6953 151.023 13.6953C153.129 13.6953 154.805 14.2969 156.072 15.5215C157.34 16.7461 157.963 18.3789 157.963 20.4199ZM157.963 11.0527C156.051 8.99023 153.301 7.98047 149.691 7.98047C145.652 7.98047 142.387 9.11914 139.895 11.3965C137.402 13.6953 136.156 16.6816 136.156 20.377C136.156 24.0508 137.402 27.0371 139.895 29.3359C142.365 31.6348 145.588 32.7949 149.562 32.7949C153.258 32.7949 155.922 31.8496 157.963 29.8086V32H165.311V0.224609H157.963V11.0527ZM191.221 40.3574H192.424C194.486 40.3574 195.367 40.207 196.205 39.7773C197.645 39.0898 198.848 37.6504 199.943 35.4805L213.221 8.28125H205.143L198.268 23.5566L191.93 8.28125H183.744L194.035 30.1953C194.207 30.6035 194.314 31.0977 194.314 31.6992C194.314 33.0957 193.369 33.8477 191.543 33.8477H187.311V40.3574H191.221ZM221.75 20.1621C221.75 18.0781 222.395 16.4023 223.684 15.1348C224.951 13.8887 226.67 13.2656 228.797 13.2656C230.924 13.2656 232.643 13.8887 233.91 15.1133C235.178 16.3594 235.801 18.0352 235.801 20.1191C235.801 22.2246 235.156 23.9004 233.889 25.1465C232.621 26.4141 230.924 27.0371 228.797 27.0371C226.67 27.0371 224.951 26.4141 223.684 25.168C222.395 23.9219 221.75 22.2461 221.75 20.1621ZM213.801 20.1191C213.801 24.0508 215.154 27.1445 217.84 29.4219C220.525 31.6992 224.178 32.8379 228.797 32.8379C233.416 32.8379 237.068 31.6992 239.754 29.4219C242.418 27.1445 243.75 24.0508 243.75 20.1191C243.75 16.1875 242.418 13.0938 239.754 10.8379C237.09 8.58203 233.438 7.44336 228.797 7.44336C224.135 7.44336 220.482 8.58203 217.818 10.8379C215.133 13.0938 213.801 16.1875 213.801 20.1191ZM267.512 8.28125V19.9902C267.512 22.0742 266.91 23.707 265.686 24.8887C264.461 26.0703 262.785 26.6719 260.658 26.6719C258.746 26.6719 257.414 26.1777 256.662 25.1895C255.889 24.2227 255.502 22.418 255.502 19.7754V8.28125H248.154V21.3438C248.154 23.5352 248.262 25.1465 248.477 26.1562C248.691 27.166 249.057 28.0684 249.572 28.8418C251.205 31.2695 254.234 32.5801 258.273 32.5801C261.947 32.5801 264.955 31.2051 267.512 28.4336V32H274.859V8.28125H267.512ZM288.115 21.3867C288.115 19.002 288.738 17.1543 289.963 15.8008C291.188 14.4473 292.885 13.7812 295.033 13.7812C296.387 13.7812 296.859 13.8027 297.354 13.8672V7.61523C297.225 7.59375 297.031 7.59375 296.773 7.57227C296.043 7.48633 295.549 7.44336 295.291 7.44336C292.691 7.44336 290.35 8.73242 288.115 11.418V8.28125H280.768V32H288.115V21.3867ZM341.289 32V25.3184H324.939V0.224609H316.969V32H341.289ZM363.912 32V1.01953H357.316C356.521 4.65039 353.965 6.21875 348.744 6.21875H348.035V11.418H356.436V32H363.912ZM401.531 0.224609H394.227V5.91797H401.531V0.224609ZM401.531 32V8.28125H394.227V32H401.531ZM428.279 20.4199C428.279 22.4609 427.656 24.1152 426.389 25.3398C425.121 26.5859 423.445 27.209 421.34 27.209C419.213 27.209 417.537 26.6074 416.27 25.3828C415.002 24.1582 414.379 22.5254 414.379 20.4629C414.379 18.3789 415.002 16.7461 416.27 15.5215C417.516 14.2969 419.213 13.6953 421.34 13.6953C423.445 13.6953 425.121 14.2969 426.389 15.5215C427.656 16.7461 428.279 18.3789 428.279 20.4199ZM428.279 11.0527C426.367 8.99023 423.617 7.98047 420.008 7.98047C415.969 7.98047 412.703 9.11914 410.211 11.3965C407.719 13.6953 406.473 16.6816 406.473 20.377C406.473 24.0508 407.719 27.0371 410.211 29.3359C412.682 31.6348 415.904 32.7949 419.879 32.7949C423.574 32.7949 426.238 31.8496 428.279 29.8086V32H435.627V0.224609H428.279V11.0527ZM448.646 17.1113C448.775 15.6719 449.377 14.5117 450.451 13.6523C451.504 12.8145 452.879 12.3848 454.576 12.3848C457.992 12.3848 460.248 14.1895 460.506 17.1328L448.646 17.1113ZM460.162 24.3086C459.281 26.4785 457.176 27.7246 454.404 27.7246C452.621 27.7246 451.203 27.209 450.129 26.1777C449.033 25.168 448.475 23.793 448.432 22.0527H468.67V21.043C468.67 16.6816 467.445 13.3301 464.975 10.9668C462.504 8.625 458.98 7.44336 454.404 7.44336C450 7.44336 446.541 8.58203 443.984 10.8379C441.428 13.1152 440.16 16.209 440.16 20.1191C440.16 24.0293 441.449 27.123 444.006 29.4004C446.562 31.6992 450.021 32.8379 454.404 32.8379C457.863 32.8379 460.785 32.1074 463.191 30.6035C465.598 29.1211 467.295 27.0371 468.262 24.3086H460.162ZM480.443 32V20.291C480.443 18.207 481.066 16.5527 482.291 15.3496C483.516 14.168 485.191 13.5664 487.318 13.5664C489.209 13.5664 490.541 14.0605 491.314 15.0488C492.066 16.0371 492.453 17.8633 492.453 20.5059V32H499.801V18.9375C499.801 16.7676 499.693 15.1562 499.479 14.125C499.264 13.1152 498.898 12.2129 498.404 11.4609C496.771 9.0332 493.656 7.6582 489.682 7.6582C486.158 7.6582 483.043 9.07617 480.443 11.8477V8.28125H473.096V32H480.443ZM507.6 8.28125H504.141V13.8672H507.6V27.123C507.6 29.1426 508.201 30.6035 509.426 31.4844C510.65 32.3867 512.67 32.8379 515.484 32.8379H520.447V27.123H517.375C516.322 27.123 515.656 26.9727 515.377 26.6934C515.098 26.4141 514.947 25.4688 514.947 23.9004V13.8672H520.447V8.28125H514.947V2.0293H507.6V8.28125ZM532.027 0.224609H524.723V5.91797H532.027V0.224609ZM532.027 32V8.28125H524.723V32H532.027ZM540.385 8.28125H536.926V13.8672H540.385V27.123C540.385 29.1426 540.986 30.6035 542.211 31.4844C543.436 32.3867 545.455 32.8379 548.27 32.8379H553.232V27.123H550.16C549.107 27.123 548.441 26.9727 548.162 26.6934C547.883 26.4141 547.732 25.4688 547.732 23.9004V13.8672H553.232V8.28125H547.732V2.0293H540.385V8.28125ZM564.812 0.224609H557.508V5.91797H564.812V0.224609ZM564.812 32V8.28125H557.508V32H564.812ZM578.197 17.1113C578.326 15.6719 578.928 14.5117 580.002 13.6523C581.055 12.8145 582.43 12.3848 584.127 12.3848C587.543 12.3848 589.799 14.1895 590.057 17.1328L578.197 17.1113ZM589.713 24.3086C588.832 26.4785 586.727 27.7246 583.955 27.7246C582.172 27.7246 580.754 27.209 579.68 26.1777C578.584 25.168 578.025 23.793 577.982 22.0527H598.221V21.043C598.221 16.6816 596.996 13.3301 594.525 10.9668C592.055 8.625 588.531 7.44336 583.955 7.44336C579.551 7.44336 576.092 8.58203 573.535 10.8379C570.979 13.1152 569.711 16.209 569.711 20.1191C569.711 24.0293 571 27.123 573.557 29.4004C576.113 31.6992 579.572 32.8379 583.955 32.8379C587.414 32.8379 590.336 32.1074 592.742 30.6035C595.148 29.1211 596.846 27.0371 597.812 24.3086H589.713ZM601.766 24.2227C602.088 29.916 606.75 32.8379 615.537 32.8379C624.238 32.8379 628.836 29.8301 628.836 24.1582C628.836 20.0117 626 17.4551 620.908 17.0898L615.773 16.6816C611.756 16.3594 610.273 15.7363 610.273 14.4473C610.273 13.0938 612.035 12.2773 615.021 12.2773C618.566 12.2773 620.436 13.2871 620.779 15.3711H628.127V15.1562C628.127 12.75 627.01 10.8594 624.754 9.48438C622.498 8.13086 619.383 7.44336 615.408 7.44336C607.072 7.44336 602.518 10.2793 602.518 15.5C602.518 17.498 603.227 19.1523 604.666 20.4629C606.105 21.7734 608.039 22.5469 610.488 22.7617L617.127 23.3418C618.824 23.4707 619.92 23.6641 620.457 23.9434C620.973 24.2227 621.23 24.6523 621.23 25.2754C621.23 26.6504 619.232 27.5957 616.16 27.5957C611.691 27.5957 609.758 26.6074 609.521 24.2227H601.766ZM21.5586 73.5703C21.623 73.7422 21.623 73.9355 21.623 74.3867C21.623 76.2988 20.8496 77.8457 19.3027 79.0273C17.7344 80.209 15.7148 80.8105 13.2227 80.8105C10.8164 80.8105 9.24805 79.6074 9.24805 77.7812C9.24805 76.9004 9.61328 76.2559 10.3438 75.8477C11.0742 75.4395 12.8145 75.0742 15.5859 74.7949C15.7363 74.7734 15.9727 74.752 16.2949 74.709C18.8945 74.4512 20.6348 74.0645 21.5586 73.5703ZM28.7344 69.8535C28.7344 67.8555 28.5625 66.373 28.2188 65.3848C27.8535 64.418 27.252 63.6016 26.4141 62.957C24.1797 61.3027 20.8496 60.4434 16.5527 60.4434C7.80859 60.4434 3.08203 63.4512 3.08203 69.0371V69.123L10.752 69.1016C10.8164 66.373 12.4492 65.1484 16.123 65.1484C19.7539 65.1484 21.5801 66.0293 21.5801 67.834C21.5801 69.3379 19.2168 70.2617 14.4902 70.584C13.5234 70.6484 12.75 70.6914 12.2129 70.7344C8.10938 71.0781 5.20898 71.8086 3.51172 72.9043C1.81445 74.0215 0.976562 75.6973 0.976562 77.9531C0.976562 80.3809 1.92188 82.293 3.79102 83.7109C5.66016 85.1289 8.23828 85.8379 11.5039 85.8379C15.7148 85.8379 18.8301 84.7422 21.3867 82.4004L21.752 85H29.8516V84.4629C29.0566 83.9258 28.7344 83.0449 28.7344 81.1758V69.8535ZM42.1191 85V73.291C42.1191 71.207 42.7422 69.5527 43.9668 68.3496C45.1914 67.168 46.8672 66.5664 48.9941 66.5664C50.8848 66.5664 52.2168 67.0605 52.9902 68.0488C53.7422 69.0371 54.1289 70.8633 54.1289 73.5059V85H61.4766V71.9375C61.4766 69.7676 61.3691 68.1562 61.1543 67.125C60.9395 66.1152 60.5742 65.2129 60.0801 64.4609C58.4473 62.0332 55.332 60.6582 51.3574 60.6582C47.834 60.6582 44.7188 62.0762 42.1191 64.8477V61.2812H34.7715V85H42.1191ZM87.666 73.4199C87.666 75.4609 87.043 77.1152 85.7754 78.3398C84.5078 79.5859 82.832 80.209 80.7266 80.209C78.5996 80.209 76.9238 79.6074 75.6562 78.3828C74.3887 77.1582 73.7656 75.5254 73.7656 73.4629C73.7656 71.3789 74.3887 69.7461 75.6562 68.5215C76.9023 67.2969 78.5996 66.6953 80.7266 66.6953C82.832 66.6953 84.5078 67.2969 85.7754 68.5215C87.043 69.7461 87.666 71.3789 87.666 73.4199ZM87.666 64.0527C85.7539 61.9902 83.0039 60.9805 79.3945 60.9805C75.3555 60.9805 72.0898 62.1191 69.5977 64.3965C67.1055 66.6953 65.8594 69.6816 65.8594 73.377C65.8594 77.0508 67.1055 80.0371 69.5977 82.3359C72.0684 84.6348 75.291 85.7949 79.2656 85.7949C82.9609 85.7949 85.625 84.8496 87.666 82.8086V85H95.0137V53.2246H87.666V64.0527ZM124.533 74.3867C124.533 72.002 125.156 70.1543 126.381 68.8008C127.605 67.4473 129.303 66.7812 131.451 66.7812C132.805 66.7812 133.277 66.8027 133.771 66.8672V60.6152C133.643 60.5938 133.449 60.5938 133.191 60.5723C132.461 60.4863 131.967 60.4434 131.709 60.4434C129.109 60.4434 126.768 61.7324 124.533 64.418V61.2812H117.186V85H124.533V74.3867ZM143.654 70.1113C143.783 68.6719 144.385 67.5117 145.459 66.6523C146.512 65.8145 147.887 65.3848 149.584 65.3848C153 65.3848 155.256 67.1895 155.514 70.1328L143.654 70.1113ZM155.17 77.3086C154.289 79.4785 152.184 80.7246 149.412 80.7246C147.629 80.7246 146.211 80.209 145.137 79.1777C144.041 78.168 143.482 76.793 143.439 75.0527H163.678V74.043C163.678 69.6816 162.453 66.3301 159.982 63.9668C157.512 61.625 153.988 60.4434 149.412 60.4434C145.008 60.4434 141.549 61.582 138.992 63.8379C136.436 66.1152 135.168 69.209 135.168 73.1191C135.168 77.0293 136.457 80.123 139.014 82.4004C141.57 84.6992 145.029 85.8379 149.412 85.8379C152.871 85.8379 155.793 85.1074 158.199 83.6035C160.605 82.1211 162.303 80.0371 163.27 77.3086H155.17ZM175.537 73.1621C175.537 71.1211 176.182 69.4668 177.449 68.2422C178.717 67.0176 180.393 66.3945 182.498 66.3945C184.625 66.3945 186.301 66.9961 187.568 68.1992C188.836 69.4238 189.459 71.0566 189.459 73.1191C189.459 75.2031 188.836 76.8574 187.59 78.0605C186.322 79.2852 184.625 79.8867 182.498 79.8867C180.371 79.8867 178.695 79.2852 177.428 78.0605C176.16 76.8359 175.537 75.2031 175.537 73.1621ZM175.537 93.3574V82.5293C177.6 84.6133 180.264 85.623 183.809 85.623C187.869 85.623 191.135 84.4629 193.627 82.1641C196.119 79.8652 197.365 76.8359 197.365 73.1191C197.365 69.4453 196.119 66.4375 193.648 64.1172C191.156 61.8184 187.934 60.6582 183.959 60.6582C180.264 60.6582 177.514 61.625 175.537 63.666V61.2812H168.232V93.3574H175.537ZM221.191 61.2812V72.9902C221.191 75.0742 220.59 76.707 219.365 77.8887C218.141 79.0703 216.465 79.6719 214.338 79.6719C212.426 79.6719 211.094 79.1777 210.342 78.1895C209.568 77.2227 209.182 75.418 209.182 72.7754V61.2812H201.834V74.3438C201.834 76.5352 201.941 78.1465 202.156 79.1562C202.371 80.166 202.736 81.0684 203.252 81.8418C204.885 84.2695 207.914 85.5801 211.953 85.5801C215.627 85.5801 218.635 84.2051 221.191 81.4336V85H228.539V61.2812H221.191ZM236.338 61.2812H232.879V66.8672H236.338V80.123C236.338 82.1426 236.939 83.6035 238.164 84.4844C239.389 85.3867 241.408 85.8379 244.223 85.8379H249.186V80.123H246.113C245.061 80.123 244.395 79.9727 244.115 79.6934C243.836 79.4141 243.686 78.4688 243.686 76.9004V66.8672H249.186V61.2812H243.686V55.0293H236.338V61.2812ZM272.539 73.5703C272.604 73.7422 272.604 73.9355 272.604 74.3867C272.604 76.2988 271.83 77.8457 270.283 79.0273C268.715 80.209 266.695 80.8105 264.203 80.8105C261.797 80.8105 260.229 79.6074 260.229 77.7812C260.229 76.9004 260.594 76.2559 261.324 75.8477C262.055 75.4395 263.795 75.0742 266.566 74.7949C266.717 74.7734 266.953 74.752 267.275 74.709C269.875 74.4512 271.615 74.0645 272.539 73.5703ZM279.715 69.8535C279.715 67.8555 279.543 66.373 279.199 65.3848C278.834 64.418 278.232 63.6016 277.395 62.957C275.16 61.3027 271.83 60.4434 267.533 60.4434C258.789 60.4434 254.062 63.4512 254.062 69.0371V69.123L261.732 69.1016C261.797 66.373 263.43 65.1484 267.104 65.1484C270.734 65.1484 272.561 66.0293 272.561 67.834C272.561 69.3379 270.197 70.2617 265.471 70.584C264.504 70.6484 263.73 70.6914 263.193 70.7344C259.09 71.0781 256.189 71.8086 254.492 72.9043C252.795 74.0215 251.957 75.6973 251.957 77.9531C251.957 80.3809 252.902 82.293 254.771 83.7109C256.641 85.1289 259.219 85.8379 262.484 85.8379C266.695 85.8379 269.811 84.7422 272.367 82.4004L272.732 85H280.832V84.4629C280.037 83.9258 279.715 83.0449 279.715 81.1758V69.8535ZM287.643 61.2812H284.184V66.8672H287.643V80.123C287.643 82.1426 288.244 83.6035 289.469 84.4844C290.693 85.3867 292.713 85.8379 295.527 85.8379H300.49V80.123H297.418C296.365 80.123 295.699 79.9727 295.42 79.6934C295.141 79.4141 294.99 78.4688 294.99 76.9004V66.8672H300.49V61.2812H294.99V55.0293H287.643V61.2812ZM312.07 53.2246H304.766V58.918H312.07V53.2246ZM312.07 85V61.2812H304.766V85H312.07ZM324.918 73.1621C324.918 71.0781 325.562 69.4023 326.852 68.1348C328.119 66.8887 329.838 66.2656 331.965 66.2656C334.092 66.2656 335.811 66.8887 337.078 68.1133C338.346 69.3594 338.969 71.0352 338.969 73.1191C338.969 75.2246 338.324 76.9004 337.057 78.1465C335.789 79.4141 334.092 80.0371 331.965 80.0371C329.838 80.0371 328.119 79.4141 326.852 78.168C325.562 76.9219 324.918 75.2461 324.918 73.1621ZM316.969 73.1191C316.969 77.0508 318.322 80.1445 321.008 82.4219C323.693 84.6992 327.346 85.8379 331.965 85.8379C336.584 85.8379 340.236 84.6992 342.922 82.4219C345.586 80.1445 346.918 77.0508 346.918 73.1191C346.918 69.1875 345.586 66.0938 342.922 63.8379C340.258 61.582 336.605 60.4434 331.965 60.4434C327.303 60.4434 323.65 61.582 320.986 63.8379C318.301 66.0938 316.969 69.1875 316.969 73.1191ZM358.67 85V73.291C358.67 71.207 359.293 69.5527 360.518 68.3496C361.742 67.168 363.418 66.5664 365.545 66.5664C367.436 66.5664 368.768 67.0605 369.541 68.0488C370.293 69.0371 370.68 70.8633 370.68 73.5059V85H378.027V71.9375C378.027 69.7676 377.92 68.1562 377.705 67.125C377.49 66.1152 377.125 65.2129 376.631 64.4609C374.998 62.0332 371.883 60.6582 367.908 60.6582C364.385 60.6582 361.27 62.0762 358.67 64.8477V61.2812H351.322V85H358.67Z" fill="white"/>
</svg>
