<svg width="538" height="42" viewBox="0 0 538 42" fill="none" xmlns="http://www.w3.org/2000/svg">
<path d="M8.21484 33V11.4297L17.6895 33H24.3281L34.1895 11.7949V33H41.8379V1.22461H31.6328L21.1055 23.9766L10.8574 1.22461H0.566406V33H8.21484ZM56.2109 1.22461H48.9062V6.91797H56.2109V1.22461ZM56.2109 33V9.28125H48.9062V33H56.2109ZM70.0254 33V21.291C70.0254 19.207 70.6484 17.5527 71.873 16.3496C73.0977 15.168 74.7734 14.5664 76.9004 14.5664C78.791 14.5664 80.123 15.0605 80.8965 16.0488C81.6484 17.0371 82.0352 18.8633 82.0352 21.5059V33H89.3828V19.9375C89.3828 17.7676 89.2754 16.1562 89.0605 15.125C88.8457 14.1152 88.4805 13.2129 87.9863 12.4609C86.3535 10.0332 83.2383 8.6582 79.2637 8.6582C75.7402 8.6582 72.625 10.0762 70.0254 12.8477V9.28125H62.6777V33H70.0254ZM97.1816 9.28125H93.7227V14.8672H97.1816V28.123C97.1816 30.1426 97.7832 31.6035 99.0078 32.4844C100.232 33.3867 102.252 33.8379 105.066 33.8379H110.029V28.123H106.957C105.904 28.123 105.238 27.9727 104.959 27.6934C104.68 27.4141 104.529 26.4688 104.529 24.9004V14.8672H110.029V9.28125H104.529V3.0293H97.1816V9.28125ZM129.129 22.666C129.129 26.2539 130.547 29.0039 133.383 30.9375C136.219 32.8711 140.279 33.8379 145.543 33.8379C156.607 33.8379 162.451 30.0781 162.451 23.0098C162.451 17.5098 158.756 14.5664 150.613 13.6855L144.705 13.0625C141.869 12.7402 140.086 12.375 139.377 11.9453C138.646 11.5156 138.281 10.8281 138.281 9.9043C138.281 7.58398 140.859 6.25195 145.328 6.25195C150.162 6.25195 152.762 7.82031 153.127 11H161.033V10.7422C161.033 7.54102 159.637 5.00586 156.844 3.1582C154.029 1.31055 150.162 0.386719 145.199 0.386719C140.58 0.386719 136.885 1.375 134.092 3.33008C131.277 5.28516 129.881 7.8418 129.881 10.957C129.881 16.2207 133.641 19.0352 141.891 19.8945L147.541 20.4531C150.055 20.7109 151.709 21.0762 152.547 21.5703C153.363 22.0645 153.771 22.8379 153.771 23.8906C153.771 26.3828 151.15 27.8008 146.51 27.8008C140.494 27.8008 137.271 25.8887 137.271 22.3008V22H129.129V22.666ZM169.584 9.28125H166.125V14.8672H169.584V28.123C169.584 30.1426 170.186 31.6035 171.41 32.4844C172.635 33.3867 174.654 33.8379 177.469 33.8379H182.432V28.123H179.359C178.307 28.123 177.641 27.9727 177.361 27.6934C177.082 27.4141 176.932 26.4688 176.932 24.9004V14.8672H182.432V9.28125H176.932V3.0293H169.584V9.28125ZM193.131 18.1113C193.26 16.6719 193.861 15.5117 194.936 14.6523C195.988 13.8145 197.363 13.3848 199.061 13.3848C202.477 13.3848 204.732 15.1895 204.99 18.1328L193.131 18.1113ZM204.646 25.3086C203.766 27.4785 201.66 28.7246 198.889 28.7246C197.105 28.7246 195.688 28.209 194.613 27.1777C193.518 26.168 192.959 24.793 192.916 23.0527H213.154V22.043C213.154 17.6816 211.93 14.3301 209.459 11.9668C206.988 9.625 203.465 8.44336 198.889 8.44336C194.484 8.44336 191.025 9.58203 188.469 11.8379C185.912 14.1152 184.645 17.209 184.645 21.1191C184.645 25.0293 185.934 28.123 188.49 30.4004C191.047 32.6992 194.506 33.8379 198.889 33.8379C202.348 33.8379 205.27 33.1074 207.676 31.6035C210.082 30.1211 211.779 28.0371 212.746 25.3086H204.646ZM225.379 33V1.22461H218.074V33H225.379ZM239.645 33V1.22461H232.34V33H239.645ZM265.684 21.5703C265.748 21.7422 265.748 21.9355 265.748 22.3867C265.748 24.2988 264.975 25.8457 263.428 27.0273C261.859 28.209 259.84 28.8105 257.348 28.8105C254.941 28.8105 253.373 27.6074 253.373 25.7812C253.373 24.9004 253.738 24.2559 254.469 23.8477C255.199 23.4395 256.939 23.0742 259.711 22.7949C259.861 22.7734 260.098 22.752 260.42 22.709C263.02 22.4512 264.76 22.0645 265.684 21.5703ZM272.859 17.8535C272.859 15.8555 272.688 14.373 272.344 13.3848C271.979 12.418 271.377 11.6016 270.539 10.957C268.305 9.30273 264.975 8.44336 260.678 8.44336C251.934 8.44336 247.207 11.4512 247.207 17.0371V17.123L254.877 17.1016C254.941 14.373 256.574 13.1484 260.248 13.1484C263.879 13.1484 265.705 14.0293 265.705 15.834C265.705 17.3379 263.342 18.2617 258.615 18.584C257.648 18.6484 256.875 18.6914 256.338 18.7344C252.234 19.0781 249.334 19.8086 247.637 20.9043C245.939 22.0215 245.102 23.6973 245.102 25.9531C245.102 28.3809 246.047 30.293 247.916 31.7109C249.785 33.1289 252.363 33.8379 255.629 33.8379C259.84 33.8379 262.955 32.7422 265.512 30.4004L265.877 33H273.977V32.4629C273.182 31.9258 272.859 31.0449 272.859 29.1758V17.8535ZM286.244 22.3867C286.244 20.002 286.867 18.1543 288.092 16.8008C289.316 15.4473 291.014 14.7812 293.162 14.7812C294.516 14.7812 294.988 14.8027 295.482 14.8672V8.61523C295.354 8.59375 295.16 8.59375 294.902 8.57227C294.172 8.48633 293.678 8.44336 293.42 8.44336C290.82 8.44336 288.479 9.73242 286.244 12.418V9.28125H278.896V33H286.244V22.3867ZM332.436 27.2852C329.234 27.2852 326.721 26.3828 324.895 24.5566C323.068 22.752 322.145 20.2812 322.145 17.123C322.145 13.9648 323.068 11.4727 324.916 9.64648C326.742 7.82031 329.256 6.91797 332.436 6.91797C335.615 6.91797 338.129 7.82031 339.955 9.625C341.781 11.4512 342.684 13.9434 342.684 17.123C342.684 20.2812 341.781 22.752 339.955 24.5566C338.129 26.3828 335.615 27.2852 332.436 27.2852ZM313.379 17.123C313.379 22.2148 315.098 26.2539 318.557 29.2832C322.016 32.3125 326.635 33.8379 332.436 33.8379C338.236 33.8379 342.855 32.3125 346.293 29.2832C349.73 26.2539 351.449 22.2148 351.449 17.123C351.449 12.0312 349.73 7.9707 346.293 4.94141C342.855 1.91211 338.236 0.386719 332.436 0.386719C326.635 0.386719 322.016 1.91211 318.557 4.94141C315.098 7.9707 313.379 12.0312 313.379 17.123ZM376.607 21.4199C376.607 23.4609 375.984 25.1152 374.717 26.3398C373.449 27.5859 371.773 28.209 369.668 28.209C367.541 28.209 365.865 27.6074 364.598 26.3828C363.33 25.1582 362.707 23.5254 362.707 21.4629C362.707 19.3789 363.33 17.7461 364.598 16.5215C365.844 15.2969 367.541 14.6953 369.668 14.6953C371.773 14.6953 373.449 15.2969 374.717 16.5215C375.984 17.7461 376.607 19.3789 376.607 21.4199ZM376.607 12.0527C374.695 9.99023 371.945 8.98047 368.336 8.98047C364.297 8.98047 361.031 10.1191 358.539 12.3965C356.047 14.6953 354.801 17.6816 354.801 21.377C354.801 25.0508 356.047 28.0371 358.539 30.3359C361.01 32.6348 364.232 33.7949 368.207 33.7949C371.902 33.7949 374.566 32.8496 376.607 30.8086V33H383.955V1.22461H376.607V12.0527ZM393.795 41.3574H394.998C397.061 41.3574 397.941 41.207 398.779 40.7773C400.219 40.0898 401.422 38.6504 402.518 36.4805L415.795 9.28125H407.717L400.842 24.5566L394.504 9.28125H386.318L396.609 31.1953C396.781 31.6035 396.889 32.0977 396.889 32.6992C396.889 34.0957 395.943 34.8477 394.117 34.8477H389.885V41.3574H393.795ZM417.062 25.2227C417.385 30.916 422.047 33.8379 430.834 33.8379C439.535 33.8379 444.133 30.8301 444.133 25.1582C444.133 21.0117 441.297 18.4551 436.205 18.0898L431.07 17.6816C427.053 17.3594 425.57 16.7363 425.57 15.4473C425.57 14.0938 427.332 13.2773 430.318 13.2773C433.863 13.2773 435.732 14.2871 436.076 16.3711H443.424V16.1562C443.424 13.75 442.307 11.8594 440.051 10.4844C437.795 9.13086 434.68 8.44336 430.705 8.44336C422.369 8.44336 417.814 11.2793 417.814 16.5C417.814 18.498 418.523 20.1523 419.963 21.4629C421.402 22.7734 423.336 23.5469 425.785 23.7617L432.424 24.3418C434.121 24.4707 435.217 24.6641 435.754 24.9434C436.27 25.2227 436.527 25.6523 436.527 26.2754C436.527 27.6504 434.529 28.5957 431.457 28.5957C426.988 28.5957 425.055 27.6074 424.818 25.2227H417.062ZM448.344 25.2227C448.666 30.916 453.328 33.8379 462.115 33.8379C470.816 33.8379 475.414 30.8301 475.414 25.1582C475.414 21.0117 472.578 18.4551 467.486 18.0898L462.352 17.6816C458.334 17.3594 456.852 16.7363 456.852 15.4473C456.852 14.0938 458.613 13.2773 461.6 13.2773C465.145 13.2773 467.014 14.2871 467.357 16.3711H474.705V16.1562C474.705 13.75 473.588 11.8594 471.332 10.4844C469.076 9.13086 465.961 8.44336 461.986 8.44336C453.65 8.44336 449.096 11.2793 449.096 16.5C449.096 18.498 449.805 20.1523 451.244 21.4629C452.684 22.7734 454.617 23.5469 457.066 23.7617L463.705 24.3418C465.402 24.4707 466.498 24.6641 467.035 24.9434C467.551 25.2227 467.809 25.6523 467.809 26.2754C467.809 27.6504 465.811 28.5957 462.738 28.5957C458.27 28.5957 456.336 27.6074 456.1 25.2227H448.344ZM487.424 18.1113C487.553 16.6719 488.154 15.5117 489.229 14.6523C490.281 13.8145 491.656 13.3848 493.354 13.3848C496.77 13.3848 499.025 15.1895 499.283 18.1328L487.424 18.1113ZM498.939 25.3086C498.059 27.4785 495.953 28.7246 493.182 28.7246C491.398 28.7246 489.98 28.209 488.906 27.1777C487.811 26.168 487.252 24.793 487.209 23.0527H507.447V22.043C507.447 17.6816 506.223 14.3301 503.752 11.9668C501.281 9.625 497.758 8.44336 493.182 8.44336C488.777 8.44336 485.318 9.58203 482.762 11.8379C480.205 14.1152 478.938 17.209 478.938 21.1191C478.938 25.0293 480.227 28.123 482.783 30.4004C485.34 32.6992 488.799 33.8379 493.182 33.8379C496.641 33.8379 499.562 33.1074 501.969 31.6035C504.375 30.1211 506.072 28.0371 507.039 25.3086H498.939ZM515.611 41.3574H516.814C518.877 41.3574 519.758 41.207 520.596 40.7773C522.035 40.0898 523.238 38.6504 524.334 36.4805L537.611 9.28125H529.533L522.658 24.5566L516.32 9.28125H508.135L518.426 31.1953C518.598 31.6035 518.705 32.0977 518.705 32.6992C518.705 34.0957 517.76 34.8477 515.934 34.8477H511.701V41.3574H515.611Z" fill="white"/>
</svg>
